SplineFontDB: 3.0
FontName: SMC_Uroob
FullName: SMC_Uroob
FamilyName: SMC_Uroob
Weight: Bold
Copyright: Hussain, Rajeesh, Santhosh, Kavya
UComments: "Dedicated to Uroob (P.C. Kuttykrishnan, celebrating the 50th year of Ummachu"
Version: 1
DefaultBaseFilename: SMC_Uroob
ItalicAngle: 0
UnderlinePosition: -100
UnderlineWidth: 20
Ascent: 1414
Descent: 634
InvalidEm: 0
sfntRevision: 0x00010000
LayerCount: 2
Layer: 0 1 "Back" 1
Layer: 1 1 "Fore" 0
XUID: [1021 73 915813246 788052]
FSType: 0
OS2Version: 3
OS2_WeightWidthSlopeOnly: 0
OS2_UseTypoMetrics: 1
CreationTime: 1418347145
ModificationTime: 1426574824
PfmFamily: 81
TTFWeight: 700
TTFWidth: 5
LineGap: 0
VLineGap: 0
Panose: 0 0 8 0 0 0 0 0 0 0
OS2TypoAscent: 1304
OS2TypoAOffset: 0
OS2TypoDescent: -744
OS2TypoDOffset: 0
OS2TypoLinegap: 0
OS2WinAscent: 1304
OS2WinAOffset: 0
OS2WinDescent: 744
OS2WinDOffset: 0
HheadAscent: 1304
HheadAOffset: 0
HheadDescent: -744
HheadDOffset: 0
OS2SubXSize: 700
OS2SubYSize: 650
OS2SubXOff: 0
OS2SubYOff: 140
OS2SupXSize: 700
OS2SupYSize: 650
OS2SupXOff: 0
OS2SupYOff: 477
OS2StrikeYSize: 50
OS2StrikeYPos: 250
OS2CapHeight: 0
OS2XHeight: 0
OS2Vendor: 'PfEd'
OS2CodePages: 00000001.00000000
OS2UnicodeRanges: 80800001.00002002.00000000.00000000
Lookup: 4 0 0 "'akhn' Akhand in Malay+AQEA-lam lookup 0" { "'akhn' Akhand in Malay+AQEA-lam lookup 0 subtable"  } ['akhn' ('mlym' <'dflt' > ) ]
Lookup: 4 0 0 "'akhn' Akhand in Malay+AQEA-lam2 lookup 1" { "'akhn' Akhand in Malay+AQEA-lam2 lookup 1 subtable"  } ['akhn' ('mlm2' <'dflt' > ) ]
Lookup: 4 0 0 "'pref' Pre Base Forms in Malay+AQEA-lam2 lookup 2" { "'pref' Pre Base Forms in Malay+AQEA-lam2 lookup 2 subtable"  } ['pref' ('mlm2' <'dflt' > ) ]
Lookup: 4 0 0 "'half' Half Forms in Malay+AQEA-lam lookup 3" { "'half' Half Forms in Malay+AQEA-lam lookup 3 subtable"  } ['half' ('mlym' <'dflt' > ) ]

StartChar: .notdef
Encoding: 190 -1 0
Width: 602
GlyphClass: 2
Flags: W
LayerCount: 2
Back
Fore
SplineSet
512 0 m 1,0,-1
 46 0 l 1,1,-1
 46 932 l 1,2,-1
 512 932 l 1,3,-1
 512 0 l 1,0,-1
92 884 m 1,4,-1
 92 46 l 1,5,-1
 466 46 l 1,6,-1
 466 884 l 1,7,-1
 92 884 l 1,4,-1
EndSplineSet
EndChar

StartChar: exclam
Encoding: 4 33 6
Width: 309
GlyphClass: 2
Flags: W
LayerCount: 2
Back
Fore
SplineSet
129 0 m 1,0,-1
 129 170 l 1,1,-1
 299 170 l 1,2,-1
 299 0 l 1,3,-1
 129 0 l 1,0,-1
307 1043 m 1,4,-1
 288 255 l 1,5,-1
 140 255 l 1,6,-1
 117 1043 l 1,7,-1
 307 1043 l 1,4,-1
EndSplineSet
EndChar

StartChar: quotedbl
Encoding: 5 34 7
Width: 397
GlyphClass: 2
Flags: W
LayerCount: 2
Back
Fore
SplineSet
397 922 m 1,0,-1
 171 922 l 1,1,2
 161 997 161 997 152 1071.5 c 128,-1,3
 143 1146 143 1146 132 1216 c 2,4,-1
 117 1321 l 1,5,-1
 267 1321 l 1,6,-1
 397 922 l 1,0,-1
EndSplineSet
EndChar

StartChar: numbersign
Encoding: 6 35 8
Width: 923
GlyphClass: 2
Flags: W
LayerCount: 2
Back
Fore
SplineSet
428 594 m 1,0,-1
 386 408 l 1,1,-1
 556 408 l 1,2,-1
 599 594 l 1,3,-1
 428 594 l 1,0,-1
63 251 m 1,4,-1
 63 408 l 1,5,-1
 209 408 l 1,6,-1
 250 594 l 1,7,-1
 63 594 l 1,8,-1
 63 749 l 1,9,-1
 287 749 l 1,10,-1
 368 1116 l 1,11,-1
 544 1116 l 1,12,-1
 463 749 l 1,13,-1
 632 749 l 1,14,-1
 718 1116 l 1,15,-1
 894 1116 l 1,16,-1
 809 749 l 1,17,-1
 919 749 l 1,18,-1
 919 594 l 1,19,-1
 775 594 l 1,20,-1
 733 408 l 1,21,-1
 919 408 l 1,22,-1
 919 251 l 1,23,-1
 698 251 l 1,24,-1
 615 -115 l 1,25,-1
 441 -115 l 1,26,-1
 522 251 l 1,27,-1
 352 251 l 1,28,-1
 268 -115 l 1,29,-1
 92 -115 l 1,30,-1
 174 251 l 1,31,-1
 63 251 l 1,4,-1
EndSplineSet
EndChar

StartChar: dollar
Encoding: 7 36 9
Width: 801
GlyphClass: 2
Flags: W
LayerCount: 2
Back
Fore
SplineSet
502 127 m 1,0,1
 615 161 615 161 615 240.5 c 128,-1,2
 615 320 615 320 502 370 c 1,3,-1
 502 127 l 1,0,1
343 877 m 1,4,5
 263 831 263 831 263 743 c 128,-1,6
 263 655 263 655 343 604 c 1,7,-1
 343 877 l 1,4,5
720 70.4535 m 128,-1,9
 631 2 631 2 502 -15 c 1,10,-1
 502 -124 l 1,11,-1
 343 -124 l 1,12,-1
 343 -19 l 1,13,14
 204 -7 204 -7 93 79 c 1,15,-1
 96 269 l 1,16,17
 171.408 134.342 171.408 134.342 343 118 c 1,18,-1
 343 430 l 1,19,20
 217 477 217 477 145.5 542 c 128,-1,21
 74 607 74 607 74 721 c 128,-1,22
 74 835 74 835 149 919.5 c 128,-1,23
 224 1004 224 1004 343 1028 c 1,24,-1
 343 1113 l 1,25,-1
 502 1113 l 1,26,-1
 502 1034 l 1,27,28
 664 1026 664 1026 772 931 c 1,29,-1
 767 684 l 1,30,31
 724 869 724 869 502 893 c 1,32,-1
 502 536 l 1,33,34
 724.84 455.367 724.84 455.367 766.92 382.684 c 128,-1,35
 809 310 809 310 809 224.453 c 128,-1,8
 809 138.907 809 138.907 720 70.4535 c 128,-1,9
EndSplineSet
EndChar

StartChar: percent
Encoding: 8 37 10
Width: 1017
GlyphClass: 2
Flags: W
LayerCount: 2
Back
Fore
SplineSet
808 170 m 2,0,1
 850 170 850 170 850 249 c 128,-1,2
 850 328 850 328 808 328 c 2,3,-1
 775 328 l 2,4,5
 739 328 739 328 739 263 c 2,6,-1
 739 231 l 2,7,8
 739 170 739 170 777 170 c 2,9,-1
 808 170 l 2,0,1
327 746 m 2,10,11
 367 746 367 746 367 824.5 c 128,-1,12
 367 903 367 903 327 903 c 2,13,-1
 294 903 l 2,14,15
 258 903 258 903 258 841 c 2,16,-1
 258 806 l 2,17,18
 258 746 258 746 296 746 c 2,19,-1
 327 746 l 2,10,11
979 209 m 2,20,21
 979 72 979 72 794 72 c 0,22,23
 675.604 72 675.604 72 641.302 122.5 c 128,-1,24
 607 173 607 173 607 211 c 2,25,-1
 607 291 l 2,26,27
 607 425 607 425 794 425 c 0,28,29
 910.529 425 910.529 425 944.765 376.5 c 128,-1,30
 979 328 979 328 979 291 c 2,31,-1
 979 209 l 2,20,21
244 26 m 1,32,33
 315.21 190.874 315.21 190.874 703 1040 c 1,34,-1
 854 1040 l 1,35,-1
 397 26 l 1,36,-1
 244 26 l 1,32,33
498 785 m 2,37,38
 498 648 498 648 311 648 c 0,39,40
 195.231 648 195.231 648 160.615 698 c 128,-1,41
 126 748 126 748 126 786 c 2,42,-1
 126 866 l 2,43,44
 126 1001 126 1001 313 1001 c 0,45,46
 430.154 1001 430.154 1001 464.077 952 c 128,-1,47
 498 903 498 903 498 866 c 2,48,-1
 498 785 l 2,37,38
EndSplineSet
EndChar

StartChar: ampersand
Encoding: 9 38 11
Width: 760
GlyphClass: 2
Flags: W
LayerCount: 2
Back
Fore
SplineSet
466 117 m 2,0,1
 557.667 117 557.667 117 549 214.5 c 0,2,3
 547 237 547 237 547 251 c 2,4,-1
 547 522 l 2,5,6
 547 598.675 547 598.675 590.5 619.338 c 128,-1,7
 634 640 634 640 657 640 c 2,8,-1
 757 640 l 1,9,-1
 757 506 l 1,10,-1
 722 506 l 1,11,-1
 722 156 l 2,12,13
 722 71.5 722 71.5 669.5 41.75 c 0,14,15
 595.824 1.02567e-05 595.824 1.02567e-05 537 0 c 2,16,-1
 292 0 l 2,17,18
 156.444 0 156.444 0 124.5 115 c 0,19,20
 117 142 117 142 117 158 c 2,21,-1
 117 388 l 2,22,23
 117 484.167 117 484.167 216 530 c 1,24,25
 117 572.429 117 572.429 117 689 c 2,26,-1
 117 897 l 2,27,28
 117 1015.43 117 1015.43 248 1046 c 0,29,30
 278 1053 278 1053 296 1053 c 2,31,-1
 548 1053 l 1,32,-1
 548 924 l 1,33,-1
 381 924 l 2,34,35
 304.733 924 304.733 924 299.367 889.5 c 128,-1,36
 294 855 294 855 294 813 c 2,37,-1
 294 687 l 2,38,39
 294 596.08 294 596.08 370 590 c 1,40,-1
 476 590 l 1,41,-1
 476 466 l 1,42,-1
 374 466 l 2,43,44
 294 466 294 466 294 359 c 2,45,-1
 294 230 l 2,46,47
 294 117 294 117 377 117 c 2,48,-1
 466 117 l 2,0,1
EndSplineSet
EndChar

StartChar: quotesingle
Encoding: 10 39 12
Width: 397
GlyphClass: 2
Flags: W
LayerCount: 2
Back
Fore
SplineSet
173 1323 m 1,0,-1
 397 1323 l 1,1,-1
 267 924 l 1,2,-1
 117 924 l 1,3,-1
 173 1323 l 1,0,-1
EndSplineSet
EndChar

StartChar: parenleft
Encoding: 11 40 13
Width: 451
GlyphClass: 2
Flags: W
LayerCount: 2
Back
Fore
SplineSet
309 124 m 2,0,1
 309 -7.09434 309 -7.09434 451 -58 c 1,2,-1
 451 -187 l 1,3,4
 326.444 -187 326.444 -187 242.722 -118.5 c 0,5,6
 117 -15.6364 117 -15.6364 117 58 c 2,7,-1
 117 891 l 2,8,9
 117 1055.58 117 1055.58 451 1153 c 1,10,-1
 451 1015 l 1,11,12
 309 957.654 309 957.654 309 817 c 2,13,-1
 309 124 l 2,0,1
EndSplineSet
EndChar

StartChar: parenright
Encoding: 12 41 14
Width: 451
GlyphClass: 2
Flags: W
LayerCount: 2
Back
Fore
SplineSet
117 1153 m 1,0,1
 451 1055.58 451 1055.58 451 899 c 2,2,-1
 451 58 l 2,3,4
 451 -75.56 451 -75.56 227.5 -159 c 0,5,6
 152.5 -187 152.5 -187 117 -187 c 1,7,-1
 117 -58 l 1,8,9
 261 -5.38462 261 -5.38462 261 124 c 2,10,-1
 261 827 l 2,11,12
 261 956.846 261 956.846 117 1015 c 1,13,-1
 117 1153 l 1,0,1
EndSplineSet
EndChar

StartChar: asterisk
Encoding: 13 42 15
Width: 613
GlyphClass: 2
Flags: W
LayerCount: 2
Back
Fore
SplineSet
300 1290 m 1,0,-1
 432 1290 l 1,1,-1
 432 1142 l 1,2,3
 448 1148 448 1148 460 1153.5 c 128,-1,4
 472 1159 472 1159 488 1165 c 2,5,-1
 568 1197 l 1,6,-1
 613 1090 l 1,7,-1
 459 1029 l 1,8,-1
 465 1029 l 1,9,-1
 518 975 l 1,10,-1
 568 916 l 1,11,-1
 479 831 l 1,12,-1
 364 959 l 1,13,14
 353 949 353 949 342.5 935.5 c 128,-1,15
 332 922 332 922 321 911 c 1,16,-1
 251 831 l 1,17,-1
 161 916 l 1,18,-1
 265 1029 l 1,19,-1
 268 1029 l 1,20,21
 246 1040 246 1040 225 1046.5 c 128,-1,22
 204 1053 204 1053 181 1062 c 2,23,-1
 117 1088 l 1,24,-1
 161 1198 l 1,25,-1
 300 1142 l 1,26,-1
 300 1290 l 1,0,-1
EndSplineSet
EndChar

StartChar: plus
Encoding: 14 43 16
Width: 733
GlyphClass: 2
Flags: W
LayerCount: 2
Back
Fore
SplineSet
733 251 m 1,0,-1
 525 251 l 1,1,-1
 525 27 l 1,2,-1
 329 27 l 1,3,-1
 329 251 l 1,4,-1
 117 251 l 1,5,-1
 117 393 l 1,6,-1
 329 393 l 1,7,-1
 329 634 l 1,8,-1
 525 634 l 1,9,-1
 525 393 l 1,10,-1
 733 393 l 1,11,-1
 733 251 l 1,0,-1
EndSplineSet
EndChar

StartChar: comma
Encoding: 15 44 17
Width: 397
GlyphClass: 2
Flags: W
LayerCount: 2
Back
Fore
SplineSet
367 110 m 1,0,-1
 225 -290 l 1,1,-1
 87 -290 l 1,2,-1
 153 110 l 1,3,-1
 367 110 l 1,0,-1
EndSplineSet
EndChar

StartChar: hyphen
Encoding: 16 45 18
Width: 919
GlyphClass: 2
Flags: W
LayerCount: 2
Back
Fore
SplineSet
117 301 m 1,0,-1
 117 423 l 1,1,-1
 919 423 l 1,2,-1
 919 301 l 1,3,-1
 117 301 l 1,0,-1
EndSplineSet
EndChar

StartChar: period
Encoding: 17 46 19
Width: 300
GlyphClass: 2
Flags: W
LayerCount: 2
Back
Fore
SplineSet
117 0 m 1,0,-1
 117 230 l 1,1,-1
 300 230 l 1,2,-1
 300 0 l 1,3,-1
 117 0 l 1,0,-1
EndSplineSet
EndChar

StartChar: slash
Encoding: 18 47 20
Width: 804
GlyphClass: 2
Flags: W
LayerCount: 2
Back
Fore
SplineSet
804 1080 m 1,0,-1
 300 -120 l 1,1,-1
 117 -120 l 1,2,-1
 619 1080 l 1,3,-1
 804 1080 l 1,0,-1
EndSplineSet
EndChar

StartChar: zero
Encoding: 19 48 21
Width: 709
GlyphClass: 2
Flags: W
LayerCount: 2
Back
Fore
SplineSet
509 0 m 2,0,-1
 315 0 l 2,1,2
 162.738 0 162.738 0 123 143.5 c 0,3,4
 114 176 114 176 114 194 c 2,5,-1
 114 829 l 2,6,7
 114 949.765 114 949.765 261 993 c 0,8,9
 295 1003 295 1003 315 1003 c 2,10,-1
 511 1003 l 2,11,12
 617.031 1003 617.031 1003 663.015 942 c 128,-1,13
 709 881 709 881 709 833 c 2,14,-1
 709 194 l 2,15,16
 709 88.4342 709 88.4342 604 23.5 c 0,17,18
 566 0 566 0 509 0 c 2,0,-1
292 225 m 2,19,20
 292 126 292 126 381 126 c 2,21,-1
 431 126 l 2,22,23
 528 126 528 126 528 223 c 2,24,-1
 528 784 l 2,25,26
 528 879 528 879 433 879 c 2,27,-1
 389 879 l 2,28,29
 292 879 292 879 292 784 c 2,30,-1
 292 225 l 2,19,20
EndSplineSet
EndChar

StartChar: one
Encoding: 20 49 22
Width: 404
GlyphClass: 2
Flags: W
LayerCount: 2
Back
Fore
SplineSet
404 0 m 1,0,-1
 227 0 l 1,1,-1
 227 880 l 1,2,-1
 114 860 l 1,3,-1
 114 987 l 1,4,-1
 404 1007 l 1,5,-1
 404 0 l 1,0,-1
EndSplineSet
EndChar

StartChar: two
Encoding: 21 50 23
Width: 709
GlyphClass: 2
Flags: W
LayerCount: 2
Back
Fore
SplineSet
709 692 m 2,0,1
 709 398.909 709 398.909 320 116 c 1,2,-1
 709 116 l 1,3,-1
 709 0 l 1,4,-1
 114 0 l 1,5,-1
 114 120 l 1,6,7
 534 377.6 534 377.6 534 692 c 2,8,-1
 534 776 l 2,9,10
 534 887 534 887 469 887 c 2,11,-1
 357 887 l 2,12,13
 292 887 292 887 292 810 c 2,14,-1
 292 692 l 1,15,-1
 120 692 l 1,16,-1
 120 847 l 2,17,18
 120 1003 120 1003 290 1003 c 2,19,-1
 543 1003 l 2,20,21
 709 1003 709 1003 709 877 c 2,22,-1
 709 692 l 2,0,1
EndSplineSet
EndChar

StartChar: three
Encoding: 22 51 24
Width: 709
GlyphClass: 2
Flags: W
LayerCount: 2
Back
Fore
SplineSet
463 587 m 2,0,1
 528 587 528 587 528 704 c 2,2,-1
 528 778 l 2,3,4
 528 877 528 877 456 877 c 2,5,-1
 347 877 l 2,6,7
 290 877 290 877 290 824.5 c 2,8,-1
 290 730 l 1,9,-1
 114 730 l 1,10,-1
 114 860 l 2,11,12
 114 1003 114 1003 276 1003 c 2,13,-1
 547 1003 l 2,14,15
 709 1003 709 1003 709 862 c 2,16,-1
 709 652 l 2,17,18
 709 560.375 709 560.375 649 521 c 1,19,-1
 647 521 l 1,20,21
 709 493.263 709 493.263 709 404 c 2,22,-1
 709 151 l 2,23,24
 709 0 709 0 543 0 c 2,25,-1
 280 0 l 2,26,27
 114 0 114 0 114 147 c 2,28,-1
 114 280 l 1,29,-1
 290 280 l 1,30,-1
 290 208 l 2,31,32
 290 124 290 124 347 124 c 2,33,-1
 456 124 l 2,34,35
 528 124 528 124 528 225 c 2,36,-1
 528 360 l 2,37,38
 528 463 528 463 461 463 c 2,39,-1
 321 463 l 1,40,-1
 321 587 l 1,41,-1
 463 587 l 2,0,1
EndSplineSet
EndChar

StartChar: four
Encoding: 23 52 25
Width: 787
GlyphClass: 2
Flags: W
LayerCount: 2
Back
Fore
SplineSet
114 191 m 1,0,-1
 114 317 l 1,1,-1
 522 1003 l 1,2,-1
 709 1003 l 1,3,-1
 709 318 l 1,4,-1
 787 318 l 1,5,-1
 787 191 l 1,6,-1
 709 191 l 1,7,-1
 709 0 l 1,8,-1
 528 0 l 1,9,-1
 528 191 l 1,10,-1
 114 191 l 1,0,-1
528 318 m 1,11,-1
 528 752 l 1,12,13
 489.333 686.667 489.333 686.667 437.167 582.333 c 0,14,15
 337.667 383.333 337.667 383.333 299 318 c 1,16,-1
 528 318 l 1,11,-1
EndSplineSet
EndChar

StartChar: five
Encoding: 24 53 26
Width: 711
GlyphClass: 2
Flags: W
LayerCount: 2
Back
Fore
SplineSet
362 511 m 2,0,1
 290 511 290 511 290 416 c 1,2,-1
 116 426 l 1,3,-1
 116 1003 l 1,4,-1
 684 1003 l 1,5,-1
 684 877 l 1,6,-1
 292 877 l 1,7,-1
 292 633 l 1,8,-1
 323 643 l 1,9,-1
 534 643 l 2,10,11
 711 643 711 643 711 500 c 2,12,-1
 711 147 l 2,13,14
 711 0 711 0 534 0 c 2,15,-1
 290 0 l 2,16,17
 142.959 0 142.959 0 119.5 104.5 c 0,18,19
 114 129 114 129 114 143 c 2,20,-1
 114 259 l 1,21,-1
 290 259 l 1,22,-1
 290 225 l 2,23,24
 290 118 290 118 368 118 c 2,25,-1
 454 118 l 2,26,27
 532 118 532 118 532 225 c 2,28,-1
 532 416 l 2,29,30
 532 511 532 511 458 511 c 2,31,-1
 362 511 l 2,0,1
EndSplineSet
EndChar

StartChar: six
Encoding: 25 54 27
Width: 709
GlyphClass: 2
Flags: W
LayerCount: 2
Back
Fore
SplineSet
538 1003 m 2,0,1
 719 1003 719 1003 719 864 c 2,2,-1
 719 747 l 1,3,-1
 538 747 l 1,4,-1
 538 782 l 2,5,6
 538 880 538 880 456 880 c 2,7,-1
 374 880 l 2,8,9
 294 880 294 880 294 816 c 2,10,-1
 294 579 l 1,11,-1
 331 589 l 1,12,-1
 530 589 l 2,13,14
 709 589 709 589 709 448 c 2,15,-1
 709 147 l 2,16,17
 709 0 709 0 528 0 c 2,18,-1
 296 0 l 2,19,20
 145.68 0 145.68 0 120 107 c 0,21,22
 114 132 114 132 114 147 c 2,23,-1
 114 856 l 2,24,25
 114 947.388 114 947.388 218.5 989.5 c 0,26,27
 252 1003 252 1003 294 1003 c 2,28,-1
 538 1003 l 2,0,1
368 471 m 2,29,30
 292 471 292 471 292 368 c 2,31,-1
 292 223 l 2,32,33
 292 116 292 116 374 116 c 2,34,-1
 446 116 l 2,35,36
 528 116 528 116 528 223 c 2,37,-1
 528 368 l 2,38,39
 528 471 528 471 452 471 c 2,40,-1
 368 471 l 2,29,30
EndSplineSet
EndChar

StartChar: seven
Encoding: 26 55 28
Width: 713
GlyphClass: 2
Flags: W
LayerCount: 2
Back
Fore
SplineSet
114 883 m 1,0,-1
 114 1003 l 1,1,-1
 713 1003 l 1,2,-1
 713 895 l 1,3,-1
 337 0 l 1,4,-1
 151 0 l 1,5,-1
 544 883 l 1,6,-1
 114 883 l 1,0,-1
EndSplineSet
EndChar

StartChar: eight
Encoding: 27 56 29
Width: 709
GlyphClass: 2
Flags: W
LayerCount: 2
Back
Fore
SplineSet
709 143 m 2,0,1
 709 0 709 0 541 0 c 2,2,-1
 278 0 l 2,3,4
 178.75 0 178.75 0 146.375 49 c 128,-1,5
 114 98 114 98 114 145 c 2,6,-1
 114 403 l 2,7,8
 114 482.079 114 482.079 201 521 c 1,9,10
 114 563.257 114 563.257 114 637 c 2,11,-1
 114 858 l 2,12,13
 114 1003 114 1003 278 1003 c 2,14,-1
 543 1003 l 2,15,16
 678.143 1003 678.143 1003 703 901.5 c 0,17,18
 709 877 709 877 709 860 c 2,19,-1
 709 637 l 2,20,21
 709 563.286 709 563.286 628 517 c 1,22,-1
 626 517 l 1,23,24
 709 473.059 709 473.059 709 403 c 2,25,-1
 709 143 l 2,0,1
290 219 m 2,26,27
 290 116 290 116 358 116 c 2,28,-1
 461 116 l 2,29,30
 528 116 528 116 528 219 c 2,31,-1
 528 363 l 2,32,33
 528 470 528 470 456 470 c 2,34,-1
 353 470 l 1,35,36
 290 449 290 449 290 363 c 2,37,-1
 290 219 l 2,26,27
477 595 m 2,38,39
 528 595 528 595 528 693 c 2,40,-1
 528 774 l 2,41,42
 528 881 528 881 456 881 c 2,43,-1
 360 881 l 2,44,45
 290 881 290 881 290 774 c 2,46,-1
 290 693 l 2,47,48
 290 595 290 595 358 595 c 2,49,-1
 477 595 l 2,38,39
EndSplineSet
EndChar

StartChar: nine
Encoding: 28 57 30
Width: 709
GlyphClass: 2
Flags: W
LayerCount: 2
Back
Fore
SplineSet
294 416 m 2,0,1
 114 416 114 416 114 555 c 2,2,-1
 114 856 l 2,3,4
 114 1003 114 1003 296 1003 c 2,5,-1
 528 1003 l 2,6,7
 677.32 1003 677.32 1003 703 896 c 0,8,9
 709 871 709 871 709 856 c 2,10,-1
 709 147 l 2,11,12
 709 55.209 709 55.209 605.5 13.5 c 0,13,14
 572 0 572 0 530 0 c 2,15,-1
 296 0 l 2,16,17
 136.917 0 136.917 0 126.5 100 c 0,18,19
 124 124 124 124 124 141 c 2,20,-1
 124 255 l 1,21,-1
 296 255 l 1,22,-1
 296 223 l 2,23,24
 296 114 296 114 378 114 c 2,25,-1
 450 114 l 2,26,27
 499.565 114 499.565 114 514.783 139 c 128,-1,28
 530 164 530 164 530 177 c 2,29,-1
 530 426 l 1,30,-1
 501 416 l 1,31,-1
 294 416 l 2,0,1
456 532 m 2,32,33
 532 532 532 532 532 635 c 2,34,-1
 532 782 l 2,35,36
 532 889 532 889 450 889 c 2,37,-1
 378 889 l 2,38,39
 296 889 296 889 296 782 c 2,40,-1
 296 635 l 2,41,42
 296 532 296 532 372 532 c 2,43,-1
 456 532 l 2,32,33
EndSplineSet
EndChar

StartChar: colon
Encoding: 29 58 31
Width: 300
GlyphClass: 2
Flags: W
LayerCount: 2
Back
Fore
SplineSet
117 430 m 1,0,-1
 117 658 l 1,1,-1
 300 658 l 1,2,-1
 300 430 l 1,3,-1
 117 430 l 1,0,-1
117 0 m 1,4,-1
 117 230 l 1,5,-1
 300 230 l 1,6,-1
 300 0 l 1,7,-1
 117 0 l 1,4,-1
EndSplineSet
EndChar

StartChar: semicolon
Encoding: 30 59 32
Width: 397
GlyphClass: 2
Flags: W
LayerCount: 2
Back
Fore
SplineSet
367 110 m 1,0,1
 225 -290 l 1,2,-1
 87 -290 l 1,3,-1
 153 110 l 1,4,-1
 367 110 l 1,0,1
354 170 m 1,5,-1
 169 170 l 1,6,-1
 169 378 l 1,7,-1
 354 378 l 1,8,-1
 354 170 l 1,5,-1
EndSplineSet
EndChar

StartChar: less
Encoding: 31 60 33
Width: 881
GlyphClass: 2
Flags: W
LayerCount: 2
Back
Fore
SplineSet
305 372 m 1,0,1
 650.678 212.645 650.678 212.645 881 109 c 1,2,-1
 881 -34 l 1,3,-1
 117 319 l 1,4,-1
 117 428 l 1,5,-1
 881 780 l 1,6,-1
 881 640 l 1,7,-1
 305 372 l 1,0,1
EndSplineSet
EndChar

StartChar: equal
Encoding: 32 61 34
Width: 819
GlyphClass: 2
Flags: W
LayerCount: 2
Back
Fore
SplineSet
117 280 m 1,0,-1
 117 405 l 1,1,-1
 819 405 l 1,2,-1
 819 280 l 1,3,-1
 117 280 l 1,0,-1
117 541 m 1,4,-1
 117 663 l 1,5,-1
 819 663 l 1,6,-1
 819 541 l 1,7,-1
 117 541 l 1,4,-1
EndSplineSet
EndChar

StartChar: greater
Encoding: 33 62 35
Width: 881
GlyphClass: 2
Flags: W
LayerCount: 2
Back
Fore
SplineSet
695 372 m 1,0,-1
 117 640 l 1,1,-1
 117 780 l 1,2,-1
 881 428 l 1,3,-1
 881 319 l 1,4,-1
 117 -34 l 1,5,-1
 117 109 l 1,6,-1
 695 372 l 1,0,-1
EndSplineSet
EndChar

StartChar: question
Encoding: 34 63 36
Width: 658
GlyphClass: 2
Flags: W
LayerCount: 2
Back
Fore
SplineSet
253 394 m 1,0,1
 477 544.769 477 544.769 477 762 c 2,2,-1
 477 872 l 2,3,4
 477 963 477 963 409 963 c 2,5,-1
 360 963 l 2,6,7
 294 963 294 963 294 886.5 c 2,8,-1
 294 788 l 1,9,-1
 117 788 l 1,10,-1
 117 942 l 2,11,12
 117 1090 117 1090 276 1090 c 2,13,-1
 498 1090 l 2,14,15
 592.931 1090 592.931 1090 625.466 1039 c 128,-1,16
 658 988 658 988 658 942 c 1,17,18
 688.768 562.528 688.768 562.528 434 374 c 1,19,-1
 434 295 l 1,20,-1
 253 292 l 1,21,-1
 253 394 l 1,0,1
253 0 m 1,22,-1
 253 210 l 1,23,-1
 434 210 l 1,24,-1
 434 0 l 1,25,-1
 253 0 l 1,22,-1
EndSplineSet
EndChar

StartChar: at
Encoding: 35 64 37
Width: 1186
GlyphClass: 2
Flags: W
LayerCount: 2
Back
Fore
SplineSet
709.5 616.4 m 128,-1,1
 676 652 676 652 635 652 c 0,2,3
 560.316 652 560.316 652 511.658 610 c 128,-1,4
 463 568 463 568 463 511.5 c 128,-1,5
 463 455 463 455 499.5 425.5 c 128,-1,6
 536 396 536 396 577 396 c 128,-1,7
 618 396 618 396 646 405 c 128,-1,8
 674 414 674 414 695.5 431.5 c 0,9,10
 743 470.163 743 470.163 743 525.481 c 128,-1,0
 743 580.8 743 580.8 709.5 616.4 c 128,-1,1
892 407.5 m 128,-1,12
 892 391 892 391 925 391 c 128,-1,13
 958 391 958 391 997.5 450.5 c 128,-1,14
 1037 510 1037 510 1037 603 c 128,-1,15
 1037 696 1037 696 967 798 c 1,16,-1
 895 435 l 2,17,18
 894 431 894 431 893 427.5 c 128,-1,11
 892 424 892 424 892 407.5 c 128,-1,12
965 802 m 1,19,20
 852.18 962 852.18 962 648 962 c 0,21,22
 455.211 962 455.211 962 330.605 841 c 128,-1,23
 206 720 206 720 206 521.5 c 128,-1,24
 206 323 206 323 351.5 195.5 c 128,-1,25
 497 68 497 68 714 68 c 128,-1,26
 931 68 931 68 1080 221 c 1,27,-1
 1080 48 l 1,28,29
 905 -86 905 -86 663 -86 c 128,-1,30
 421 -86 421 -86 265.5 55 c 128,-1,31
 110 196 110 196 74 316.5 c 128,-1,32
 38 437 38 437 38 548 c 0,33,34
 38 790.617 38 790.617 208.5 950.809 c 128,-1,35
 379 1111 379 1111 624.5 1111 c 128,-1,36
 870 1111 870 1111 1028.5 981 c 128,-1,37
 1187 851 1187 851 1187 663 c 128,-1,38
 1187 475 1187 475 1072 333.5 c 128,-1,39
 957 192 957 192 804 192 c 0,40,41
 736 192 736 192 690 257 c 1,42,43
 623 199 623 199 555.5 199 c 0,44,45
 435.846 199 435.846 199 361.923 284 c 128,-1,46
 288 369 288 369 288 494 c 128,-1,47
 288 619 288 619 372 729 c 128,-1,48
 456 839 456 839 581 839 c 128,-1,49
 706 839 706 839 786 774 c 1,50,-1
 793 802 l 1,51,-1
 965 802 l 1,19,20
EndSplineSet
EndChar

StartChar: A
Encoding: 36 65 38
Width: 1068
GlyphClass: 2
Flags: W
LayerCount: 2
Back
Fore
SplineSet
533 953 m 1,0,-1
 405 551 l 1,1,-1
 653 551 l 1,2,-1
 533 953 l 1,0,-1
819 0 m 1,3,-1
 710 359 l 1,4,-1
 353 359 l 1,5,-1
 243 0 l 1,6,-1
 31 0 l 1,7,-1
 426 1257 l 1,8,-1
 646 1257 l 1,9,-1
 1036 0 l 1,10,-1
 819 0 l 1,3,-1
EndSplineSet
EndChar

StartChar: B
Encoding: 37 66 39
Width: 951
GlyphClass: 2
Flags: W
LayerCount: 2
Back
Fore
SplineSet
547 198 m 2,0,1
 704 198 704 198 704 382 c 0,2,3
 704 480 704 480 644.5 511.5 c 128,-1,4
 585 543 585 543 487 543 c 2,5,-1
 254 543 l 1,6,-1
 254 198 l 1,7,-1
 547 198 l 2,0,1
480 741 m 2,8,9
 657 741 657 741 657 914 c 0,10,11
 657 1056 657 1056 480 1056 c 2,12,-1
 254 1056 l 1,13,-1
 254 741 l 1,14,-1
 480 741 l 2,8,9
738 664 m 1,15,16
 899 564 899 564 899 383 c 128,-1,17
 899 202 899 202 806 101 c 128,-1,18
 713 0 713 0 561 0 c 2,19,-1
 57 0 l 1,20,-1
 57 1254 l 1,21,-1
 514 1254 l 2,22,23
 675 1254 675 1254 764 1164 c 128,-1,24
 853 1074 853 1074 853 916.5 c 128,-1,25
 853 759 853 759 738 664 c 1,15,16
EndSplineSet
EndChar

StartChar: C
Encoding: 38 67 40
Width: 1055
GlyphClass: 2
Flags: W
LayerCount: 2
Back
Fore
SplineSet
1035 509 m 1,0,1
 972.067 -22.0001 972.067 -22.0001 561 -22 c 0,2,3
 350 -22 350 -22 205.5 138.5 c 128,-1,4
 61 299 61 299 61 603.5 c 128,-1,5
 61 908 61 908 191.5 1093 c 128,-1,6
 322 1278 322 1278 538 1278 c 128,-1,7
 754 1278 754 1278 863.5 1169.5 c 128,-1,8
 973 1061 973 1061 1014 829 c 1,9,-1
 815 829 l 1,10,11
 774 1026 774 1026 651 1066 c 0,12,13
 609 1079 609 1079 507 1079 c 128,-1,14
 405 1079 405 1079 332.5 950 c 128,-1,15
 260 821 260 821 260 607.5 c 128,-1,16
 260 394 260 394 347.5 285 c 128,-1,17
 435 176 435 176 569 176 c 0,18,19
 782.326 176 782.326 176 833 509 c 1,20,-1
 1035 509 l 1,0,1
EndSplineSet
EndChar

StartChar: D
Encoding: 39 68 41
Width: 1001
GlyphClass: 2
Flags: W
LayerCount: 2
Back
Fore
SplineSet
756 627 m 128,-1,1
 756 1056 756 1056 473 1056 c 2,2,-1
 257 1056 l 1,3,-1
 257 198 l 1,4,-1
 473 198 l 2,5,0
 756 198 756 198 756 627 c 128,-1,1
495 1254 m 2,6,7
 955 1254 955 1254 955 581.5 c 0,8,9
 955 271 955 271 808 135.5 c 128,-1,10
 661 0 661 0 495 0 c 2,11,-1
 61 0 l 1,12,-1
 61 1254 l 1,13,-1
 495 1254 l 2,6,7
EndSplineSet
EndChar

StartChar: E
Encoding: 40 69 42
Width: 898
GlyphClass: 2
Flags: W
LayerCount: 2
Back
Fore
SplineSet
59 0 m 1,0,-1
 59 1254 l 1,1,-1
 842 1254 l 1,2,-1
 842 1056 l 1,3,-1
 255 1056 l 1,4,-1
 255 741 l 1,5,-1
 821 741 l 1,6,-1
 821 543 l 1,7,-1
 255 543 l 1,8,-1
 255 198 l 1,9,-1
 868 198 l 1,10,-1
 868 0 l 1,11,-1
 59 0 l 1,0,-1
EndSplineSet
EndChar

StartChar: F
Encoding: 41 70 43
Width: 846
GlyphClass: 2
Flags: W
LayerCount: 2
Back
Fore
SplineSet
253 1056 m 1,0,-1
 253 741 l 1,1,-1
 748 741 l 1,2,-1
 748 543 l 1,3,-1
 253 543 l 1,4,-1
 253 0 l 1,5,-1
 59 0 l 1,6,-1
 59 1254 l 1,7,-1
 817 1254 l 1,8,-1
 817 1056 l 1,9,-1
 253 1056 l 1,0,-1
EndSplineSet
EndChar

StartChar: G
Encoding: 42 71 44
Width: 1132
GlyphClass: 2
Flags: W
LayerCount: 2
Back
Fore
SplineSet
875 838 m 1,0,1
 820.865 1078 820.865 1078 624.932 1078 c 128,-1,2
 429 1078 429 1078 342.5 954 c 128,-1,3
 256 830 256 830 256 629.5 c 128,-1,4
 256 429 256 429 344.5 303 c 128,-1,5
 433 177 433 177 582 177 c 128,-1,6
 731 177 731 177 816 265 c 0,7,8
 900 353 900 353 900 504 c 1,9,-1
 581 506 l 1,10,-1
 581 704 l 1,11,-1
 1085 704 l 1,12,-1
 1085 10 l 1,13,-1
 940 10 l 1,14,-1
 914 130 l 1,15,16
 763 -21 763 -21 546.5 -21 c 128,-1,17
 330 -21 330 -21 192.5 168.5 c 128,-1,18
 55 358 55 358 55 632.5 c 128,-1,19
 55 907 55 907 197.5 1092 c 128,-1,20
 340 1277 340 1277 566.5 1277 c 128,-1,21
 793 1277 793 1277 914 1172.5 c 128,-1,22
 1035 1068 1035 1068 1076 838 c 1,23,-1
 875 838 l 1,0,1
EndSplineSet
EndChar

StartChar: H
Encoding: 43 72 45
Width: 977
GlyphClass: 2
Flags: W
LayerCount: 2
Back
Fore
SplineSet
730 0 m 1,0,-1
 730 543 l 1,1,-1
 256 543 l 1,2,-1
 256 0 l 1,3,-1
 59 0 l 1,4,-1
 59 1254 l 1,5,-1
 256 1254 l 1,6,-1
 256 741 l 1,7,-1
 730 741 l 1,8,-1
 730 1254 l 1,9,-1
 926 1254 l 1,10,-1
 926 0 l 1,11,-1
 730 0 l 1,0,-1
EndSplineSet
EndChar

StartChar: I
Encoding: 44 73 46
Width: 258
GlyphClass: 2
Flags: W
LayerCount: 2
Back
Fore
SplineSet
73 0 m 1,0,-1
 73 1254 l 1,1,-1
 201 1254 l 1,2,-1
 201 0 l 1,3,-1
 73 0 l 1,0,-1
EndSplineSet
EndChar

StartChar: J
Encoding: 45 74 47
Width: 737
GlyphClass: 2
Flags: W
LayerCount: 2
Back
Fore
SplineSet
251 348 m 2,0,1
 251 176 251 176 359.5 176 c 0,2,3
 434.72 176 434.72 176 467.36 226 c 128,-1,4
 500 276 500 276 500 396 c 2,5,-1
 500 1254 l 1,6,-1
 691 1254 l 1,7,-1
 691 341 l 2,8,9
 691 175 691 175 606 76.5 c 128,-1,10
 521 -22 521 -22 376.5 -22 c 128,-1,11
 232 -22 232 -22 146 68 c 1,12,13
 61 161 61 161 61 321 c 2,14,-1
 61 457 l 1,15,-1
 251 457 l 1,16,-1
 251 348 l 2,0,1
EndSplineSet
EndChar

StartChar: K
Encoding: 46 75 48
Width: 967
GlyphClass: 2
Flags: W
LayerCount: 2
Back
Fore
SplineSet
257 0 m 1,0,-1
 59 0 l 1,1,-1
 59 1254 l 1,2,-1
 257 1254 l 1,3,-1
 257 705 l 1,4,-1
 732 1254 l 1,5,-1
 988 1254 l 1,6,-1
 531 733 l 1,7,-1
 979 0 l 1,8,-1
 747 0 l 1,9,-1
 390 590 l 1,10,-1
 257 436 l 1,11,-1
 257 0 l 1,0,-1
EndSplineSet
EndChar

StartChar: L
Encoding: 47 76 49
Width: 803
GlyphClass: 2
Flags: W
LayerCount: 2
Back
Fore
SplineSet
59 0 m 1,0,-1
 59 1254 l 1,1,-1
 252 1254 l 1,2,-1
 252 198 l 1,3,-1
 759 198 l 1,4,-1
 759 0 l 1,5,-1
 59 0 l 1,0,-1
EndSplineSet
EndChar

StartChar: M
Encoding: 48 77 50
Width: 1187
GlyphClass: 2
Flags: W
LayerCount: 2
Back
Fore
SplineSet
937 0 m 1,0,-1
 937 808 l 1,1,-1
 696 0 l 1,2,-1
 504 0 l 1,3,-1
 262 809 l 1,4,-1
 262 0 l 1,5,-1
 60 0 l 1,6,-1
 69 1254 l 1,7,-1
 312 1254 l 1,8,-1
 601 296 l 1,9,-1
 885 1254 l 1,10,-1
 1138 1254 l 1,11,-1
 1138 0 l 1,12,-1
 937 0 l 1,0,-1
EndSplineSet
EndChar

StartChar: N
Encoding: 49 78 51
Width: 1008
GlyphClass: 2
Flags: W
LayerCount: 2
Back
Fore
SplineSet
259 0 m 1,0,-1
 61 0 l 1,1,-1
 61 1257 l 1,2,-1
 264 1257 l 1,3,-1
 762 374 l 1,4,-1
 762 1257 l 1,5,-1
 960 1257 l 1,6,-1
 960 0 l 1,7,-1
 750 0 l 1,8,-1
 259 878 l 1,9,-1
 259 0 l 1,0,-1
EndSplineSet
EndChar

StartChar: O
Encoding: 50 79 52
Width: 1193
GlyphClass: 2
Flags: W
LayerCount: 2
Back
Fore
SplineSet
351 304 m 128,-1,1
 440 175 440 175 602 175 c 128,-1,2
 764 175 764 175 855.5 302.5 c 128,-1,3
 947 430 947 430 947 625.5 c 128,-1,4
 947 821 947 821 859.5 949.5 c 128,-1,5
 772 1078 772 1078 608 1078 c 128,-1,6
 444 1078 444 1078 353 951 c 128,-1,7
 262 824 262 824 262 628.5 c 128,-1,0
 262 433 262 433 351 304 c 128,-1,1
999.5 159.5 m 128,-1,9
 851 -22 851 -22 601 -22 c 128,-1,10
 351 -22 351 -22 206 161.5 c 128,-1,11
 61 345 61 345 61 624 c 128,-1,12
 61 903 61 903 205.5 1090 c 128,-1,13
 350 1277 350 1277 605.5 1277 c 128,-1,14
 861 1277 861 1277 1004.5 1089.5 c 128,-1,15
 1148 902 1148 902 1148 621.5 c 128,-1,8
 1148 341 1148 341 999.5 159.5 c 128,-1,9
EndSplineSet
EndChar

StartChar: P
Encoding: 51 80 53
Width: 916
GlyphClass: 2
Flags: W
LayerCount: 2
Back
Fore
SplineSet
500 703 m 2,0,1
 672 703 672 703 672 899 c 0,2,3
 672 967 672 967 625.5 1011.5 c 128,-1,4
 579 1056 579 1056 500 1056 c 2,5,-1
 255 1056 l 1,6,-1
 255 703 l 1,7,-1
 500 703 l 2,0,1
519 1254 m 2,8,9
 868 1254 868 1254 868 883.5 c 0,10,11
 868 708 868 708 782.5 606.5 c 128,-1,12
 697 505 697 505 549 505 c 2,13,-1
 255 505 l 1,14,-1
 255 0 l 1,15,-1
 59 0 l 1,16,-1
 59 1254 l 1,17,-1
 519 1254 l 2,8,9
EndSplineSet
EndChar

StartChar: Q
Encoding: 52 81 54
Width: 1181
GlyphClass: 2
Flags: W
LayerCount: 2
Back
Fore
SplineSet
857 306 m 1,0,1
 946 437 946 437 946 629.5 c 128,-1,2
 946 822 946 822 857 950 c 128,-1,3
 768 1078 768 1078 602.5 1078 c 128,-1,4
 437 1078 437 1078 347.5 949 c 128,-1,5
 258 820 258 820 258 625.5 c 128,-1,6
 258 431 258 431 343.5 302.5 c 128,-1,7
 429 174 429 174 606 174 c 0,8,9
 662 174 662 174 717 197 c 1,10,-1
 623 278 l 1,11,-1
 729 422 l 1,12,-1
 857 306 l 1,0,1
612 -24 m 0,13,14
 347 -24 347 -24 202 160.5 c 128,-1,15
 57 345 57 345 57 625 c 128,-1,16
 57 905 57 905 202 1091 c 128,-1,17
 347 1277 347 1277 600.5 1277 c 128,-1,18
 854 1277 854 1277 1000.5 1090.5 c 128,-1,19
 1147 904 1147 904 1147 632.5 c 128,-1,20
 1147 361 1147 361 1006 171 c 1,21,-1
 1144 45 l 1,22,-1
 1037 -99 l 1,23,-1
 875 48 l 1,24,25
 749 -24 749 -24 612 -24 c 0,13,14
EndSplineSet
EndChar

StartChar: R
Encoding: 53 82 55
Width: 993
GlyphClass: 2
Flags: W
LayerCount: 2
Back
Fore
SplineSet
549 711 m 2,0,1
 714 711 714 711 714 883.5 c 128,-1,2
 714 1056 714 1056 549 1056 c 2,3,-1
 257 1056 l 1,4,-1
 257 711 l 1,5,-1
 549 711 l 2,0,1
787 621 m 1,6,7
 905 535.778 905 535.778 905 335.389 c 128,-1,8
 905 135 905 135 965 83 c 1,9,-1
 965 0 l 1,10,-1
 750 0 l 1,11,12
 711 107 711 107 711 310 c 128,-1,13
 711 513 711 513 570 513 c 2,14,-1
 257 513 l 1,15,-1
 257 0 l 1,16,-1
 59 0 l 1,17,-1
 59 1254 l 1,18,-1
 574 1254 l 2,19,20
 924 1254 924 1254 924 904 c 0,21,22
 924 722.569 924 722.569 787 621 c 1,6,7
EndSplineSet
EndChar

StartChar: S
Encoding: 54 83 56
Width: 953
GlyphClass: 2
Flags: W
LayerCount: 2
Back
Fore
SplineSet
464 1078 m 0,0,1
 258 1078 258 1078 258 922 c 0,2,3
 258 822 258 822 406 777 c 2,4,-1
 670 697 l 2,5,6
 915 622 915 622 915 396.5 c 0,7,8
 915 -22 915 -22 467 -22 c 0,9,10
 41.6718 -22 41.6718 -22 27 453 c 1,11,-1
 220 453 l 1,12,13
 222 304 222 304 284 240 c 128,-1,14
 346 176 346 176 481 176 c 0,15,16
 718 176 718 176 718 346 c 0,17,18
 718 408.1 718 408.1 678 449.05 c 128,-1,19
 638 490 638 490 548 517 c 2,20,-1
 289 594 l 1,21,22
 60 664 60 664 60 875 c 128,-1,23
 60 1086 60 1086 175.5 1181.5 c 128,-1,24
 291 1277 291 1277 469 1277 c 128,-1,25
 647 1277 647 1277 733 1204.5 c 0,26,27
 873.474 1086.08 873.474 1086.08 881 849 c 1,28,-1
 691 849 l 1,29,30
 685 1030 685 1030 563 1066 c 0,31,32
 520 1078 520 1078 464 1078 c 0,0,1
EndSplineSet
EndChar

StartChar: T
Encoding: 55 84 57
Width: 933
GlyphClass: 2
Flags: W
LayerCount: 2
Back
Fore
SplineSet
571 1056 m 1,0,-1
 571 0 l 1,1,-1
 373 0 l 1,2,-1
 373 1056 l 1,3,-1
 30 1056 l 1,4,-1
 30 1254 l 1,5,-1
 915 1254 l 1,6,-1
 915 1056 l 1,7,-1
 571 1056 l 1,0,-1
EndSplineSet
EndChar

StartChar: U
Encoding: 56 85 58
Width: 973
GlyphClass: 2
Flags: W
LayerCount: 2
Back
Fore
SplineSet
491.5 176 m 128,-1,1
 727 176 727 176 727 398 c 2,2,-1
 727 1254 l 1,3,-1
 924 1254 l 1,4,-1
 924 398 l 2,5,6
 924 197 924 197 799.5 87.5 c 128,-1,7
 675 -22 675 -22 488 -22 c 128,-1,8
 301 -22 301 -22 180 84 c 128,-1,9
 59 190 59 190 59 398 c 2,10,-1
 59 1254 l 1,11,-1
 256 1254 l 1,12,-1
 256 398 l 2,13,0
 256 176 256 176 491.5 176 c 128,-1,1
EndSplineSet
EndChar

StartChar: V
Encoding: 57 86 59
Width: 998
GlyphClass: 2
Flags: W
LayerCount: 2
Back
Fore
SplineSet
606 0 m 1,0,-1
 414 0 l 1,1,-1
 16 1254 l 1,2,-1
 229 1254 l 1,3,-1
 512 327 l 1,4,-1
 780 1254 l 1,5,-1
 989 1254 l 1,6,-1
 606 0 l 1,0,-1
EndSplineSet
EndChar

StartChar: W
Encoding: 58 87 60
Width: 1447
GlyphClass: 2
Flags: W
LayerCount: 2
Back
Fore
SplineSet
1147 0 m 1,0,-1
 944 0 l 1,1,-1
 724 874 l 1,2,-1
 509 0 l 1,3,-1
 304 0 l 1,4,-1
 16 1254 l 1,5,-1
 237 1254 l 1,6,-1
 415 403 l 1,7,-1
 624 1254 l 1,8,-1
 823 1254 l 1,9,-1
 1039 402 l 1,10,-1
 1212 1254 l 1,11,-1
 1434 1254 l 1,12,-1
 1147 0 l 1,0,-1
EndSplineSet
EndChar

StartChar: X
Encoding: 59 88 61
Width: 1016
GlyphClass: 2
Flags: W
LayerCount: 2
Back
Fore
SplineSet
778 0 m 1,0,-1
 511 464 l 1,1,-1
 240 0 l 1,2,-1
 2 0 l 1,3,-1
 394 644 l 1,4,-1
 25 1254 l 1,5,-1
 264 1254 l 1,6,-1
 515 819 l 1,7,-1
 767 1254 l 1,8,-1
 1003 1254 l 1,9,-1
 630 644 l 1,10,-1
 1019 0 l 1,11,-1
 778 0 l 1,0,-1
EndSplineSet
EndChar

StartChar: Y
Encoding: 60 89 62
Width: 1052
GlyphClass: 2
Flags: W
LayerCount: 2
Back
Fore
SplineSet
629 0 m 1,0,-1
 430 0 l 1,1,-1
 430 491 l 1,2,-1
 2 1254 l 1,3,-1
 243 1254 l 1,4,-1
 532 712 l 1,5,-1
 813 1254 l 1,6,-1
 1046 1254 l 1,7,-1
 629 491 l 1,8,-1
 629 0 l 1,0,-1
EndSplineSet
EndChar

StartChar: Z
Encoding: 61 90 63
Width: 928
GlyphClass: 2
Flags: W
LayerCount: 2
Back
Fore
SplineSet
25 0 m 1,0,-1
 25 177 l 1,1,-1
 623 1056 l 1,2,-1
 65 1056 l 1,3,-1
 65 1254 l 1,4,-1
 879 1254 l 1,5,-1
 879 1073 l 1,6,-1
 284 198 l 1,7,-1
 883 198 l 1,8,-1
 883 0 l 1,9,-1
 25 0 l 1,0,-1
EndSplineSet
EndChar

StartChar: bracketleft
Encoding: 62 91 64
Width: 478
GlyphClass: 2
Flags: W
LayerCount: 2
Back
Fore
SplineSet
65 -342 m 1,0,-1
 65 1238 l 1,1,-1
 502 1238 l 1,2,-1
 502 1065 l 1,3,-1
 277 1065 l 1,4,-1
 277 -166 l 1,5,-1
 502 -166 l 1,6,-1
 502 -342 l 1,7,-1
 65 -342 l 1,0,-1
EndSplineSet
EndChar

StartChar: backslash
Encoding: 63 92 65
Width: 741
GlyphClass: 2
Flags: W
LayerCount: 2
Back
Fore
SplineSet
43 1230 m 1,0,-1
 241 1230 l 1,1,-1
 757 -204 l 1,2,-1
 564 -204 l 1,3,-1
 43 1230 l 1,0,-1
EndSplineSet
EndChar

StartChar: bracketright
Encoding: 64 93 66
Width: 464
GlyphClass: 2
Flags: W
LayerCount: 2
Back
Fore
SplineSet
28 -342 m 1,0,-1
 28 -166 l 1,1,-1
 253 -166 l 1,2,-1
 253 1065 l 1,3,-1
 28 1065 l 1,4,-1
 28 1238 l 1,5,-1
 465 1238 l 1,6,-1
 465 -342 l 1,7,-1
 28 -342 l 1,0,-1
EndSplineSet
EndChar

StartChar: asciicircum
Encoding: 65 94 67
Width: 798
GlyphClass: 2
Flags: W
LayerCount: 2
Back
Fore
SplineSet
623 600 m 1,0,-1
 445 946 l 1,1,-1
 266 600 l 1,2,-1
 56 600 l 1,3,-1
 421 1239 l 1,4,-1
 473 1239 l 1,5,-1
 832 600 l 1,6,-1
 623 600 l 1,0,-1
EndSplineSet
EndChar

StartChar: underscore
Encoding: 66 95 68
Width: 833
GlyphClass: 2
Flags: W
LayerCount: 2
Back
Fore
SplineSet
81 243 m 1,0,-1
 810 243 l 1,1,-1
 810 80 l 1,2,-1
 81 80 l 1,3,-1
 81 243 l 1,0,-1
EndSplineSet
EndChar

StartChar: grave
Encoding: 67 96 69
Width: 458
GlyphClass: 2
Flags: W
LayerCount: 2
Back
Fore
SplineSet
241 1238 m 1,0,-1
 464 942 l 1,1,-1
 332 942 l 1,2,-1
 36 1238 l 1,3,-1
 241 1238 l 1,0,-1
EndSplineSet
EndChar

StartChar: a
Encoding: 68 97 70
Width: 849
GlyphClass: 2
Flags: W
LayerCount: 2
Back
Fore
SplineSet
228 254 m 0,0,1
 228 158 228 158 344 158 c 128,-1,2
 460 158 460 158 501 215 c 128,-1,3
 542 272 542 272 542 309 c 2,4,-1
 542 411 l 1,5,6
 509 402 509 402 451.5 392 c 128,-1,7
 394 382 394 382 355.5 372.5 c 0,8,9
 286.705 355.525 286.705 355.525 257.352 327.262 c 128,-1,10
 228 299 228 299 228 254 c 0,0,1
724 186 m 2,11,12
 724 152 724 152 758 152 c 2,13,-1
 817 152 l 1,14,-1
 817 1 l 1,15,16
 736 -22 736 -22 702 -22 c 0,17,18
 599 -22 599 -22 560 77 c 1,19,20
 438 -22 438 -22 328 -22 c 0,21,22
 122 -22 122 -22 60 136 c 0,23,24
 39 188 39 188 39 286 c 128,-1,25
 39 384 39 384 108 449 c 128,-1,26
 177 514 177 514 334 540.5 c 128,-1,27
 491 567 491 567 508 573.5 c 0,28,29
 542 586.5 542 586.5 542 646 c 0,30,31
 542 739 542 739 428 739 c 0,32,33
 335.882 739 335.882 739 299.441 706.5 c 128,-1,34
 263 674 263 674 253 592 c 1,35,-1
 72 592 l 1,36,37
 91 924 91 924 407.5 924 c 128,-1,38
 724 924 724 924 724 666 c 2,39,-1
 724 186 l 2,11,12
EndSplineSet
EndChar

StartChar: b
Encoding: 69 98 71
Width: 840
GlyphClass: 2
Flags: W
LayerCount: 2
Back
Fore
SplineSet
422 757 m 128,-1,1
 335 757 335 757 289 667.5 c 128,-1,2
 243 578 243 578 243 450 c 128,-1,3
 243 322 243 322 293 244.5 c 128,-1,4
 343 167 343 167 427.5 167 c 128,-1,5
 512 167 512 167 558 250.5 c 128,-1,6
 604 334 604 334 604 458.5 c 128,-1,7
 604 583 604 583 556.5 670 c 128,-1,0
 509 757 509 757 422 757 c 128,-1,1
703.186 808 m 128,-1,9
 790 670 790 670 790 465 c 128,-1,10
 790 260 790 260 699 119 c 128,-1,11
 608 -22 608 -22 464.5 -22 c 128,-1,12
 321 -22 321 -22 232 67 c 1,13,-1
 232 0 l 1,14,-1
 62 0 l 1,15,-1
 62 1254 l 1,16,-1
 243 1254 l 1,17,-1
 243 860 l 1,18,19
 331 946 331 946 473.686 946 c 128,-1,8
 616.371 946 616.371 946 703.186 808 c 128,-1,9
EndSplineSet
EndChar

StartChar: c
Encoding: 70 99 72
Width: 788
GlyphClass: 2
Flags: W
LayerCount: 2
Back
Fore
SplineSet
756 363 m 1,0,1
 719.526 -22.0001 719.526 -22.0001 417 -22 c 0,2,3
 239 -22 239 -22 148 116.5 c 128,-1,4
 57 255 57 255 57 455.5 c 128,-1,5
 57 656 57 656 152 790 c 128,-1,6
 247 924 247 924 405.5 924 c 0,7,8
 711.326 924 711.326 924 746 558 c 1,9,-1
 566 558 l 1,10,11
 541.157 739 541.157 739 426 739 c 0,12,13
 243 739 243 739 243 451 c 128,-1,14
 243 163 243 163 422 163 c 0,15,16
 542.517 163 542.517 163 577 363 c 1,17,-1
 756 363 l 1,0,1
EndSplineSet
EndChar

StartChar: d
Encoding: 71 100 73
Width: 835
GlyphClass: 2
Flags: W
LayerCount: 2
Back
Fore
SplineSet
425.5 167 m 0,0,1
 604 167 604 167 604 462 c 128,-1,2
 604 757 604 757 427.5 757 c 0,3,4
 337 757 337 757 290.5 670 c 128,-1,5
 244 583 244 583 244 459.5 c 128,-1,6
 244 336 244 336 290.5 251.5 c 128,-1,7
 337 167 337 167 425.5 167 c 0,0,1
617 0 m 1,8,-1
 617 71 l 1,9,10
 524 -22 524 -22 377.5 -22 c 128,-1,11
 231 -22 231 -22 145 122 c 128,-1,12
 59 266 59 266 59 465 c 128,-1,13
 59 664 59 664 146 805 c 128,-1,14
 233 946 233 946 376.5 946 c 128,-1,15
 520 946 520 946 604 867 c 1,16,-1
 604 1254 l 1,17,-1
 784 1254 l 1,18,-1
 784 0 l 1,19,-1
 617 0 l 1,8,-1
EndSplineSet
EndChar

StartChar: e
Encoding: 72 101 74
Width: 839
GlyphClass: 2
Flags: W
LayerCount: 2
Back
Fore
SplineSet
596 554 m 1,0,1
 572.214 739 572.214 739 425.5 739 c 0,2,3
 282.368 739 282.368 739 247 554 c 1,4,-1
 596 554 l 1,0,1
241 384 m 1,5,6
 265.286 163 265.286 163 419.5 163 c 0,7,8
 553.545 163 553.545 163 602 327 c 1,9,-1
 785 327 l 1,10,11
 714.821 -21.9999 714.821 -21.9999 425 -22 c 0,12,13
 240 -22 240 -22 147 112.5 c 128,-1,14
 54 247 54 247 54 440.5 c 128,-1,15
 54 634 54 634 148 779 c 128,-1,16
 242 924 242 924 414.5 924 c 128,-1,17
 587 924 587 924 690 811 c 1,18,19
 789 697 789 697 793 384 c 1,20,-1
 241 384 l 1,5,6
EndSplineSet
EndChar

StartChar: f
Encoding: 73 102 75
Width: 461
GlyphClass: 2
Flags: W
LayerCount: 2
Back
Fore
SplineSet
135 1028 m 2,0,1
 135 1254 135 1254 324 1254 c 0,2,3
 345 1254 345 1254 413 1245 c 1,4,-1
 413 1072 l 1,5,-1
 347 1072 l 2,6,7
 299 1072 299 1072 299 1017 c 2,8,-1
 299 920 l 1,9,-1
 413 920 l 1,10,-1
 413 744 l 1,11,-1
 299 744 l 1,12,-1
 299 0 l 1,13,-1
 135 0 l 1,14,-1
 135 744 l 1,15,-1
 42 744 l 1,16,-1
 42 920 l 1,17,-1
 135 920 l 1,18,-1
 135 1028 l 2,0,1
EndSplineSet
EndChar

StartChar: g
Encoding: 74 103 76
Width: 815
GlyphClass: 2
Flags: W
LayerCount: 2
Back
Fore
SplineSet
240 440 m 128,-1,1
 240 145 240 145 412 145 c 128,-1,2
 584 145 584 145 584 440 c 128,-1,3
 584 735 584 735 412 735 c 128,-1,0
 240 735 240 735 240 440 c 128,-1,1
257 -33 m 1,4,5
 278.833 -164 278.833 -164 385 -164 c 0,6,7
 526.176 -164 526.176 -164 548.588 -110.5 c 128,-1,8
 571 -57 571 -57 579 31 c 1,9,10
 498 -44 498 -44 362.5 -44 c 128,-1,11
 227 -44 227 -44 142 101 c 128,-1,12
 57 246 57 246 57 446.5 c 128,-1,13
 57 647 57 647 149.5 785.5 c 128,-1,14
 242 924 242 924 376 924 c 128,-1,15
 510 924 510 924 596 835 c 1,16,-1
 596 903 l 1,17,-1
 768 903 l 1,18,-1
 768 163 l 2,19,20
 768 -236 768 -236 582 -320 c 0,21,22
 508 -354 508 -354 422 -354 c 0,23,24
 262.789 -354 262.789 -354 179.895 -278 c 128,-1,25
 97 -202 97 -202 77 -33 c 1,26,-1
 257 -33 l 1,4,5
EndSplineSet
EndChar

StartChar: h
Encoding: 75 104 77
Width: 751
GlyphClass: 2
Flags: W
LayerCount: 2
Back
Fore
SplineSet
410 762 m 0,0,1
 234 762 234 762 234 507 c 2,2,-1
 234 0 l 1,3,-1
 57 0 l 1,4,-1
 57 1254 l 1,5,-1
 234 1254 l 1,6,-1
 234 856 l 1,7,8
 326 946 326 946 440 946 c 128,-1,9
 554 946 554 946 627.5 879.5 c 128,-1,10
 701 813 701 813 701 683 c 2,11,-1
 701 0 l 1,12,-1
 524 0 l 1,13,-1
 524 628 l 2,14,15
 524 762 524 762 410 762 c 0,0,1
EndSplineSet
EndChar

StartChar: i
Encoding: 76 105 78
Width: 219
GlyphClass: 2
Flags: W
LayerCount: 2
Back
Fore
SplineSet
56 0 m 1,0,-1
 56 922 l 1,1,-1
 169 922 l 1,2,-1
 169 0 l 1,3,-1
 56 0 l 1,0,-1
55 1020 m 1,4,-1
 55 1254 l 1,5,-1
 169 1254 l 1,6,-1
 169 1020 l 1,7,-1
 55 1020 l 1,4,-1
EndSplineSet
EndChar

StartChar: j
Encoding: 77 106 79
Width: 287
GlyphClass: 2
Flags: W
LayerCount: 2
Back
Fore
SplineSet
238 -140 m 2,0,1
 238 -354 238 -354 50 -354 c 0,2,3
 24 -354 24 -354 -23 -341 c 1,4,-1
 -23 -166 l 1,5,-1
 27 -166 l 2,6,7
 88 -166 88 -166 88 -88 c 2,8,-1
 88 917 l 1,9,-1
 238 917 l 1,10,-1
 238 -140 l 2,0,1
88 1016 m 1,11,-1
 88 1254 l 1,12,-1
 238 1254 l 1,13,-1
 238 1016 l 1,14,-1
 88 1016 l 1,11,-1
EndSplineSet
EndChar

StartChar: k
Encoding: 78 107 80
Width: 758
GlyphClass: 2
Flags: W
LayerCount: 2
Back
Fore
SplineSet
235 0 m 1,0,-1
 57 0 l 1,1,-1
 57 1254 l 1,2,-1
 235 1254 l 1,3,-1
 235 610 l 1,4,-1
 504 922 l 1,5,-1
 737 922 l 1,6,-1
 449 590 l 1,7,-1
 764 0 l 1,8,-1
 549 0 l 1,9,-1
 312 442 l 1,10,-1
 235 355 l 1,11,-1
 235 0 l 1,0,-1
EndSplineSet
EndChar

StartChar: l
Encoding: 79 108 81
Width: 217
GlyphClass: 2
Flags: W
LayerCount: 2
Back
Fore
SplineSet
59 0 m 1,0,-1
 59 1254 l 1,1,-1
 171 1254 l 1,2,-1
 171 0 l 1,3,-1
 59 0 l 1,0,-1
EndSplineSet
EndChar

StartChar: m
Encoding: 80 109 82
Width: 1178
GlyphClass: 2
Flags: W
LayerCount: 2
Back
Fore
SplineSet
500 609 m 2,0,1
 500 744 500 744 403 744 c 0,2,3
 331 744 331 744 288 689.5 c 128,-1,4
 245 635 245 635 245 556 c 2,5,-1
 245 0 l 1,6,-1
 59 0 l 1,7,-1
 59 904 l 1,8,-1
 235 904 l 1,9,-1
 235 836 l 1,10,11
 327 924 327 924 449 924 c 128,-1,12
 571 924 571 924 647 819 c 1,13,14
 748 924 748 924 876 924 c 0,15,16
 1128 924 1128 924 1128 660 c 2,17,-1
 1128 0 l 1,18,-1
 942 0 l 1,19,-1
 942 609 l 2,20,21
 942 744 942 744 829.5 744 c 0,22,23
 771 744 771 744 728.5 689.5 c 128,-1,24
 686 635 686 635 686 556 c 2,25,-1
 686 0 l 1,26,-1
 500 0 l 1,27,-1
 500 609 l 2,0,1
EndSplineSet
EndChar

StartChar: n
Encoding: 81 110 83
Width: 751
GlyphClass: 2
Flags: W
LayerCount: 2
Back
Fore
SplineSet
408 744 m 0,0,1
 235 744 235 744 235 495 c 2,2,-1
 235 0 l 1,3,-1
 57 0 l 1,4,-1
 57 904 l 1,5,-1
 226 904 l 1,6,-1
 226 821 l 1,7,8
 317 924 317 924 434.5 924 c 128,-1,9
 552 924 552 924 626 857.5 c 128,-1,10
 700 791 700 791 700 664 c 2,11,-1
 700 0 l 1,12,-1
 523 0 l 1,13,-1
 523 612 l 2,14,15
 523 744 523 744 408 744 c 0,0,1
EndSplineSet
EndChar

StartChar: o
Encoding: 82 111 84
Width: 837
GlyphClass: 2
Flags: W
LayerCount: 2
Back
Fore
SplineSet
600 451 m 128,-1,1
 600 739 600 739 419.5 739 c 128,-1,2
 239 739 239 739 239 451 c 128,-1,3
 239 163 239 163 419.5 163 c 128,-1,0
 600 163 600 163 600 451 c 128,-1,1
54 448.5 m 128,-1,5
 54 653 54 653 145 788.5 c 128,-1,6
 236 924 236 924 420.5 924 c 128,-1,7
 605 924 605 924 694.5 789.5 c 128,-1,8
 784 655 784 655 784 448.5 c 128,-1,9
 784 242 784 242 693 110 c 128,-1,10
 602 -22 602 -22 419.5 -22 c 128,-1,11
 237 -22 237 -22 145.5 111 c 128,-1,4
 54 244 54 244 54 448.5 c 128,-1,5
EndSplineSet
EndChar

StartChar: p
Encoding: 83 112 85
Width: 827
GlyphClass: 2
Flags: W
LayerCount: 2
Back
Fore
SplineSet
596 439.5 m 0,0,1
 596 735 596 735 418 735 c 128,-1,2
 240 735 240 735 240 423 c 0,3,4
 240 291 240 291 292.5 218 c 128,-1,5
 345 145 345 145 423.5 145 c 128,-1,6
 502 145 502 145 549 231.5 c 128,-1,7
 596 318 596 318 596 439.5 c 0,0,1
229 830 m 1,8,9
 321 924 321 924 467.5 924 c 128,-1,10
 614 924 614 924 697.5 780.5 c 128,-1,11
 781 637 781 637 781 440 c 128,-1,12
 781 243 781 243 696 100 c 128,-1,13
 611 -43 611 -43 471.5 -43 c 128,-1,14
 332 -43 332 -43 240 35 c 1,15,-1
 240 -354 l 1,16,-1
 59 -354 l 1,17,-1
 59 903 l 1,18,-1
 229 903 l 1,19,-1
 229 830 l 1,8,9
EndSplineSet
EndChar

StartChar: q
Encoding: 84 113 86
Width: 829
GlyphClass: 2
Flags: W
LayerCount: 2
Back
Fore
SplineSet
424 145 m 0,0,1
 600 145 600 145 600 448.5 c 0,2,3
 600 582 600 582 550 658.5 c 128,-1,4
 500 735 500 735 417 735 c 128,-1,5
 334 735 334 735 286.5 647.5 c 128,-1,6
 239 560 239 560 239 438 c 128,-1,7
 239 316 239 316 286 230.5 c 128,-1,8
 333 145 333 145 424 145 c 0,0,1
412.5 -43 m 0,9,10
 55 -43 55 -43 55 444 c 0,11,12
 55 658 55 658 153 791 c 128,-1,13
 251 924 251 924 388 924 c 128,-1,14
 525 924 525 924 614 840 c 1,15,-1
 614 903 l 1,16,-1
 781 903 l 1,17,-1
 781 -354 l 1,18,-1
 600 -354 l 1,19,-1
 600 38 l 1,20,21
 513 -43 513 -43 412.5 -43 c 0,9,10
EndSplineSet
EndChar

StartChar: r
Encoding: 85 114 87
Width: 489
GlyphClass: 2
Flags: W
LayerCount: 2
Back
Fore
SplineSet
214 825 m 1,0,1
 288 924 288 924 342 924 c 128,-1,2
 396 924 396 924 446 917 c 1,3,-1
 446 741 l 1,4,5
 314 736 314 736 268 664.5 c 128,-1,6
 222 593 222 593 222 468 c 2,7,-1
 222 0 l 1,8,-1
 57 0 l 1,9,-1
 57 908 l 1,10,-1
 214 908 l 1,11,-1
 214 825 l 1,0,1
EndSplineSet
EndChar

StartChar: s
Encoding: 86 115 88
Width: 751
GlyphClass: 2
Flags: W
LayerCount: 2
Back
Fore
SplineSet
707 262 m 0,0,1
 707 -22 707 -22 382.5 -22 c 128,-1,2
 58 -22 58 -22 47 323 c 1,3,-1
 228 323 l 1,4,5
 249.417 163 249.417 163 385.709 163 c 128,-1,6
 522 163 522 163 522 259 c 0,7,8
 522 319 522 319 411 352 c 2,9,-1
 251 399 l 1,10,11
 67 452 67 452 67 647 c 0,12,13
 67 924 67 924 381 924 c 0,14,15
 670.245 924 670.245 924 678 608 c 1,16,-1
 494 608 l 1,17,18
 483.378 739 483.378 739 382.5 739 c 0,19,20
 251 739 251 739 251 649 c 0,21,22
 251 597 251 597 383 555 c 2,23,-1
 514 514 l 2,24,25
 707 454 707 454 707 262 c 0,0,1
EndSplineSet
EndChar

StartChar: t
Encoding: 87 116 89
Width: 459
GlyphClass: 2
Flags: W
LayerCount: 2
Back
Fore
SplineSet
295 202 m 2,0,1
 295 161 295 161 322 161 c 2,2,-1
 340 161 l 2,3,4
 362 161 362 161 409 166 c 1,5,-1
 409 -8 l 1,6,7
 323 -22 323 -22 291 -22 c 0,8,9
 132 -22 132 -22 132 142 c 2,10,-1
 132 745 l 1,11,-1
 37 745 l 1,12,-1
 37 920 l 1,13,-1
 132 920 l 1,14,-1
 132 1154 l 1,15,-1
 295 1154 l 1,16,-1
 295 920 l 1,17,-1
 409 920 l 1,18,-1
 409 745 l 1,19,-1
 295 745 l 1,20,-1
 295 202 l 2,0,1
EndSplineSet
EndChar

StartChar: u
Encoding: 88 117 90
Width: 752
GlyphClass: 2
Flags: W
LayerCount: 2
Back
Fore
SplineSet
234 285 m 2,0,1
 234 154 234 154 368.5 154 c 0,2,3
 436 154 436 154 481 225.5 c 128,-1,4
 526 297 526 297 526 402 c 2,5,-1
 526 902 l 1,6,-1
 703 902 l 1,7,-1
 703 -1 l 1,8,-1
 537 -1 l 1,9,-1
 537 75 l 1,10,11
 442 -22 442 -22 326 -22 c 128,-1,12
 210 -22 210 -22 133.5 43 c 128,-1,13
 57 108 57 108 57 233 c 2,14,-1
 57 902 l 1,15,-1
 234 902 l 1,16,-1
 234 285 l 2,0,1
EndSplineSet
EndChar

StartChar: v
Encoding: 89 118 91
Width: 784
GlyphClass: 2
Flags: W
LayerCount: 2
Back
Fore
SplineSet
476 0 m 1,0,-1
 302 0 l 1,1,-1
 22 902 l 1,2,-1
 220 902 l 1,3,-1
 396 300 l 1,4,-1
 582 902 l 1,5,-1
 780 902 l 1,6,-1
 476 0 l 1,0,-1
EndSplineSet
EndChar

StartChar: w
Encoding: 90 119 92
Width: 1124
GlyphClass: 2
Flags: W
LayerCount: 2
Back
Fore
SplineSet
875 0 m 1,0,-1
 686 0 l 1,1,-1
 559 545 l 1,2,-1
 437 0 l 1,3,-1
 249 0 l 1,4,-1
 13 902 l 1,5,-1
 213 902 l 1,6,-1
 342 363 l 1,7,-1
 462 902 l 1,8,-1
 662 902 l 1,9,-1
 787 363 l 1,10,-1
 911 902 l 1,11,-1
 1116 902 l 1,12,-1
 875 0 l 1,0,-1
EndSplineSet
EndChar

StartChar: x
Encoding: 91 120 93
Width: 756
GlyphClass: 2
Flags: W
LayerCount: 2
Back
Fore
SplineSet
543 0 m 1,0,-1
 376 292 l 1,1,-1
 207 0 l 1,2,-1
 0 0 l 1,3,-1
 279 460 l 1,4,-1
 16 902 l 1,5,-1
 220 902 l 1,6,-1
 380 629 l 1,7,-1
 541 902 l 1,8,-1
 743 902 l 1,9,-1
 478 466 l 1,10,-1
 749 0 l 1,11,-1
 543 0 l 1,0,-1
EndSplineSet
EndChar

StartChar: y
Encoding: 92 121 94
Width: 758
GlyphClass: 2
Flags: W
LayerCount: 2
Back
Fore
SplineSet
173 -155 m 0,0,1
 218 -155 218 -155 237 -94 c 2,2,-1
 278 42 l 1,3,-1
 19 902 l 1,4,-1
 210 902 l 1,5,-1
 376 338 l 1,6,-1
 556 902 l 1,7,-1
 750 902 l 1,8,-1
 408 -155 l 2,9,10
 344 -354 344 -354 188 -354 c 0,11,12
 142 -354 142 -354 77 -319 c 1,13,-1
 77 -140 l 1,14,15
 152 -155 152 -155 173 -155 c 0,0,1
EndSplineSet
EndChar

StartChar: z
Encoding: 93 122 95
Width: 751
GlyphClass: 2
Flags: W
LayerCount: 2
Back
Fore
SplineSet
52 0 m 1,0,-1
 52 163 l 1,1,-1
 455 722 l 1,2,-1
 82 722 l 1,3,-1
 82 902 l 1,4,-1
 690 902 l 1,5,-1
 690 743 l 1,6,-1
 284 180 l 1,7,-1
 710 180 l 1,8,-1
 710 0 l 1,9,-1
 52 0 l 1,0,-1
EndSplineSet
EndChar

StartChar: braceleft
Encoding: 94 123 96
Width: 411
GlyphClass: 2
Flags: W
LayerCount: 2
Back
Fore
SplineSet
414 1245 m 1,0,1
 330 1133 330 1133 330 1063 c 2,2,-1
 330 562 l 2,3,4
 330 499.647 330 499.647 310 480.824 c 128,-1,5
 290 462 290 462 281 446 c 1,6,7
 290 431 290 431 298.5 424 c 0,8,9
 330 398.059 330 398.059 330 342 c 2,10,-1
 330 -115 l 2,11,12
 330 -207 330 -207 415 -340 c 1,13,-1
 403 -340 l 2,14,15
 133 -340 133 -340 133 -150 c 2,16,-1
 133 249 l 2,17,18
 133 382.64 133 382.64 61 446 c 1,19,20
 133 515.061 133 515.061 133 667 c 2,21,-1
 133 1082 l 2,22,23
 133 1157 133 1157 206 1202 c 1,24,25
 282 1247 282 1247 408 1245 c 1,26,-1
 414 1245 l 1,0,1
EndSplineSet
EndChar

StartChar: bar
Encoding: 95 124 97
Width: 290
GlyphClass: 2
Flags: W
LayerCount: 2
Back
Fore
SplineSet
271 1238 m 1,0,-1
 263 4 l 1,1,-1
 80 4 l 1,2,-1
 86 1238 l 1,3,-1
 271 1238 l 1,0,-1
EndSplineSet
EndChar

StartChar: braceright
Encoding: 96 125 98
Width: 411
GlyphClass: 2
Flags: W
LayerCount: 2
Back
Fore
SplineSet
327 -150 m 2,0,1
 327 -340 327 -340 57 -340 c 2,2,-1
 45 -340 l 1,3,4
 130 -207 130 -207 130 -115 c 2,5,-1
 130 342 l 2,6,7
 130 398.059 130 398.059 150 414.529 c 128,-1,8
 170 431 170 431 179 446 c 1,9,10
 170 462 170 462 161.5 470 c 0,11,12
 130 499.647 130 499.647 130 562 c 2,13,-1
 130 1063 l 2,14,15
 130 1133 130 1133 46 1245 c 1,16,-1
 52 1245 l 1,17,18
 247 1248 247 1248 308 1150 c 0,19,20
 327 1119 327 1119 327 1082 c 2,21,-1
 327 667 l 2,22,23
 327 515.333 327 515.333 399 446 c 1,24,25
 327 383.391 327 383.391 327 249 c 2,26,-1
 327 -150 l 2,0,1
EndSplineSet
EndChar

StartChar: asciitilde
Encoding: 97 126 99
Width: 1077
GlyphClass: 2
Flags: W
LayerCount: 2
Back
Fore
SplineSet
446.5 431 m 128,-1,1
 388 444 388 444 345.5 444 c 128,-1,2
 303 444 303 444 284.5 409.5 c 128,-1,3
 266 375 266 375 256 361 c 1,4,-1
 39 361 l 1,5,6
 86 482 86 482 139.5 545.5 c 128,-1,7
 193 609 193 609 291.5 609 c 128,-1,8
 390 609 390 609 502 578.5 c 0,9,10
 713.148 521 713.148 521 764.574 521 c 128,-1,11
 816 521 816 521 829 541 c 128,-1,12
 842 561 842 561 850 576.5 c 128,-1,13
 858 592 858 592 868 607 c 1,14,-1
 1099 607 l 1,15,16
 1044 483 1044 483 989 421 c 128,-1,17
 934 359 934 359 829 359 c 128,-1,18
 724 359 724 359 614.5 388.5 c 128,-1,0
 505 418 505 418 446.5 431 c 128,-1,1
EndSplineSet
EndChar

StartChar: uni0D02
Encoding: 98 3330 100
Width: 650
GlyphClass: 2
Flags: W
LayerCount: 2
Back
Fore
SplineSet
278 212 m 2,0,1
 278 125 278 125 373.5 125 c 128,-1,2
 469 125 469 125 469 212 c 2,3,-1
 469 545 l 2,4,5
 469 632 469 632 373.5 632 c 128,-1,6
 278 632 278 632 278 545 c 2,7,-1
 278 212 l 2,0,1
650 200 m 2,8,9
 650 101.8 650 101.8 584 58.9 c 0,10,11
 374.408 -77.335 374.408 -77.335 188 41.5 c 0,12,13
 97 99.5125 97 99.5125 97 200 c 2,14,-1
 97 558 l 2,15,16
 97 710.919 97 710.919 277.5 756.5 c 0,17,18
 327 769 327 769 373.5 769 c 128,-1,19
 420 769 420 769 469 756 c 128,-1,20
 518 743 518 743 558 717 c 0,21,22
 650 657.2 650 657.2 650 558 c 2,23,-1
 650 200 l 2,8,9
EndSplineSet
EndChar

StartChar: uni0D03
Encoding: 99 3331 101
Width: 521
GlyphClass: 2
Flags: W
LayerCount: 2
Back
Fore
SplineSet
309 101 m 128,-1,1
 383 101 383 101 383 206 c 128,-1,2
 383 311 383 311 309 311 c 128,-1,3
 235 311 235 311 235 206 c 128,-1,0
 235 101 235 101 309 101 c 128,-1,1
309 570 m 128,-1,5
 383 570 383 570 383 675 c 128,-1,6
 383 780 383 780 309 780 c 128,-1,7
 235 780 235 780 235 675 c 128,-1,4
 235 570 235 570 309 570 c 128,-1,5
505 291 m 128,-1,9
 521 252 521 252 521 179.5 c 128,-1,10
 521 107 521 107 465 50 c 128,-1,11
 409 -7 409 -7 309 -7 c 128,-1,12
 209 -7 209 -7 153 50 c 128,-1,13
 97 107 97 107 97 180 c 128,-1,14
 97 253 97 253 112.5 292 c 128,-1,15
 128 331 128 331 156.5 359 c 0,16,17
 216.554 418 216.554 418 285.777 418 c 128,-1,18
 355 418 355 418 394 402 c 128,-1,19
 433 386 433 386 461 358 c 128,-1,8
 489 330 489 330 505 291 c 128,-1,9
505.5 761 m 128,-1,21
 521 722 521 722 521 674.5 c 128,-1,22
 521 627 521 627 506 588 c 128,-1,23
 491 549 491 549 463.5 521 c 128,-1,24
 436 493 436 493 396.5 478 c 128,-1,25
 357 463 357 463 309 463 c 128,-1,26
 261 463 261 463 221.5 478 c 128,-1,27
 182 493 182 493 154.5 520.5 c 128,-1,28
 127 548 127 548 112 587.5 c 128,-1,29
 97 627 97 627 97 675 c 128,-1,30
 97 723 97 723 112.5 762 c 128,-1,31
 128 801 128 801 155.5 829 c 0,32,33
 212.464 887 212.464 887 284.232 887 c 128,-1,34
 356 887 356 887 395 871.5 c 128,-1,35
 434 856 434 856 462 828 c 128,-1,20
 490 800 490 800 505.5 761 c 128,-1,21
EndSplineSet
EndChar

StartChar: uni0D05
Encoding: 100 3333 102
Width: 1708
GlyphClass: 2
Flags: W
LayerCount: 2
Back
Fore
SplineSet
278 218 m 2,0,1
 278 125 278 125 352 125 c 1,2,-1
 352 -9 l 1,3,4
 174.278 -9 174.278 -9 115.5 116.5 c 0,5,6
 97 156 97 156 97 206 c 2,7,-1
 97 767 l 2,8,9
 97 911.581 97 911.581 259.5 964 c 0,10,11
 306 979 306 979 356 979 c 2,12,-1
 479 979 l 2,13,14
 588.929 979 588.929 979 646 932 c 1,15,16
 709.92 979 709.92 979 813 979 c 2,17,-1
 905 979 l 2,18,19
 1014.93 979 1014.93 979 1072 932 c 1,20,21
 1135.92 979 1135.92 979 1239 979 c 2,22,-1
 1449 979 l 2,23,24
 1615.49 979 1615.49 979 1686 854 c 0,25,26
 1708 815 1708 815 1708 767 c 2,27,-1
 1708 202 l 2,28,29
 1708 50.8851 1708 50.8851 1561.5 -3 c 0,30,31
 1518 -19 1518 -19 1468.5 -19 c 128,-1,32
 1419 -19 1419 -19 1375 -3 c 128,-1,33
 1331 13 1331 13 1298.5 42 c 0,34,35
 1228 104.908 1228 104.908 1228 202 c 2,36,-1
 1228 500 l 2,37,38
 1228 712 1228 712 1444 712 c 0,39,40
 1501.43 712 1501.43 712 1525 697 c 1,41,-1
 1525 763 l 2,42,43
 1525 814.444 1525 814.444 1494 828.222 c 128,-1,44
 1463 842 1463 842 1449 842 c 2,45,-1
 1239 842 l 2,46,47
 1173.64 842 1173.64 842 1163 759 c 1,48,-1
 1163 0 l 1,49,-1
 981 0 l 1,50,-1
 981 759 l 1,51,52
 970.359 842 970.359 842 905 842 c 2,53,-1
 877 842 l 1,54,55
 922 815 922 815 922 743 c 2,56,-1
 922 628 l 2,57,58
 922 522.615 922 522.615 847 488 c 1,59,60
 922 449.111 922 449.111 922 342 c 2,61,-1
 922 200 l 2,62,63
 922 49 922 49 764.5 -2 c 0,64,65
 712 -19 712 -19 649 -19 c 128,-1,66
 586 -19 586 -19 537 -3 c 128,-1,67
 488 13 488 13 450.5 42.5 c 0,68,69
 370 105.827 370 105.827 370 202 c 2,70,-1
 370 743 l 2,71,72
 370 813 370 813 428 842 c 1,73,-1
 356 842 l 2,74,75
 278 842 278 842 278 753 c 2,76,-1
 278 218 l 2,0,1
739 720 m 1,77,78
 727.59 809 727.59 809 644 809 c 0,79,80
 604 809 604 809 577.5 782.5 c 128,-1,81
 551 756 551 756 551 720 c 2,82,-1
 551 212 l 2,83,84
 551 115 551 115 645 115 c 128,-1,85
 739 115 739 115 739 212 c 2,86,-1
 739 331 l 2,87,88
 739 418 739 418 652 418 c 2,89,-1
 619 418 l 1,90,-1
 619 554 l 1,91,-1
 654 554 l 2,92,93
 739 554 739 554 739 642 c 2,94,-1
 739 720 l 1,77,78
1525 486 m 2,95,96
 1525 566 1525 566 1468 566 c 128,-1,97
 1411 566 1411 566 1411 486 c 2,98,-1
 1411 212 l 2,99,100
 1411 115 1411 115 1468 115 c 128,-1,101
 1525 115 1525 115 1525 212 c 2,102,-1
 1525 486 l 2,95,96
EndSplineSet
EndChar

StartChar: uni0D06
Encoding: 101 3334 103
Width: 1969
GlyphClass: 2
Flags: W
LayerCount: 2
Back
Fore
SplineSet
663 554 m 2,0,1
 749 554 749 554 749 642 c 2,2,-1
 749 730 l 1,3,4
 737.59 819 737.59 819 654 819 c 0,5,6
 614 819 614 819 588 792.5 c 128,-1,7
 562 766 562 766 562 730 c 2,8,-1
 562 212 l 2,9,10
 562 148.412 562 148.412 597.5 131.706 c 128,-1,11
 633 115 633 115 654 115 c 0,12,13
 749 115 749 115 749 212 c 2,14,-1
 749 331 l 2,15,16
 749 418 749 418 662 418 c 2,17,-1
 633 418 l 1,18,-1
 633 554 l 1,19,-1
 663 554 l 2,0,1
1469 576 m 2,20,21
 1403 576 1403 576 1403 486 c 2,22,-1
 1403 212 l 2,23,24
 1403 115 1403 115 1465 115 c 128,-1,25
 1527 115 1527 115 1527 212 c 2,26,-1
 1527 576 l 1,27,-1
 1469 576 l 2,20,21
280 218 m 2,28,29
 280 125 280 125 352 125 c 1,30,-1
 352 -9 l 1,31,32
 174.278 -9 174.278 -9 115.5 116.5 c 0,33,34
 97 156 97 156 97 206 c 2,35,-1
 97 767 l 2,36,37
 97 911.581 97 911.581 259.5 964 c 0,38,39
 306 979 306 979 356 979 c 2,40,-1
 488 979 l 2,41,42
 598.929 979 598.929 979 656 932 c 1,43,44
 718.04 979 718.04 979 823 979 c 2,45,-1
 914 979 l 2,46,47
 1022.9 979 1022.9 979 1078 932 c 1,48,49
 1141.92 979 1141.92 979 1241 979 c 2,50,-1
 1449 979 l 2,51,52
 1615.49 979 1615.49 979 1686 854 c 0,53,54
 1708 815 1708 815 1708 767 c 2,55,-1
 1708 712 l 1,56,-1
 1718 712 l 2,57,58
 1882.27 712 1882.27 712 1948.5 586 c 0,59,60
 1969 547 1969 547 1969 500 c 2,61,-1
 1969 112 l 2,62,63
 1969 -123.552 1969 -123.552 1762.5 -204.5 c 0,64,65
 1700 -229 1700 -229 1627 -229 c 2,66,-1
 1519 -229 l 1,67,-1
 1519 -92 l 1,68,-1
 1597 -92 l 2,69,70
 1728.24 -92 1728.24 -92 1772.5 37.5 c 0,71,72
 1786 77 1786 77 1786 123 c 2,73,-1
 1786 486 l 2,74,75
 1786 576 1786 576 1718 576 c 2,76,-1
 1708 576 l 1,77,-1
 1708 202 l 2,78,79
 1708 50.8851 1708 50.8851 1561.5 -3 c 0,80,81
 1518 -19 1518 -19 1469 -19 c 128,-1,82
 1420 -19 1420 -19 1375 -3 c 128,-1,83
 1330 13 1330 13 1295.5 42.5 c 0,84,85
 1220 107.058 1220 107.058 1220 202 c 2,86,-1
 1220 500 l 2,87,88
 1220 643.111 1220 643.111 1375 696.5 c 0,89,90
 1420 712 1420 712 1469 712 c 2,91,-1
 1527 712 l 1,92,-1
 1527 763 l 1,93,94
 1515.03 842 1515.03 842 1449 842 c 2,95,-1
 1241 842 l 2,96,97
 1177.64 842 1177.64 842 1167 759 c 1,98,-1
 1167 0 l 1,99,-1
 986 0 l 1,100,-1
 986 759 l 1,101,102
 977.487 842 977.487 842 914 842 c 2,103,-1
 887 842 l 1,104,105
 932 815 932 815 932 741 c 2,106,-1
 932 628 l 2,107,108
 932 523.04 932 523.04 859 488 c 1,109,110
 932 448.692 932 448.692 932 342 c 2,111,-1
 932 200 l 2,112,113
 932 49 932 49 774.5 -2 c 0,114,115
 722 -19 722 -19 659 -19 c 128,-1,116
 596 -19 596 -19 546.5 -3 c 128,-1,117
 497 13 497 13 460 42.5 c 0,118,119
 379 107.081 379 107.081 379 202 c 2,120,-1
 379 743 l 2,121,122
 379 812.5 379 812.5 438 842 c 1,123,-1
 356 842 l 2,124,125
 328 842 328 842 304 818 c 128,-1,126
 280 794 280 794 280 753 c 2,127,-1
 280 218 l 2,28,29
EndSplineSet
EndChar

StartChar: uni0D07
Encoding: 102 3335 104
Width: 1132
GlyphClass: 2
Flags: W
LayerCount: 2
Back
Fore
SplineSet
270 8 m 128,-1,1
 270 -50 270 -50 345 -50 c 2,2,-1
 1123 -50 l 1,3,-1
 1123 -194 l 1,4,-1
 345 -194 l 2,5,6
 179.947 -194 179.947 -194 125 -78 c 0,7,8
 107 -40 107 -40 107 10 c 0,9,10
 107 200 107 200 345 200 c 2,11,-1
 838 200 l 2,12,13
 910.158 200 910.158 200 929.579 241 c 128,-1,14
 949 282 949 282 949 304 c 2,15,-1
 949 753 l 2,16,17
 949 842 949 842 857.5 842 c 128,-1,18
 766 842 766 842 766 759 c 2,19,-1
 766 247 l 1,20,-1
 583 247 l 1,21,-1
 583 755 l 2,22,23
 583 842 583 842 494 842 c 2,24,-1
 374 842 l 2,25,26
 290.735 842 290.735 842 280 769 c 1,27,-1
 280 703 l 1,28,29
 298.455 732 298.455 732 360.227 732 c 128,-1,30
 422 732 422 732 454.5 717.5 c 128,-1,31
 487 703 487 703 505.5 675.5 c 0,32,33
 538 627.189 538 627.189 538 519 c 2,34,-1
 538 440 l 2,35,36
 538 228 538 228 333 228 c 0,37,38
 170.823 228 170.823 228 115 350.5 c 0,39,40
 97 390 97 390 97 440 c 2,41,-1
 97 767 l 2,42,43
 97 910.935 97 910.935 261.5 964 c 0,44,45
 308 979 308 979 358 979 c 2,46,-1
 508 979 l 2,47,48
 619.439 979 619.439 979 675 912 c 1,49,50
 729.238 979 729.238 979 825.119 979 c 128,-1,51
 921 979 921 979 969 966 c 128,-1,52
 1017 953 1017 953 1053 926 c 0,53,54
 1132 866.75 1132 866.75 1132 767 c 2,55,-1
 1132 292 l 2,56,57
 1132 138.815 1132 138.815 975 82.5 c 0,58,59
 929 66 929 66 878 66 c 2,60,-1
 345 66 l 2,61,0
 270 66 270 66 270 8 c 128,-1,1
280 451 m 2,62,63
 280 362 280 362 332.5 362 c 128,-1,64
 385 362 385 362 385 451 c 2,65,-1
 385 506 l 2,66,67
 385 598.586 385 598.586 333 595 c 0,68,69
 280 592.35 280 592.35 280 506 c 2,70,-1
 280 451 l 2,62,63
EndSplineSet
EndChar

StartChar: uni0D08
Encoding: 103 3336 105
Width: 2071
GlyphClass: 2
Flags: W
LayerCount: 2
Back
Fore
SplineSet
1599 881 m 1,0,1
 1643 958 1643 958 1742.5 958 c 128,-1,2
 1842 958 1842 958 1889.5 944.5 c 128,-1,3
 1937 931 1937 931 1976 904.5 c 0,4,5
 2065 844.026 2065 844.026 2065 749 c 2,6,-1
 2065 202 l 2,7,8
 2065 93.7143 2065 93.7143 1990 50.8571 c 0,9,10
 1873 -16 1873 -16 1791 -16 c 128,-1,11
 1709 -16 1709 -16 1654.5 -4 c 128,-1,12
 1600 8 1600 8 1554 34.5 c 0,13,14
 1447 96.1413 1447 96.1413 1447 201 c 2,15,-1
 1447 340 l 1,16,-1
 1613 340 l 1,17,-1
 1612 253 l 1,18,19
 1612 137.691 1612 137.691 1688.5 121 c 0,20,21
 1716 115 1716 115 1747 115 c 128,-1,22
 1778 115 1778 115 1800 121.5 c 128,-1,23
 1822 128 1822 128 1840 140 c 0,24,25
 1881 167.333 1881 167.333 1881 213 c 2,26,-1
 1881 735 l 2,27,28
 1881 773 1881 773 1852.5 797.5 c 128,-1,29
 1824 822 1824 822 1796 822 c 128,-1,30
 1768 822 1768 822 1750.5 815 c 128,-1,31
 1733 808 1733 808 1719.5 796 c 0,32,33
 1689 768.889 1689 768.889 1689 731 c 2,34,-1
 1689 548 l 1,35,-1
 1526 550 l 1,36,-1
 1526 733 l 2,37,38
 1526 822 1526 822 1445.5 822 c 128,-1,39
 1365 822 1365 822 1365 733 c 2,40,-1
 1365 501 l 1,41,-1
 1214 501 l 1,42,-1
 1214 746 l 2,43,44
 1214 891.161 1214 891.161 1349.5 938 c 0,45,46
 1390 952 1390 952 1474.97 952 c 128,-1,47
 1559.95 952 1559.95 952 1599 881 c 1,0,1
270 8 m 128,-1,49
 270 -50 270 -50 345 -50 c 2,50,-1
 1123 -50 l 1,51,-1
 1123 -194 l 1,52,-1
 345 -194 l 2,53,54
 179.947 -194 179.947 -194 125 -78 c 0,55,56
 107 -40 107 -40 107 10 c 0,57,58
 107 200 107 200 345 200 c 2,59,-1
 838 200 l 2,60,61
 910.158 200 910.158 200 929.579 241 c 128,-1,62
 949 282 949 282 949 304 c 2,63,-1
 949 753 l 2,64,65
 949 842 949 842 857.5 842 c 128,-1,66
 766 842 766 842 766 759 c 2,67,-1
 766 247 l 1,68,-1
 583 247 l 1,69,-1
 583 755 l 2,70,71
 583 842 583 842 494 842 c 2,72,-1
 374 842 l 2,73,74
 290.735 842 290.735 842 280 769 c 1,75,-1
 280 703 l 1,76,77
 298.455 732 298.455 732 360.227 732 c 128,-1,78
 422 732 422 732 454.5 717.5 c 128,-1,79
 487 703 487 703 505.5 675.5 c 0,80,81
 538 627.189 538 627.189 538 519 c 2,82,-1
 538 440 l 2,83,84
 538 228 538 228 333 228 c 0,85,86
 170.823 228 170.823 228 115 350.5 c 0,87,88
 97 390 97 390 97 440 c 2,89,-1
 97 767 l 2,90,91
 97 910.935 97 910.935 261.5 964 c 0,92,93
 308 979 308 979 358 979 c 2,94,-1
 508 979 l 2,95,96
 619.439 979 619.439 979 675 912 c 1,97,98
 729.238 979 729.238 979 825.119 979 c 128,-1,99
 921 979 921 979 969 966 c 128,-1,100
 1017 953 1017 953 1053 926 c 0,101,102
 1132 866.75 1132 866.75 1132 767 c 2,103,-1
 1132 292 l 2,104,105
 1132 138.815 1132 138.815 975 82.5 c 0,106,107
 929 66 929 66 878 66 c 2,108,-1
 345 66 l 2,109,48
 270 66 270 66 270 8 c 128,-1,49
280 451 m 2,110,111
 280 362 280 362 332.5 362 c 128,-1,112
 385 362 385 362 385 451 c 2,113,-1
 385 506 l 2,114,115
 385 598.586 385 598.586 333 595 c 0,116,117
 280 592.35 280 592.35 280 506 c 2,118,-1
 280 451 l 2,110,111
EndSplineSet
EndChar

StartChar: uni0D09
Encoding: 104 3337 106
Width: 854
GlyphClass: 2
Flags: W
LayerCount: 2
Back
Fore
SplineSet
548 434 m 2,0,1
 548 222 548 222 322.5 222 c 128,-1,2
 97 222 97 222 97 434 c 2,3,-1
 97 767 l 2,4,5
 97 911.581 97 911.581 259.5 964 c 0,6,7
 306 979 306 979 356 979 c 2,8,-1
 590 979 l 2,9,10
 759.385 979 759.385 979 831.5 854 c 0,11,12
 854 815 854 815 854 767 c 2,13,-1
 854 292 l 2,14,15
 854 136.389 854 136.389 700 76.5 c 0,16,17
 655 59 655 59 604 59 c 2,18,-1
 333 59 l 2,19,20
 260 59 260 59 260 4.5 c 128,-1,21
 260 -50 260 -50 333 -50 c 2,22,-1
 840 -50 l 1,23,-1
 840 -204 l 1,24,-1
 333 -204 l 2,25,26
 171.734 -204 171.734 -204 115 -79.5 c 0,27,28
 97 -40 97 -40 97 10 c 0,29,30
 97 200 97 200 333 200 c 2,31,-1
 560 200 l 2,32,33
 632.158 200 632.158 200 651.579 241 c 128,-1,34
 671 282 671 282 671 304 c 2,35,-1
 671 735 l 2,36,37
 671 842 671 842 558 842 c 2,38,-1
 383 842 l 2,39,40
 291.912 842 291.912 842 280 761 c 1,41,-1
 280 707 l 1,42,43
 302.312 728 302.312 728 379 728 c 0,44,45
 548 728 548 728 548 516 c 2,46,-1
 548 434 l 2,0,1
280 446 m 2,47,48
 280 356 280 356 332.5 356 c 128,-1,49
 385 356 385 356 385 446 c 2,50,-1
 385 502 l 2,51,52
 385 591 385 591 332.5 591 c 128,-1,53
 280 591 280 591 280 502 c 2,54,-1
 280 446 l 2,47,48
EndSplineSet
EndChar

StartChar: uni0D0A
Encoding: 105 3338 107
Width: 1771
GlyphClass: 2
Flags: W
LayerCount: 2
Back
Fore
SplineSet
1301 881 m 1,0,1
 1345 958 1345 958 1444.5 958 c 128,-1,2
 1544 958 1544 958 1591.5 944.5 c 128,-1,3
 1639 931 1639 931 1678 904.5 c 0,4,5
 1767 844.026 1767 844.026 1767 749 c 2,6,-1
 1767 202 l 2,7,8
 1767 93.7143 1767 93.7143 1692 50.8571 c 0,9,10
 1575 -16 1575 -16 1493 -16 c 128,-1,11
 1411 -16 1411 -16 1356.5 -4 c 128,-1,12
 1302 8 1302 8 1256 34.5 c 0,13,14
 1149 96.1413 1149 96.1413 1149 201 c 2,15,-1
 1149 340 l 1,16,-1
 1315 340 l 1,17,-1
 1314 253 l 1,18,19
 1314 137.691 1314 137.691 1390.5 121 c 0,20,21
 1418 115 1418 115 1449 115 c 128,-1,22
 1480 115 1480 115 1502 121.5 c 128,-1,23
 1524 128 1524 128 1542 140 c 0,24,25
 1583 167.333 1583 167.333 1583 213 c 2,26,-1
 1583 735 l 2,27,28
 1583 773 1583 773 1554.5 797.5 c 128,-1,29
 1526 822 1526 822 1498 822 c 128,-1,30
 1470 822 1470 822 1452.5 815 c 128,-1,31
 1435 808 1435 808 1421.5 796 c 0,32,33
 1391 768.889 1391 768.889 1391 731 c 2,34,-1
 1391 548 l 1,35,-1
 1228 550 l 1,36,-1
 1228 733 l 2,37,38
 1228 822 1228 822 1147.5 822 c 128,-1,39
 1067 822 1067 822 1067 733 c 2,40,-1
 1067 501 l 1,41,-1
 916 501 l 1,42,-1
 916 746 l 2,43,44
 916 891.161 916 891.161 1051.5 938 c 0,45,46
 1092 952 1092 952 1176.97 952 c 128,-1,47
 1261.95 952 1261.95 952 1301 881 c 1,0,1
548 434 m 2,48,49
 548 222 548 222 322.5 222 c 128,-1,50
 97 222 97 222 97 434 c 2,51,-1
 97 767 l 2,52,53
 97 911.581 97 911.581 259.5 964 c 0,54,55
 306 979 306 979 356 979 c 2,56,-1
 590 979 l 2,57,58
 759.385 979 759.385 979 831.5 854 c 0,59,60
 854 815 854 815 854 767 c 2,61,-1
 854 292 l 2,62,63
 854 136.389 854 136.389 700 76.5 c 0,64,65
 655 59 655 59 604 59 c 2,66,-1
 333 59 l 2,67,68
 260 59 260 59 260 4.5 c 128,-1,69
 260 -50 260 -50 333 -50 c 2,70,-1
 840 -50 l 1,71,-1
 840 -204 l 1,72,-1
 333 -204 l 2,73,74
 171.734 -204 171.734 -204 115 -79.5 c 0,75,76
 97 -40 97 -40 97 10 c 0,77,78
 97 200 97 200 333 200 c 2,79,-1
 560 200 l 2,80,81
 632.158 200 632.158 200 651.579 241 c 128,-1,82
 671 282 671 282 671 304 c 2,83,-1
 671 735 l 2,84,85
 671 842 671 842 558 842 c 2,86,-1
 383 842 l 2,87,88
 291.912 842 291.912 842 280 761 c 1,89,-1
 280 707 l 1,90,91
 302.312 728 302.312 728 379 728 c 0,92,93
 548 728 548 728 548 516 c 2,94,-1
 548 434 l 2,48,49
280 446 m 2,95,96
 280 356 280 356 332.5 356 c 128,-1,97
 385 356 385 356 385 446 c 2,98,-1
 385 502 l 2,99,100
 385 591 385 591 332.5 591 c 128,-1,101
 280 591 280 591 280 502 c 2,102,-1
 280 446 l 2,95,96
EndSplineSet
EndChar

StartChar: uni0D0B
Encoding: 106 3339 108
Width: 1082
GlyphClass: 2
Flags: W
LayerCount: 2
Back
Fore
SplineSet
803 202 m 2,0,-1
 378 202 l 2,1,2
 300 202 300 202 300 123 c 2,3,-1
 300 33 l 2,4,5
 300 -20.8571 300 -20.8571 332 -33.4286 c 128,-1,6
 364 -46 364 -46 378 -46 c 2,7,-1
 803 -46 l 2,8,9
 881 -46 881 -46 881 35 c 2,10,-1
 881 121 l 2,11,12
 881 172.286 881 172.286 849 187.143 c 128,-1,13
 817 202 817 202 803 202 c 2,0,-1
901 765 m 2,14,15
 901 864 901 864 848.5 864 c 128,-1,16
 796 864 796 864 796 765 c 2,17,-1
 796 671 l 2,18,19
 796 584 796 584 848.5 584 c 128,-1,20
 901 584 901 584 901 671 c 2,21,-1
 901 765 l 2,14,15
796 447 m 0,22,23
 623 447 623 447 623 658 c 2,24,-1
 623 776 l 2,25,26
 623 930.53 623 930.53 756.5 982 c 0,27,28
 798 998 798 998 848.5 998 c 128,-1,29
 899 998 899 998 941.5 982 c 128,-1,30
 984 966 984 966 1015.5 937 c 0,31,32
 1082 875.778 1082 875.778 1082 776 c 2,33,-1
 1082 432 l 2,34,35
 1082 330.047 1082 330.047 986 272 c 1,36,37
 1062 227.814 1062 227.814 1062 126 c 2,38,-1
 1062 29 l 2,39,40
 1062 -117.227 1062 -117.227 916 -167 c 0,41,42
 872 -182 872 -182 823 -182 c 2,43,-1
 358 -182 l 2,44,45
 196.948 -182 196.948 -182 136 -58.5 c 0,46,47
 117 -20 117 -20 117 27 c 2,48,-1
 117 128 l 2,49,50
 117 228.098 117 228.098 189 272 c 1,51,52
 97 313.4 97 313.4 97 432 c 2,53,-1
 97 776 l 2,54,55
 97 929.163 97 929.163 239 982 c 0,56,57
 282 998 282 998 332.5 998 c 128,-1,58
 383 998 383 998 424.5 982 c 128,-1,59
 466 966 466 966 495.5 937 c 0,60,61
 558 875.559 558 875.559 558 776 c 2,62,-1
 558 658 l 2,63,64
 558 519.537 558 519.537 456.5 465 c 0,65,66
 423 447 423 447 355.115 447 c 128,-1,67
 287.231 447 287.231 447 280 494 c 1,68,-1
 280 416 l 1,69,70
 289.059 339 289.059 339 378 339 c 2,71,-1
 803 339 l 2,72,73
 854 339 854 339 876.5 369 c 128,-1,74
 899 399 899 399 901 416 c 1,75,-1
 901 494 l 1,76,77
 883.375 447 883.375 447 796 447 c 0,22,23
280 671 m 2,78,79
 280 584 280 584 332.5 584 c 128,-1,80
 385 584 385 584 385 671 c 2,81,-1
 385 765 l 2,82,83
 385 864 385 864 332.5 864 c 128,-1,84
 280 864 280 864 280 765 c 2,85,-1
 280 671 l 2,78,79
EndSplineSet
EndChar

StartChar: l1
Encoding: 107 3340 109
Width: 1476
GlyphClass: 2
Flags: W
LayerCount: 2
Back
Fore
SplineSet
334.5 158 m 0,0,1
 408 158 408 158 408 311 c 128,-1,2
 408 464 408 464 334.5 464 c 0,3,4
 296 464 296 464 275 412 c 128,-1,5
 254 360 254 360 254 293 c 128,-1,6
 254 226 254 226 283 192 c 128,-1,7
 312 158 312 158 334.5 158 c 0,0,1
1123 311 m 128,-1,9
 1123 158 1123 158 1195.5 158 c 0,10,11
 1277 158 1277 158 1277 277.5 c 0,12,13
 1277 464 1277 464 1200 464 c 128,-1,8
 1123 464 1123 464 1123 311 c 128,-1,9
1268 624 m 1,14,15
 1230.4 739 1230.4 739 1093 739 c 0,16,17
 985.833 739 985.833 739 921.917 661.5 c 128,-1,18
 858 584 858 584 858 478 c 2,19,-1
 858 0 l 1,20,-1
 673 0 l 1,21,-1
 673 478 l 2,22,23
 673 584 673 584 609.5 661.5 c 128,-1,24
 546 739 546 739 447 739 c 0,25,26
 304.593 739 304.593 739 262 624 c 1,27,28
 294 654 294 654 356.5 654 c 0,29,30
 580 654 580 654 580 322 c 0,31,32
 580 195 580 195 515.5 89 c 128,-1,33
 451 -17 451 -17 342 -17 c 128,-1,34
 233 -17 233 -17 144.5 80.5 c 128,-1,35
 56 178 56 178 56 469 c 128,-1,36
 56 760 56 760 262 881 c 0,37,38
 337 925 337 925 497.5 925 c 128,-1,39
 658 925 658 925 765 784 c 1,40,41
 872 925 872 925 1079.5 925 c 128,-1,42
 1287 925 1287 925 1380.5 778 c 128,-1,43
 1474 631 1474 631 1474 444 c 128,-1,44
 1474 257 1474 257 1409.5 120 c 128,-1,45
 1345 -17 1345 -17 1212.5 -17 c 128,-1,46
 1080 -17 1080 -17 1015.5 89 c 128,-1,47
 951 195 951 195 951 369.5 c 128,-1,48
 951 544 951 544 1066 624 c 1,49,50
 1111 654 1111 654 1173.5 654 c 128,-1,51
 1236 654 1236 654 1268 624 c 1,14,15
EndSplineSet
EndChar

StartChar: uni0D0E
Encoding: 108 3342 110
Width: 1431
GlyphClass: 2
Flags: W
LayerCount: 2
Back
Fore
SplineSet
864 0 m 1,0,1
 859.571 -93.0004 859.571 -93.0004 913 -93 c 0,2,3
 969.167 -93 969.167 -93 964 0 c 1,4,-1
 864 0 l 1,0,1
1250 761 m 2,5,6
 1250 842 1250 842 1170 842 c 2,7,-1
 942 842 l 2,8,9
 864 842 864 842 864 761 c 2,10,-1
 864 132 l 1,11,-1
 964 132 l 1,12,-1
 964 817 l 1,13,-1
 1146 817 l 1,14,-1
 1146 -11 l 2,15,16
 1146 -153.15 1146 -153.15 1013 -213 c 0,17,18
 973 -231 973 -231 927 -231 c 2,19,-1
 903 -231 l 2,20,21
 758.177 -231 758.177 -231 699 -93.5 c 0,22,23
 682 -54 682 -54 682 -11 c 2,24,-1
 682 0 l 1,25,-1
 377 0 l 1,26,-1
 377 123 l 1,27,28
 438 131.714 438 131.714 438 212 c 2,29,-1
 438 446 l 2,30,31
 438 536 438 536 359 536 c 128,-1,32
 280 536 280 536 280 446 c 2,33,-1
 280 214 l 2,34,35
 280 128.429 280 128.429 337 123 c 1,36,-1
 337 -3 l 1,37,38
 164.373 -3 164.373 -3 112.5 122.5 c 0,39,40
 97 160 97 160 97 204 c 2,41,-1
 97 460 l 2,42,43
 97 605.617 97 605.617 258 657 c 0,44,45
 305 672 305 672 357.5 672 c 128,-1,46
 410 672 410 672 457.5 656.5 c 128,-1,47
 505 641 505 641 541 613.5 c 0,48,49
 619 553.917 619 553.917 619 460 c 2,50,-1
 619 228 l 2,51,52
 619 152.5 619 152.5 578 132 c 1,53,-1
 682 132 l 1,54,-1
 682 767 l 2,55,56
 682 912.936 682 912.936 842 964 c 0,57,58
 889 979 889 979 942 979 c 2,59,-1
 1170 979 l 2,60,61
 1342.59 979 1342.59 979 1411.5 854 c 0,62,63
 1433 815 1433 815 1433 767 c 2,64,-1
 1433 -7 l 2,65,66
 1433 -140.073 1433 -140.073 1270 -199.5 c 0,67,68
 1222 -217 1222 -217 1170 -217 c 1,69,-1
 1170 -85 l 1,70,71
 1250 -74.7436 1250 -74.7436 1250 4 c 2,72,-1
 1250 761 l 2,5,6
EndSplineSet
EndChar

StartChar: uni0D0F
Encoding: 109 3343 111
Width: 1413
GlyphClass: 2
Flags: W
LayerCount: 2
Back
Fore
SplineSet
619 233 m 2,0,1
 619 163.333 619 163.333 572 132 c 1,2,-1
 682 132 l 1,3,-1
 682 767 l 2,4,5
 682 912.936 682 912.936 842 964 c 0,6,7
 889 979 889 979 942 979 c 2,8,-1
 1180 979 l 2,9,10
 1352.59 979 1352.59 979 1421.5 854 c 0,11,12
 1443 815 1443 815 1443 767 c 2,13,-1
 1443 437 l 2,14,15
 1443 315 1443 315 1353 273 c 1,16,-1
 1355 273 l 1,17,18
 1443 245.923 1443 245.923 1443 119 c 2,19,-1
 1443 -7 l 2,20,21
 1443 -217 1443 -217 1178 -217 c 1,22,-1
 1178 -85 l 1,23,24
 1260 -78.6923 1260 -78.6923 1260 4 c 2,25,-1
 1260 126 l 2,26,27
 1260 205 1260 205 1188 205 c 1,28,-1
 1188 350 l 1,29,30
 1260 350 1260 350 1260 439 c 2,31,-1
 1260 761 l 2,32,33
 1260 842 1260 842 1180 842 c 2,34,-1
 942 842 l 2,35,36
 864 842 864 842 864 761 c 2,37,-1
 864 132 l 1,38,-1
 964 132 l 1,39,-1
 964 814 l 1,40,-1
 1146 814 l 1,41,-1
 1146 -11 l 2,42,43
 1146 -150.988 1146 -150.988 1013 -212.5 c 0,44,45
 973 -231 973 -231 927 -231 c 2,46,-1
 903 -231 l 2,47,48
 758.177 -231 758.177 -231 699 -93.5 c 0,49,50
 682 -54 682 -54 682 -11 c 2,51,-1
 682 0 l 1,52,-1
 381 0 l 1,53,-1
 381 123 l 1,54,55
 438 131.143 438 131.143 438 212 c 2,56,-1
 438 446 l 2,57,58
 438 536 438 536 359 536 c 128,-1,59
 280 536 280 536 280 446 c 2,60,-1
 280 214 l 2,61,62
 280 125 280 125 339 125 c 1,63,-1
 339 -3 l 1,64,65
 182.28 -3 182.28 -3 116.5 123.5 c 0,66,67
 97 161 97 161 97 204 c 2,68,-1
 97 460 l 2,69,70
 97 605.617 97 605.617 258 657 c 0,71,72
 305 672 305 672 357.5 672 c 128,-1,73
 410 672 410 672 457.5 656.5 c 128,-1,74
 505 641 505 641 541 613 c 0,75,76
 619 552.333 619 552.333 619 460 c 2,77,-1
 619 233 l 2,0,1
864 0 m 1,78,79
 859.35 -93.0005 859.35 -93.0005 915 -93 c 0,80,81
 968.043 -93 968.043 -93 964 0 c 1,82,-1
 864 0 l 1,78,79
EndSplineSet
EndChar

StartChar: uni0D10
Encoding: 110 3344 112
Width: 2232
GlyphClass: 2
Flags: W
LayerCount: 2
Back
Fore
SplineSet
278 202 m 2,0,1
 278 115 278 115 329.5 115 c 128,-1,2
 381 115 381 115 381 202 c 2,3,-1
 381 484 l 2,4,5
 381 572 381 572 329.5 572 c 128,-1,6
 278 572 278 572 278 484 c 2,7,-1
 278 202 l 2,0,1
364 708 m 0,8,9
 562 708 562 708 562 498 c 2,10,-1
 562 200 l 2,11,12
 562 45.9412 562 45.9412 420.5 -4 c 0,13,14
 378 -19 378 -19 329 -19 c 128,-1,15
 280 -19 280 -19 238 -3.5 c 128,-1,16
 196 12 196 12 164.5 40.5 c 0,17,18
 97 101.571 97 101.571 97 200 c 2,19,-1
 97 763 l 2,20,21
 97 909.764 97 909.764 253.5 959 c 0,22,23
 298 973 298 973 344 973 c 2,24,-1
 553 973 l 2,25,26
 733.5 973 733.5 973 796.5 861 c 0,27,28
 819 821 819 821 819 763 c 2,29,-1
 819 193 l 2,30,31
 819 9.41667 819 9.41667 574 -11 c 1,32,-1
 574 126 l 1,33,34
 636 126 636 126 636 212 c 2,35,-1
 636 749 l 2,36,37
 636 839 636 839 533 839 c 2,38,-1
 377 839 l 2,39,40
 278 839 278 839 278 718 c 2,41,-1
 278 669 l 1,42,43
 308.789 708 308.789 708 364 708 c 0,8,9
1660 0 m 1,44,45
 1655.57 -93.0004 1655.57 -93.0004 1709 -93 c 0,46,47
 1765.17 -93 1765.17 -93 1760 0 c 1,48,-1
 1660 0 l 1,44,45
2046 761 m 2,49,50
 2046 842 2046 842 1966 842 c 2,51,-1
 1738 842 l 2,52,53
 1660 842 1660 842 1660 761 c 2,54,-1
 1660 132 l 1,55,-1
 1760 132 l 1,56,-1
 1760 817 l 1,57,-1
 1942 817 l 1,58,-1
 1942 -11 l 2,59,60
 1942 -153.15 1942 -153.15 1809 -213 c 0,61,62
 1769 -231 1769 -231 1723 -231 c 2,63,-1
 1699 -231 l 2,64,65
 1554.18 -231 1554.18 -231 1495 -93.5 c 0,66,67
 1478 -54 1478 -54 1478 -11 c 2,68,-1
 1478 0 l 1,69,-1
 1173 0 l 1,70,-1
 1173 123 l 1,71,72
 1234 131.714 1234 131.714 1234 212 c 2,73,-1
 1234 446 l 2,74,75
 1234 536 1234 536 1155 536 c 128,-1,76
 1076 536 1076 536 1076 446 c 2,77,-1
 1076 214 l 2,78,79
 1076 128.429 1076 128.429 1133 123 c 1,80,-1
 1133 -3 l 1,81,82
 960.373 -3 960.373 -3 908.5 122.5 c 0,83,84
 893 160 893 160 893 204 c 2,85,-1
 893 460 l 2,86,87
 893 605.617 893 605.617 1054 657 c 0,88,89
 1101 672 1101 672 1153.5 672 c 128,-1,90
 1206 672 1206 672 1253.5 656.5 c 128,-1,91
 1301 641 1301 641 1337 613.5 c 0,92,93
 1415 553.917 1415 553.917 1415 460 c 2,94,-1
 1415 228 l 2,95,96
 1415 152.5 1415 152.5 1374 132 c 1,97,-1
 1478 132 l 1,98,-1
 1478 767 l 2,99,100
 1478 912.936 1478 912.936 1638 964 c 0,101,102
 1685 979 1685 979 1738 979 c 2,103,-1
 1966 979 l 2,104,105
 2138.59 979 2138.59 979 2207.5 854 c 0,106,107
 2229 815 2229 815 2229 767 c 2,108,-1
 2229 -7 l 2,109,110
 2229 -140.073 2229 -140.073 2066 -199.5 c 0,111,112
 2018 -217 2018 -217 1966 -217 c 1,113,-1
 1966 -85 l 1,114,115
 2046 -74.7436 2046 -74.7436 2046 4 c 2,116,-1
 2046 761 l 2,49,50
EndSplineSet
EndChar

StartChar: uni0D12
Encoding: 111 3346 113
Width: 874
GlyphClass: 2
Flags: W
LayerCount: 2
Back
Fore
SplineSet
280 653 m 1,0,1
 307 680 307 680 369 680 c 128,-1,2
 431 680 431 680 460 665.5 c 128,-1,3
 489 651 489 651 510.5 624 c 0,4,5
 556 566.86 556 566.86 556 470 c 2,6,-1
 556 202 l 2,7,8
 556 47.7654 556 47.7654 427.5 -3 c 0,9,10
 387 -19 387 -19 337.5 -19 c 128,-1,11
 288 -19 288 -19 244.5 -3 c 128,-1,12
 201 13 201 13 168 42.5 c 0,13,14
 97 105.97 97 105.97 97 202 c 2,15,-1
 97 767 l 2,16,17
 97 912.333 97 912.333 252 964 c 0,18,19
 297 979 297 979 346 979 c 2,20,-1
 623 979 l 2,21,22
 894 979 894 979 894 767 c 2,23,-1
 894 628 l 2,24,25
 894 515.84 894 515.84 807 488 c 1,26,27
 894 459 894 459 894 342 c 2,28,-1
 894 200 l 2,29,30
 894 -9 894 -9 643 -9 c 2,31,-1
 608 -9 l 1,32,-1
 608 126 l 1,33,-1
 631 126 l 2,34,35
 711 126 711 126 711 227 c 2,36,-1
 711 331 l 2,37,38
 711 418 711 418 648 418 c 2,39,-1
 615 418 l 1,40,-1
 615 564 l 1,41,42
 711 564 711 564 711 652 c 2,43,-1
 711 751 l 2,44,45
 711 844 711 844 623 844 c 2,46,-1
 364 844 l 2,47,48
 311.484 844 311.484 844 295.742 813.5 c 128,-1,49
 280 783 280 783 280 763 c 2,50,-1
 280 653 l 1,0,1
339 115 m 0,51,52
 383 115 383 115 383 212 c 2,53,-1
 383 456 l 2,54,55
 383 536 383 536 331.5 536 c 128,-1,56
 280 536 280 536 280 456 c 2,57,-1
 280 212 l 2,58,59
 280 115 280 115 339 115 c 0,51,52
EndSplineSet
EndChar

StartChar: uni0D13
Encoding: 112 3347 114
Width: 1472
GlyphClass: 2
Flags: W
LayerCount: 2
Back
Fore
SplineSet
1212 861 m 128,-1,1
 1136 861 1136 861 1136 774 c 2,2,-1
 1136 607 l 1,3,-1
 955 607 l 1,4,-1
 955 769 l 2,5,6
 955 920.761 955 920.761 1118 981 c 0,7,8
 1164 998 1164 998 1211.5 998 c 128,-1,9
 1259 998 1259 998 1305.5 981 c 128,-1,10
 1352 964 1352 964 1388.5 933 c 0,11,12
 1471 862.932 1471 862.932 1471 769 c 2,13,-1
 1471 204 l 2,14,15
 1471 56 1471 56 1304.5 0.5 c 0,16,17
 1258 -15 1258 -15 1211.5 -15 c 128,-1,18
 1165 -15 1165 -15 1119 0 c 128,-1,19
 1073 15 1073 15 1036.5 43.5 c 0,20,21
 955 107.137 955 107.137 955 204 c 2,22,-1
 955 356 l 1,23,-1
 1136 356 l 1,24,-1
 1136 206 l 2,25,26
 1136 118 1136 118 1212 118 c 128,-1,27
 1288 118 1288 118 1288 206 c 2,28,-1
 1288 774 l 2,29,0
 1288 861 1288 861 1212 861 c 128,-1,1
280 653 m 1,30,31
 307 680 307 680 369 680 c 128,-1,32
 431 680 431 680 460 665.5 c 128,-1,33
 489 651 489 651 510.5 624 c 0,34,35
 556 566.86 556 566.86 556 470 c 2,36,-1
 556 202 l 2,37,38
 556 47.7654 556 47.7654 427.5 -3 c 0,39,40
 387 -19 387 -19 337.5 -19 c 128,-1,41
 288 -19 288 -19 244.5 -3 c 128,-1,42
 201 13 201 13 168 42.5 c 0,43,44
 97 105.97 97 105.97 97 202 c 2,45,-1
 97 767 l 2,46,47
 97 912.333 97 912.333 252 964 c 0,48,49
 297 979 297 979 346 979 c 2,50,-1
 623 979 l 2,51,52
 894 979 894 979 894 767 c 2,53,-1
 894 628 l 2,54,55
 894 515.84 894 515.84 807 488 c 1,56,57
 894 459 894 459 894 342 c 2,58,-1
 894 200 l 2,59,60
 894 -9 894 -9 643 -9 c 2,61,-1
 608 -9 l 1,62,-1
 608 126 l 1,63,-1
 631 126 l 2,64,65
 711 126 711 126 711 227 c 2,66,-1
 711 331 l 2,67,68
 711 418 711 418 648 418 c 2,69,-1
 615 418 l 1,70,-1
 615 564 l 1,71,72
 711 564 711 564 711 652 c 2,73,-1
 711 751 l 2,74,75
 711 844 711 844 623 844 c 2,76,-1
 364 844 l 2,77,78
 311.484 844 311.484 844 295.742 813.5 c 128,-1,79
 280 783 280 783 280 763 c 2,80,-1
 280 653 l 1,30,31
339 115 m 0,81,82
 383 115 383 115 383 212 c 2,83,-1
 383 456 l 2,84,85
 383 536 383 536 331.5 536 c 128,-1,86
 280 536 280 536 280 456 c 2,87,-1
 280 212 l 2,88,89
 280 115 280 115 339 115 c 0,81,82
EndSplineSet
EndChar

StartChar: uni0D14
Encoding: 113 3348 115
Width: 1804
GlyphClass: 2
Flags: W
LayerCount: 2
Back
Fore
SplineSet
1336 881 m 1,0,1
 1380 958 1380 958 1479.5 958 c 128,-1,2
 1579 958 1579 958 1626.5 944.5 c 128,-1,3
 1674 931 1674 931 1713 904.5 c 0,4,5
 1802 844.026 1802 844.026 1802 749 c 2,6,-1
 1802 202 l 2,7,8
 1802 93.7143 1802 93.7143 1727 50.8571 c 0,9,10
 1610 -16 1610 -16 1528 -16 c 128,-1,11
 1446 -16 1446 -16 1391.5 -4 c 128,-1,12
 1337 8 1337 8 1291 34.5 c 0,13,14
 1184 96.1413 1184 96.1413 1184 201 c 2,15,-1
 1184 340 l 1,16,-1
 1350 340 l 1,17,-1
 1349 253 l 1,18,19
 1349 137.691 1349 137.691 1425.5 121 c 0,20,21
 1453 115 1453 115 1484 115 c 128,-1,22
 1515 115 1515 115 1537 121.5 c 128,-1,23
 1559 128 1559 128 1577 140 c 0,24,25
 1618 167.333 1618 167.333 1618 213 c 2,26,-1
 1618 735 l 2,27,28
 1618 773 1618 773 1589.5 797.5 c 128,-1,29
 1561 822 1561 822 1533 822 c 128,-1,30
 1505 822 1505 822 1487.5 815 c 128,-1,31
 1470 808 1470 808 1456.5 796 c 0,32,33
 1426 768.889 1426 768.889 1426 731 c 2,34,-1
 1426 548 l 1,35,-1
 1263 550 l 1,36,-1
 1263 733 l 2,37,38
 1263 822 1263 822 1182.5 822 c 128,-1,39
 1102 822 1102 822 1102 733 c 2,40,-1
 1102 501 l 1,41,-1
 951 501 l 1,42,-1
 951 746 l 2,43,44
 951 891.161 951 891.161 1086.5 938 c 0,45,46
 1127 952 1127 952 1211.97 952 c 128,-1,47
 1296.95 952 1296.95 952 1336 881 c 1,0,1
280 653 m 1,48,49
 307 680 307 680 369 680 c 128,-1,50
 431 680 431 680 460 665.5 c 128,-1,51
 489 651 489 651 510.5 624 c 0,52,53
 556 566.86 556 566.86 556 470 c 2,54,-1
 556 202 l 2,55,56
 556 47.7654 556 47.7654 427.5 -3 c 0,57,58
 387 -19 387 -19 337.5 -19 c 128,-1,59
 288 -19 288 -19 244.5 -3 c 128,-1,60
 201 13 201 13 168 42.5 c 0,61,62
 97 105.97 97 105.97 97 202 c 2,63,-1
 97 767 l 2,64,65
 97 912.333 97 912.333 252 964 c 0,66,67
 297 979 297 979 346 979 c 2,68,-1
 623 979 l 2,69,70
 894 979 894 979 894 767 c 2,71,-1
 894 628 l 2,72,73
 894 515.84 894 515.84 807 488 c 1,74,75
 894 459 894 459 894 342 c 2,76,-1
 894 200 l 2,77,78
 894 -9 894 -9 643 -9 c 2,79,-1
 608 -9 l 1,80,-1
 608 126 l 1,81,-1
 631 126 l 2,82,83
 711 126 711 126 711 227 c 2,84,-1
 711 331 l 2,85,86
 711 418 711 418 648 418 c 2,87,-1
 615 418 l 1,88,-1
 615 564 l 1,89,90
 711 564 711 564 711 652 c 2,91,-1
 711 751 l 2,92,93
 711 844 711 844 623 844 c 2,94,-1
 364 844 l 2,95,96
 311.484 844 311.484 844 295.742 813.5 c 128,-1,97
 280 783 280 783 280 763 c 2,98,-1
 280 653 l 1,48,49
339 115 m 0,99,100
 383 115 383 115 383 212 c 2,101,-1
 383 456 l 2,102,103
 383 536 383 536 331.5 536 c 128,-1,104
 280 536 280 536 280 456 c 2,105,-1
 280 212 l 2,106,107
 280 115 280 115 339 115 c 0,99,100
EndSplineSet
EndChar

StartChar: k1
Encoding: 114 3349 116
Width: 1275
GlyphClass: 2
Flags: W
LayerCount: 2
Back
Fore
SplineSet
1090 391 m 2,0,1
 1090 479 1090 479 1024 479 c 2,2,-1
 989 479 l 1,3,-1
 989 202 l 2,4,5
 989 52.8182 989 52.8182 822.5 -1 c 0,6,7
 773 -17 773 -17 651.862 -17 c 128,-1,8
 530.724 -17 530.724 -17 479 58 c 1,9,10
 446.286 -14.9774 446.286 -14.9774 388.643 -15.9887 c 128,-1,11
 331 -17 331 -17 290 -17 c 128,-1,12
 249 -17 249 -17 213 -1.5 c 128,-1,13
 177 14 177 14 151 43 c 0,14,15
 97 103.231 97 103.231 97 202 c 2,16,-1
 97 405 l 2,17,18
 97 615 97 615 344 615 c 2,19,-1
 409 615 l 1,20,-1
 409 774 l 2,21,22
 409 932.932 409 932.932 589.5 982 c 0,23,24
 641 996 641 996 697 996 c 128,-1,25
 753 996 753 996 806 981 c 128,-1,26
 859 966 859 966 899.5 937.5 c 0,27,28
 989 874.518 989 874.518 989 774 c 2,29,-1
 989 615 l 1,30,-1
 1024 615 l 2,31,32
 1273 615 1273 615 1273 405 c 2,33,-1
 1273 202 l 2,34,35
 1273 -9 1273 -9 1024 -9 c 2,36,-1
 1003 -9 l 1,37,-1
 1003 125 l 1,38,-1
 1024 125 l 2,39,40
 1090 125 1090 125 1090 212 c 2,41,-1
 1090 391 l 2,0,1
697 115 m 128,-1,43
 802 115 802 115 802 230 c 2,44,-1
 802 479 l 1,45,-1
 592 479 l 1,46,-1
 592 232 l 2,47,42
 592 115 592 115 697 115 c 128,-1,43
697 860 m 128,-1,49
 592 860 592 860 592 761 c 2,50,-1
 592 615 l 1,51,-1
 802 615 l 1,52,-1
 802 761 l 2,53,48
 802 860 802 860 697 860 c 128,-1,49
270 212 m 2,54,55
 270 118 270 118 329 118 c 0,56,57
 360 118 360 118 384.5 147 c 128,-1,58
 409 176 409 176 409 224 c 2,59,-1
 409 479 l 1,60,-1
 342 479 l 2,61,62
 270 479 270 479 270 391 c 2,63,-1
 270 212 l 2,54,55
EndSplineSet
EndChar

StartChar: k2
Encoding: 115 3350 117
Width: 1111
GlyphClass: 2
Flags: W
LayerCount: 2
Back
Fore
SplineSet
285 202 m 2,0,1
 285 115 285 115 335.5 115 c 128,-1,2
 386 115 386 115 386 202 c 2,3,-1
 386 446 l 2,4,5
 386 536 386 536 335.5 536 c 128,-1,6
 285 536 285 536 285 446 c 2,7,-1
 285 202 l 2,0,1
645 753 m 2,8,9
 645 844 645 844 561 844 c 2,10,-1
 353 844 l 2,11,12
 285 844 285 844 285 757 c 2,13,-1
 285 641 l 1,14,15
 304.375 672 304.375 672 365 672 c 0,16,17
 549 672 549 672 549 460 c 2,18,-1
 549 202 l 2,19,20
 549 47 549 47 424 -3 c 0,21,22
 384 -19 384 -19 334 -19 c 128,-1,23
 284 -19 284 -19 242 -3 c 128,-1,24
 200 13 200 13 168.5 42 c 0,25,26
 102 103.222 102 103.222 102 202 c 2,27,-1
 102 767 l 2,28,29
 102 912 102 912 258 964 c 0,30,31
 303 979 303 979 353 979 c 2,32,-1
 561 979 l 2,33,34
 686 979 686 979 757 923 c 128,-1,35
 828 867 828 867 828 767 c 2,36,-1
 828 222 l 2,37,38
 828 155.455 828 155.455 785 132 c 1,39,-1
 927 132 l 1,40,-1
 927 965 l 1,41,-1
 1110 965 l 1,42,-1
 1110 0 l 1,43,-1
 593 0 l 1,44,-1
 593 123 l 1,45,46
 645 123 645 123 645 212 c 2,47,-1
 645 753 l 2,8,9
EndSplineSet
EndChar

StartChar: k3
Encoding: 116 3351 118
Width: 963
GlyphClass: 2
Flags: W
LayerCount: 2
Back
Fore
SplineSet
280 202 m 2,0,1
 280 115 280 115 357 115 c 128,-1,2
 434 115 434 115 434 212 c 2,3,-1
 434 774 l 2,4,5
 434 918.536 434 918.536 606.5 979 c 0,6,7
 655 996 655 996 703.5 996 c 128,-1,8
 752 996 752 996 798.5 979 c 128,-1,9
 845 962 845 962 881 932.5 c 0,10,11
 961 866.944 961 866.944 961 774 c 2,12,-1
 961 202 l 2,13,14
 961 -9 961 -9 693 -9 c 1,15,-1
 693 126 l 1,16,17
 779 126 779 126 779 214 c 2,18,-1
 779 773 l 2,19,20
 779 860 779 860 698 860 c 128,-1,21
 617 860 617 860 617 771 c 2,22,-1
 617 198 l 2,23,24
 617 50.9149 617 50.9149 452 -3.5 c 0,25,26
 405 -19 405 -19 355.5 -19 c 128,-1,27
 306 -19 306 -19 259.5 -4.5 c 128,-1,28
 213 10 213 10 177 37.5 c 0,29,30
 97 98.6111 97 98.6111 97 192 c 2,31,-1
 97 784 l 2,32,33
 97 996 97 996 377 996 c 1,34,-1
 377 860 l 1,35,36
 280 860 280 860 280 771 c 2,37,-1
 280 202 l 2,0,1
EndSplineSet
EndChar

StartChar: k4
Encoding: 117 3352 119
Width: 1540
GlyphClass: 2
Flags: W
LayerCount: 2
Back
Fore
SplineSet
605 562 m 2,0,1
 605 473.286 605 473.286 566 451 c 1,2,-1
 673 451 l 1,3,-1
 673 774 l 2,4,5
 673 922.74 673 922.74 845 979.5 c 0,6,7
 895 996 895 996 950.5 996 c 128,-1,8
 1006 996 1006 996 1056.5 979 c 128,-1,9
 1107 962 1107 962 1145.5 932.5 c 0,10,11
 1229 868.519 1229 868.519 1229 774 c 2,12,-1
 1229 317 l 1,13,-1
 856 317 l 1,14,-1
 856 132 l 1,15,-1
 1359 132 l 1,16,-1
 1359 969 l 1,17,-1
 1541 969 l 1,18,-1
 1541 0 l 1,19,-1
 673 0 l 1,20,-1
 673 319 l 1,21,-1
 368 319 l 1,22,-1
 368 442 l 1,23,24
 422 447.684 422 447.684 422 531 c 2,25,-1
 422 658 l 2,26,27
 422 747 422 747 351 747 c 128,-1,28
 280 747 280 747 280 658 c 2,29,-1
 280 533 l 2,30,31
 280 446.944 280 446.944 333 444 c 1,32,-1
 333 315 l 1,33,34
 161.583 315 161.583 315 112 434 c 0,35,36
 97 470 97 470 97 511 c 2,37,-1
 97 671 l 2,38,39
 97 816.804 97 816.804 254 868 c 0,40,41
 300 883 300 883 352 883 c 128,-1,42
 404 883 404 883 450 867.5 c 128,-1,43
 496 852 496 852 530.5 824.5 c 0,44,45
 605 765.116 605 765.116 605 671 c 2,46,-1
 605 562 l 2,0,1
856 761 m 2,47,-1
 856 449 l 1,48,-1
 1046 449 l 1,49,-1
 1046 761 l 2,50,51
 1046 826.171 1046 826.171 1009 843.086 c 128,-1,52
 972 860 972 860 940.5 860 c 128,-1,53
 909 860 909 860 882.5 831 c 128,-1,54
 856 802 856 802 856 761 c 2,47,-1
EndSplineSet
EndChar

StartChar: ng
Encoding: 118 3353 120
Width: 1204
GlyphClass: 2
Flags: W
LayerCount: 2
Back
Fore
SplineSet
1021 761 m 2,0,1
 1021 852 1021 852 916 852 c 128,-1,2
 811 852 811 852 811 745 c 2,3,-1
 811 0 l 1,4,-1
 628 0 l 1,5,-1
 628 747 l 2,6,7
 628 844 628 844 516 844 c 2,8,-1
 381 844 l 2,9,10
 280 844 280 844 280 755 c 2,11,-1
 280 653 l 1,12,13
 298 680 298 680 333.5 680 c 2,14,-1
 375 680 l 2,15,16
 550 680 550 680 550 468 c 2,17,-1
 550 202 l 2,18,19
 550 48.5122 550 48.5122 418 -3 c 0,20,21
 377 -19 377 -19 327 -19 c 128,-1,22
 277 -19 277 -19 235 -3 c 128,-1,23
 193 13 193 13 162.5 42 c 0,24,25
 97 104.279 97 104.279 97 202 c 2,26,-1
 97 755 l 2,27,28
 97 905.667 97 905.667 252 962.5 c 0,29,30
 297 979 297 979 346 979 c 2,31,-1
 562 979 l 2,32,33
 678.714 979 678.714 979 718 924 c 1,34,35
 788.161 999 788.161 999 882.581 999 c 128,-1,36
 977 999 977 999 1029.5 982 c 128,-1,37
 1082 965 1082 965 1121 935 c 0,38,39
 1204 871.154 1204 871.154 1204 774 c 2,40,-1
 1204 628 l 2,41,42
 1204 505.4 1204 505.4 1117 488 c 1,43,44
 1206.28 454.218 1206.28 454.218 1204.5 383 c 0,45,46
 1204 363 1204 363 1204 342 c 2,47,-1
 1204 200 l 2,48,49
 1204 53.9032 1204 53.9032 1055.5 6 c 0,50,51
 1009 -9 1009 -9 953 -9 c 2,52,-1
 874 -9 l 1,53,-1
 874 126 l 1,54,-1
 916 126 l 2,55,56
 1021 126 1021 126 1021 214 c 2,57,-1
 1021 321 l 2,58,59
 1021 408 1021 408 954 408 c 2,60,-1
 916 408 l 1,61,-1
 916 564 l 1,62,-1
 934 564 l 2,63,64
 1021 564 1021 564 1021 652 c 2,65,-1
 1021 761 l 2,0,1
280 202 m 2,66,67
 280 115 280 115 328.5 115 c 128,-1,68
 377 115 377 115 377 202 c 2,69,-1
 377 454 l 2,70,71
 377 544 377 544 328.5 544 c 128,-1,72
 280 544 280 544 280 454 c 2,73,-1
 280 202 l 2,66,67
EndSplineSet
EndChar

StartChar: ch1
Encoding: 119 3354 121
Width: 1060
GlyphClass: 2
Flags: W
LayerCount: 2
Back
Fore
SplineSet
705 309 m 2,0,1
 705 197 705 197 627 132 c 1,2,-1
 874 132 l 1,3,-1
 874 979 l 1,4,-1
 1057 979 l 1,5,-1
 1057 0 l 1,6,-1
 47 0 l 1,7,-1
 47 132 l 1,8,-1
 386 132 l 2,9,10
 480.13 132 480.13 132 512.5 224 c 0,11,12
 522 251 522 251 522 281 c 2,13,-1
 522 529 l 2,14,15
 522 616 522 616 434 616 c 0,16,17
 355 616 355 616 355 529 c 2,18,-1
 355 441 l 2,19,20
 355 361.333 355 361.333 419 356 c 1,21,-1
 419 221 l 1,22,23
 209.158 221 209.158 221 182 350 c 0,24,25
 174 388 174 388 174 429 c 2,26,-1
 174 542 l 2,27,28
 174 688.138 174 688.138 334 737.5 c 0,29,30
 381 752 381 752 434 752 c 128,-1,31
 487 752 487 752 536 738 c 128,-1,32
 585 724 585 724 622.5 697 c 0,33,34
 705 637.6 705 637.6 705 542 c 2,35,-1
 705 309 l 2,0,1
EndSplineSet
EndChar

StartChar: ch2
Encoding: 120 3355 122
Width: 1516
GlyphClass: 2
Flags: W
LayerCount: 2
Back
Fore
SplineSet
1234 202 m 2,0,1
 1234 115 1234 115 1282.5 115 c 128,-1,2
 1331 115 1331 115 1331 202 c 2,3,-1
 1331 484 l 2,4,5
 1331 574 1331 574 1282.5 574 c 128,-1,6
 1234 574 1234 574 1234 484 c 2,7,-1
 1234 202 l 2,0,1
839 132 m 1,8,9
 789 141.091 789 141.091 789 289 c 2,10,-1
 789 767 l 2,11,12
 789 979 789 979 1055 979 c 2,13,-1
 1283 979 l 2,14,15
 1440.41 979 1440.41 979 1496.5 854 c 0,16,17
 1514 815 1514 815 1514 767 c 2,18,-1
 1514 202 l 2,19,20
 1514 49.5714 1514 49.5714 1376 -3 c 0,21,22
 1334 -19 1334 -19 1284 -19 c 128,-1,23
 1234 -19 1234 -19 1193 -3 c 128,-1,24
 1152 13 1152 13 1122.5 42 c 0,25,26
 1061 102.458 1061 102.458 1061 202 c 2,27,-1
 1061 498 l 2,28,29
 1061 696.741 1061 696.741 1240 710 c 0,30,31
 1288.71 713.608 1288.71 713.608 1331 695 c 1,32,-1
 1331 767 l 2,33,34
 1331 844 1331 844 1263 844 c 2,35,-1
 1055 844 l 2,36,37
 971 844 971 844 971 753 c 2,38,-1
 971 212 l 2,39,40
 971 123 971 123 1026 123 c 1,41,-1
 1026 0 l 1,42,-1
 47 0 l 1,43,-1
 47 132 l 1,44,-1
 386 132 l 2,45,46
 480.13 132 480.13 132 512.5 224 c 0,47,48
 522 251 522 251 522 281 c 2,49,-1
 522 529 l 2,50,51
 522 616 522 616 438.5 616 c 128,-1,52
 355 616 355 616 355 529 c 2,53,-1
 355 441 l 2,54,55
 355 361.333 355 361.333 419 356 c 1,56,-1
 419 221 l 1,57,58
 209.158 221 209.158 221 182 350 c 0,59,60
 174 388 174 388 174 429 c 2,61,-1
 174 542 l 2,62,63
 174 688.138 174 688.138 334 737.5 c 0,64,65
 381 752 381 752 434 752 c 128,-1,66
 487 752 487 752 536 738 c 128,-1,67
 585 724 585 724 622.5 697 c 0,68,69
 705 637.6 705 637.6 705 542 c 2,70,-1
 705 309 l 2,71,72
 705 197 705 197 627 132 c 1,73,-1
 839 132 l 1,8,9
EndSplineSet
EndChar

StartChar: ch3
Encoding: 121 3356 123
Width: 1114
GlyphClass: 2
Flags: W
LayerCount: 2
Back
Fore
SplineSet
348 247 m 2,0,1
 278 247 278 247 278 184.5 c 128,-1,2
 278 122 278 122 348 122 c 0,3,4
 482.083 122 482.083 122 555 247 c 1,5,-1
 348 247 l 2,0,1
327 475 m 128,-1,7
 372 475 372 475 372 548 c 2,8,-1
 372 616 l 2,9,10
 372 689 372 689 327 689 c 128,-1,11
 282 689 282 689 282 609 c 2,12,-1
 282 555 l 2,13,6
 282 475 282 475 327 475 c 128,-1,7
975 181 m 128,-1,15
 975 213 975 213 952.5 235.5 c 128,-1,16
 930 258 930 258 898 258 c 128,-1,17
 866 258 866 258 843.5 235.5 c 128,-1,18
 821 213 821 213 821 181 c 128,-1,19
 821 149 821 149 843.5 126.5 c 128,-1,20
 866 104 866 104 898 104 c 128,-1,21
 930 104 930 104 952.5 126.5 c 128,-1,14
 975 149 975 149 975 181 c 128,-1,15
1039 361 m 1,22,23
 1132 310.78 1132 310.78 1132 228.89 c 128,-1,24
 1132 147 1132 147 1115 107 c 128,-1,25
 1098 67 1098 67 1068 38.5 c 128,-1,26
 1038 10 1038 10 997 -5.5 c 128,-1,27
 956 -21 956 -21 908 -21 c 128,-1,28
 860 -21 860 -21 820 -5.5 c 128,-1,29
 780 10 780 10 750.5 38.5 c 0,30,31
 689 97.9153 689 97.9153 689 152.458 c 128,-1,32
 689 207 689 207 692.5 218 c 128,-1,33
 696 229 696 229 697 241 c 1,34,35
 522.333 -21 522.333 -21 337 -21 c 0,36,37
 170.789 -21 170.789 -21 110 89 c 0,38,39
 89 127 89 127 89 172 c 128,-1,40
 89 217 89 217 103 248.5 c 128,-1,41
 117 280 117 280 141.5 303 c 0,42,43
 194.761 353 194.761 353 267 353 c 2,44,-1
 830 353 l 2,45,46
 891.955 353 891.955 353 919 438 c 0,47,48
 926 460 926 460 926 479 c 2,49,-1
 926 773 l 2,50,51
 926 862 926 862 837 862 c 128,-1,52
 748 862 748 862 748 779 c 2,53,-1
 748 374 l 1,54,-1
 595 374 l 1,55,-1
 595 759 l 2,56,57
 595 810.774 595 810.774 559.5 831.387 c 128,-1,58
 524 852 524 852 509 852 c 2,59,-1
 360 852 l 2,60,61
 314.4 852 314.4 852 298.2 825 c 128,-1,62
 282 798 282 798 282 783 c 2,63,-1
 282 750 l 1,64,65
 302.087 783 302.087 783 374 783 c 0,66,67
 534 783 534 783 534 633 c 2,68,-1
 534 527 l 2,69,70
 534 434.28 534 434.28 446 385 c 0,71,72
 421 371 421 371 394 371 c 2,73,-1
 264 371 l 2,74,75
 162.556 371 162.556 371 113 482.5 c 0,76,77
 99 514 99 514 99 547 c 2,78,-1
 99 777 l 2,79,80
 99 926 99 926 253 975 c 0,81,82
 297 989 297 989 342 989 c 2,83,-1
 509 989 l 2,84,85
 621.325 989 621.325 989 667 926 c 1,86,87
 710.8 999 710.8 999 814.4 999 c 128,-1,88
 918 999 918 999 963 984.5 c 128,-1,89
 1008 970 1008 970 1040.5 941.5 c 0,90,91
 1109 881.431 1109 881.431 1109 767 c 2,92,-1
 1109 489 l 2,93,94
 1109 421 1109 421 1039 361 c 1,22,23
EndSplineSet
EndChar

StartChar: ch4
Encoding: 122 3357 124
Width: 1864
GlyphClass: 2
Flags: W
LayerCount: 2
Back
Fore
SplineSet
1396 58 m 1,0,1
 1346.62 -21.0088 1346.62 -21.0088 1252.81 -20.0044 c 128,-1,2
 1159 -19 1159 -19 1120 -2.5 c 128,-1,3
 1081 14 1081 14 1052 43 c 0,4,5
 990 105 990 105 990 202 c 2,6,-1
 990 753 l 2,7,8
 990 794 990 794 966 818 c 128,-1,9
 942 842 942 842 914 842 c 2,10,-1
 850 842 l 1,11,12
 901 804.6 901 804.6 901 727 c 2,13,-1
 901 202 l 2,14,15
 901 47.383 901 47.383 753 -3 c 0,16,17
 706 -19 706 -19 647.5 -19 c 128,-1,18
 589 -19 589 -19 540.5 -3 c 128,-1,19
 492 13 492 13 457 42 c 0,20,21
 383 103.314 383 103.314 383 202 c 2,22,-1
 383 727 l 2,23,24
 383 814.889 383 814.889 444 842 c 1,25,-1
 356 842 l 2,26,27
 328 842 328 842 304 818 c 128,-1,28
 280 794 280 794 280 753 c 2,29,-1
 280 220 l 2,30,31
 280 130 280 130 348 130 c 1,32,-1
 348 -3 l 1,33,34
 171.308 -3 171.308 -3 115 119 c 0,35,36
 97 158 97 158 97 208 c 2,37,-1
 97 767 l 2,38,39
 97 911.581 97 911.581 259.5 964 c 0,40,41
 306 979 306 979 356 979 c 0,42,43
 441 979 441 979 523.857 979 c 128,-1,44
 606.714 979 606.714 979 648 928 c 1,45,46
 682 979 682 979 751.5 979 c 2,47,-1
 914 979 l 2,48,49
 1080.49 979 1080.49 979 1151 854 c 0,50,51
 1173 815 1173 815 1173 767 c 2,52,-1
 1173 214 l 2,53,54
 1173 116 1173 116 1234.39 116 c 128,-1,55
 1295.78 116 1295.78 116 1306 208 c 1,56,-1
 1306 969 l 1,57,-1
 1489 969 l 1,58,-1
 1489 208 l 1,59,60
 1499.22 116 1499.22 116 1575 116 c 0,61,62
 1661 116 1661 116 1661 214 c 2,63,-1
 1661 762 l 2,64,65
 1661 854.32 1661 854.32 1578 851 c 1,66,-1
 1578 985 l 1,67,68
 1756.81 985 1756.81 985 1823 860.5 c 0,69,70
 1844 821 1844 821 1844 773 c 2,71,-1
 1844 202 l 2,72,73
 1844 51.4719 1844 51.4719 1692.5 -3 c 0,74,75
 1648 -19 1648 -19 1547.67 -19 c 128,-1,76
 1447.33 -19 1447.33 -19 1396 58 c 1,0,1
646 802 m 1,77,78
 566 792 566 792 566 710 c 2,79,-1
 566 212 l 2,80,81
 566 115 566 115 643 115 c 128,-1,82
 720 115 720 115 720 212 c 2,83,-1
 720 710 l 2,84,85
 720 786.583 720 786.583 646 802 c 1,77,78
EndSplineSet
EndChar

StartChar: nj
Encoding: 123 3358 125
Width: 1720
GlyphClass: 2
Flags: W
LayerCount: 2
Back
Fore
SplineSet
710 915 m 1,0,1
 761.81 979 761.81 979 883 979 c 0,2,3
 955.5 979 955.5 979 1045.25 979 c 128,-1,4
 1135 979 1135 979 1169 928 c 1,5,6
 1210.29 979 1210.29 979 1262.64 979 c 2,7,-1
 1461 979 l 2,8,9
 1627.49 979 1627.49 979 1698 854 c 0,10,11
 1720 815 1720 815 1720 767 c 2,12,-1
 1720 202 l 2,13,14
 1720 -9 1720 -9 1469 -9 c 1,15,-1
 1469 124 l 1,16,17
 1537 124 1537 124 1537 214 c 2,18,-1
 1537 753 l 2,19,20
 1537 794 1537 794 1513 818 c 128,-1,21
 1489 842 1489 842 1461 842 c 2,22,-1
 1374 842 l 1,23,24
 1434 815.333 1434 815.333 1434 737 c 2,25,-1
 1434 202 l 2,26,27
 1434 48.5918 1434 48.5918 1276 -3 c 0,28,29
 1227 -19 1227 -19 1169 -19 c 128,-1,30
 1111 -19 1111 -19 1064 -3 c 128,-1,31
 1017 13 1017 13 984 42 c 0,32,33
 916 101.758 916 101.758 916 202 c 2,34,-1
 916 737 l 2,35,36
 916 803.31 916 803.31 967 842 c 1,37,-1
 883 842 l 2,38,39
 817.417 842 817.417 842 807 767 c 1,40,-1
 807 0 l 1,41,-1
 625 0 l 1,42,-1
 625 749 l 2,43,44
 625 844 625 844 500 844 c 1,45,-1
 391 846 l 2,46,47
 278 848.354 278 848.354 278 757 c 2,48,-1
 278 646 l 1,49,50
 299.75 675 299.75 675 334.375 675 c 2,51,-1
 377 675 l 2,52,53
 545 675 545 675 545 463 c 2,54,-1
 545 202 l 2,55,56
 545 47.3704 545 47.3704 417.5 -3 c 0,57,58
 377 -19 377 -19 327 -19 c 128,-1,59
 277 -19 277 -19 235 -4.5 c 128,-1,60
 193 10 193 10 162.5 37 c 0,61,62
 97 94.9836 97 94.9836 97 192 c 2,63,-1
 97 767 l 2,64,65
 97 912.333 97 912.333 252 964 c 0,66,67
 297 979 297 979 346 979 c 2,68,-1
 529 979 l 2,69,70
 665.2 979 665.2 979 710 915 c 1,0,1
268 212 m 2,71,72
 268 115 268 115 316.5 115 c 128,-1,73
 365 115 365 115 365 212 c 2,74,-1
 365 449 l 2,75,76
 365 539 365 539 316.5 539 c 128,-1,77
 268 539 268 539 268 449 c 2,78,-1
 268 212 l 2,71,72
1097 212 m 2,79,80
 1097 115 1097 115 1174 115 c 128,-1,81
 1251 115 1251 115 1251 212 c 2,82,-1
 1251 700 l 2,83,84
 1251 783.592 1251 783.592 1169 802 c 1,85,86
 1097 779.846 1097 779.846 1097 700 c 2,87,-1
 1097 212 l 2,79,80
EndSplineSet
EndChar

StartChar: t1
Encoding: 124 3359 126
Width: 681
GlyphClass: 2
Flags: W
LayerCount: 2
Back
Fore
SplineSet
307 773 m 2,0,-1
 307 648 l 2,1,2
 307 565 307 565 389 556 c 1,3,4
 581.577 556 581.577 556 657.5 430 c 0,5,6
 681 391 681 391 681 344 c 2,7,-1
 681 202 l 2,8,9
 681 51.6415 681 51.6415 500 -3 c 0,10,11
 447 -19 447 -19 388.5 -19 c 128,-1,12
 330 -19 330 -19 277.5 -3 c 128,-1,13
 225 13 225 13 184.5 42.5 c 0,14,15
 97 106.235 97 106.235 97 202 c 2,16,-1
 97 331 l 1,17,-1
 297 331 l 1,18,-1
 297 204 l 2,19,20
 297 116 297 116 384 116 c 128,-1,21
 471 116 471 116 471 204 c 2,22,-1
 471 322 l 2,23,24
 471 402.25 471 402.25 385 413 c 1,25,26
 195.815 413 195.815 413 120 546.5 c 0,27,28
 97 587 97 587 97 634 c 2,29,-1
 97 774 l 2,30,31
 97 922.552 97 922.552 277.5 981 c 0,32,33
 330 998 330 998 388.5 998 c 128,-1,34
 447 998 447 998 500 981 c 128,-1,35
 553 964 553 964 593.5 934 c 0,36,37
 681 869.185 681 869.185 681 774 c 2,38,-1
 681 646 l 1,39,-1
 481 646 l 1,40,-1
 481 773 l 2,41,42
 481 862 481 862 394 862 c 128,-1,43
 307 862 307 862 307 773 c 2,0,-1
EndSplineSet
EndChar

StartChar: t2
Encoding: 125 3360 127
Width: 654
GlyphClass: 2
Flags: W
LayerCount: 2
Back
Fore
SplineSet
654 774 m 2,0,-1
 654 202 l 2,1,2
 654 51.2745 654 51.2745 481 -3 c 0,3,4
 430 -19 430 -19 375 -19 c 128,-1,5
 320 -19 320 -19 269.5 -3 c 128,-1,6
 219 13 219 13 181 42.5 c 0,7,8
 97 107.711 97 107.711 97 202 c 2,9,-1
 97 774 l 2,10,11
 97 924.931 97 924.931 269.5 983 c 0,12,13
 320 1000 320 1000 375 1000 c 128,-1,14
 430 1000 430 1000 481 982.5 c 128,-1,15
 532 965 532 965 570 934.5 c 0,16,17
 654 867.079 654 867.079 654 774 c 2,0,-1
280 202 m 2,18,19
 280 115 280 115 375.5 115 c 128,-1,20
 471 115 471 115 471 202 c 2,21,-1
 471 765 l 2,22,23
 471 806 471 806 444 835 c 128,-1,24
 417 864 417 864 385.5 864 c 128,-1,25
 354 864 354 864 336.5 856 c 128,-1,26
 319 848 319 848 306.5 834.5 c 0,27,28
 280 805.88 280 805.88 280 765 c 2,29,-1
 280 202 l 2,18,19
EndSplineSet
EndChar

StartChar: t3
Encoding: 126 3361 128
Width: 1306
GlyphClass: 2
Flags: W
LayerCount: 2
Back
Fore
SplineSet
280 214 m 2,0,1
 280 126 280 126 360 126 c 1,2,-1
 360 -9 l 1,3,4
 180.077 -9 180.077 -9 117 114 c 0,5,6
 97 153 97 153 97 202 c 2,7,-1
 97 774 l 2,8,9
 97 924.086 97 924.086 259.5 980 c 0,10,11
 306 996 306 996 355.5 996 c 128,-1,12
 405 996 405 996 452 979 c 128,-1,13
 499 962 499 962 535 932 c 0,14,15
 615 865.333 615 865.333 615 767 c 2,16,-1
 615 214 l 2,17,18
 615 116 615 116 686 116 c 1,19,20
 746.469 117.779 746.469 117.779 759 208 c 1,21,-1
 759 971 l 1,22,-1
 941 971 l 1,23,-1
 941 208 l 1,24,25
 951.721 111.511 951.721 111.511 1037 116 c 0,26,27
 1123 120.526 1123 120.526 1123 214 c 2,28,-1
 1123 768 l 2,29,30
 1123 853 1123 853 1055 853 c 1,31,-1
 1055 988 l 1,32,33
 1306 988 1306 988 1306 779 c 2,34,-1
 1306 192 l 2,35,36
 1306 43.6667 1306 43.6667 1161.5 -4.5 c 0,37,38
 1118 -19 1118 -19 1009.21 -19 c 128,-1,39
 900.423 -19 900.423 -19 850 50 c 1,40,41
 802.231 -19 802.231 -19 703.615 -19 c 128,-1,42
 605 -19 605 -19 565 -4.5 c 128,-1,43
 525 10 525 10 495.5 37.5 c 0,44,45
 432 96.6949 432 96.6949 432 192 c 2,46,-1
 432 753 l 2,47,48
 432 862 432 862 356 862 c 128,-1,49
 280 862 280 862 280 763 c 2,50,-1
 280 214 l 2,0,1
EndSplineSet
EndChar

StartChar: t4
Encoding: 127 3362 129
Width: 1452
GlyphClass: 2
Flags: W
LayerCount: 2
Back
Fore
SplineSet
1016 776 m 2,0,1
 1016 998 1016 998 1219 998 c 0,2,3
 1376.61 998 1376.61 998 1435 865 c 0,4,5
 1453 824 1453 824 1453 776 c 2,6,-1
 1453 228 l 2,7,8
 1453 71.3793 1453 71.3793 1307.5 9.5 c 0,9,10
 1264 -9 1264 -9 1214 -9 c 2,11,-1
 1039 -9 l 2,12,13
 909.359 -9 909.359 -9 864 52 c 1,14,15
 813.818 -17 813.818 -17 719.909 -17 c 128,-1,16
 626 -17 626 -17 583 -4 c 128,-1,17
 540 9 540 9 507 34 c 0,18,19
 434 89.303 434 89.303 434 182 c 2,20,-1
 434 763 l 2,21,22
 434 862 434 862 356 862 c 0,23,24
 327 862 327 862 303.5 837.5 c 128,-1,25
 280 813 280 813 280 773 c 2,26,-1
 280 208 l 2,27,28
 280 124 280 124 360 124 c 1,29,-1
 360 -11 l 1,30,31
 179.078 -11 179.078 -11 117 108.5 c 0,32,33
 97 147 97 147 97 196 c 2,34,-1
 97 774 l 2,35,36
 97 919.591 97 919.591 259.5 979 c 0,37,38
 306 996 306 996 355.5 996 c 128,-1,39
 405 996 405 996 452 979 c 128,-1,40
 499 962 499 962 536 931.5 c 0,41,42
 617 864.73 617 864.73 617 767 c 2,43,-1
 617 214 l 2,44,45
 617 126 617 126 687.306 126 c 128,-1,46
 757.611 126 757.611 126 769 208 c 1,47,-1
 769 966 l 1,48,-1
 951 966 l 1,49,-1
 951 218 l 1,50,51
 957.631 158.321 957.631 158.321 991.815 140.161 c 128,-1,52
 1026 122 1026 122 1045 122 c 2,53,-1
 1187 122 l 2,54,55
 1270 122 1270 122 1270 242 c 2,56,-1
 1270 394 l 1,57,58
 1253.17 372.584 1253.17 372.584 1179.59 370.792 c 128,-1,59
 1106 369 1106 369 1061 426 c 128,-1,60
 1016 483 1016 483 1016 583 c 2,61,-1
 1016 776 l 2,0,1
1270 765 m 2,62,63
 1270 864 1270 864 1218.5 864 c 128,-1,64
 1167 864 1167 864 1167 765 c 2,65,-1
 1167 596 l 2,66,67
 1167 507 1167 507 1218.5 507 c 128,-1,68
 1270 507 1270 507 1270 596 c 2,69,-1
 1270 765 l 2,62,63
EndSplineSet
EndChar

StartChar: nh
Encoding: 128 3363 130
Width: 1496
GlyphClass: 2
Flags: W
LayerCount: 2
Back
Fore
SplineSet
327 672 m 0,0,1
 548 672 548 672 548 470 c 2,2,-1
 548 202 l 2,3,4
 548 47.7317 548 47.7317 418 -3 c 0,5,6
 377 -19 377 -19 327 -19 c 128,-1,7
 277 -19 277 -19 235 -3 c 128,-1,8
 193 13 193 13 162.5 42 c 0,9,10
 97 104.279 97 104.279 97 202 c 2,11,-1
 97 767 l 2,12,13
 97 912.333 97 912.333 252 964 c 0,14,15
 297 979 297 979 346 979 c 2,16,-1
 529 979 l 2,17,18
 631 979 631 979 708 930 c 1,19,20
 765.826 1000 765.826 1000 875.972 1000 c 128,-1,21
 986.118 1000 986.118 1000 1059 941 c 1,22,23
 1109.57 1000 1109.57 1000 1198.79 1000 c 128,-1,24
 1288 1000 1288 1000 1337.5 983 c 128,-1,25
 1387 966 1387 966 1423 935.5 c 0,26,27
 1499 871.111 1499 871.111 1499 774 c 2,28,-1
 1499 199 l 2,29,30
 1499 62.6341 1499 62.6341 1359 8 c 0,31,32
 1318 -8 1318 -8 1267.5 -8 c 2,33,-1
 1217 -8 l 1,34,-1
 1217 125 l 1,35,36
 1316 125 1316 125 1316 209 c 2,37,-1
 1316 775 l 2,38,39
 1316 860 1316 860 1235.35 860 c 128,-1,40
 1154.69 860 1154.69 860 1144 783 c 1,41,-1
 1144 0 l 1,42,-1
 971 0 l 1,43,-1
 971 783 l 1,44,45
 960.588 864.217 960.588 864.217 883.858 863.108 c 128,-1,46
 807.128 862 807.128 862 797 783 c 1,47,-1
 797 0 l 1,48,-1
 625 0 l 1,49,-1
 625 749 l 2,50,51
 625 844 625 844 523 844 c 2,52,-1
 346 844 l 2,53,54
 280 844 280 844 280 757 c 2,55,-1
 280 664 l 1,56,57
 296 672 296 672 327 672 c 0,0,1
280 202 m 2,58,59
 280 115 280 115 327.5 115 c 128,-1,60
 375 115 375 115 375 202 c 2,61,-1
 375 446 l 2,62,63
 375 536 375 536 327.5 536 c 128,-1,64
 280 536 280 536 280 446 c 2,65,-1
 280 202 l 2,58,59
EndSplineSet
EndChar

StartChar: th1
Encoding: 129 3364 131
Width: 1193
GlyphClass: 2
Flags: W
LayerCount: 2
Back
Fore
SplineSet
930 125 m 1,0,1
 1010 125 1010 125 1010 215 c 2,2,-1
 1010 753 l 2,3,4
 1010 794 1010 794 986 818 c 128,-1,5
 962 842 962 842 934 842 c 2,6,-1
 840 842 l 1,7,8
 895 801.667 895 801.667 895 716 c 2,9,-1
 895 202 l 2,10,11
 895 46.7391 895 46.7391 752 -3 c 0,12,13
 706 -19 706 -19 647.5 -19 c 128,-1,14
 589 -19 589 -19 541 -3 c 128,-1,15
 493 13 493 13 459 42 c 0,16,17
 387 103.412 387 103.412 387 202 c 2,18,-1
 387 716 l 2,19,20
 387 812.222 387 812.222 454 842 c 1,21,-1
 356 842 l 2,22,23
 328 842 328 842 304 818 c 128,-1,24
 280 794 280 794 280 753 c 2,25,-1
 280 213 l 2,26,27
 280 123 280 123 348 123 c 1,28,-1
 348 -10 l 1,29,30
 171.308 -10 171.308 -10 115 112 c 0,31,32
 97 151 97 151 97 201 c 2,33,-1
 97 757 l 2,34,35
 97 905.086 97 905.086 259.5 961 c 0,36,37
 306 977 306 977 356 977 c 2,38,-1
 475 977 l 2,39,40
 588 977 588 977 648 926 c 1,41,42
 707.5 977 707.5 977 836 977 c 2,43,-1
 934 977 l 2,44,45
 1102.18 977 1102.18 977 1171 855 c 0,46,47
 1193 816 1193 816 1193 767 c 2,48,-1
 1193 193 l 2,49,50
 1193 -8 1193 -8 930 -8 c 1,51,-1
 930 125 l 1,0,1
646 802 m 1,52,53
 566 792 566 792 566 700 c 2,54,-1
 566 212 l 2,55,56
 566 115 566 115 643 115 c 128,-1,57
 720 115 720 115 720 212 c 2,58,-1
 720 700 l 2,59,60
 720 786.583 720 786.583 646 802 c 1,52,53
EndSplineSet
EndChar

StartChar: th2
Encoding: 130 3365 132
Width: 998
GlyphClass: 2
Flags: W
LayerCount: 2
Back
Fore
SplineSet
280 132 m 1,0,-1
 442 132 l 1,1,-1
 442 784 l 2,2,3
 442 928.96 442 928.96 614 984 c 0,4,5
 664 1000 664 1000 719.5 1000 c 128,-1,6
 775 1000 775 1000 825.5 984.5 c 128,-1,7
 876 969 876 969 914.5 940.5 c 0,8,9
 998 878.688 998 878.688 998 784 c 2,10,-1
 998 0 l 1,11,-1
 97 0 l 1,12,-1
 97 964 l 1,13,-1
 280 964 l 1,14,-1
 280 132 l 1,0,-1
720 864 m 0,15,16
 625 864 625 864 625 765 c 2,17,-1
 625 132 l 1,18,-1
 815 132 l 1,19,-1
 815 765 l 2,20,21
 815 829.714 815 829.714 777.5 846.857 c 128,-1,22
 740 864 740 864 720 864 c 0,15,16
EndSplineSet
EndChar

StartChar: th3
Encoding: 131 3366 133
Width: 720
GlyphClass: 2
Flags: W
LayerCount: 2
Back
Fore
SplineSet
432 128 m 2,0,1
 539 128 539 128 539 216 c 2,2,-1
 539 326 l 2,3,4
 539 413 539 413 449 413 c 2,5,-1
 390 413 l 1,6,-1
 390 564 l 1,7,-1
 430 564 l 2,8,9
 539 564 539 564 539 652 c 2,10,-1
 539 746 l 2,11,12
 539 855 539 855 409.5 855 c 128,-1,13
 280 855 280 855 280 758 c 2,14,-1
 280 0 l 1,15,-1
 97 0 l 1,16,-1
 97 764 l 2,17,18
 97 932.518 97 932.518 285 985.5 c 0,19,20
 340 1001 340 1001 400 1001 c 128,-1,21
 460 1001 460 1001 517 988 c 128,-1,22
 574 975 574 975 619 948.5 c 0,23,24
 720 889.022 720 889.022 720 784 c 2,25,-1
 720 628 l 2,26,27
 720 524.259 720 524.259 631 488 c 1,28,29
 720 458.333 720 458.333 720 342 c 2,30,-1
 720 202 l 2,31,32
 720 55.9348 720 55.9348 573 8 c 0,33,34
 527 -7 527 -7 471 -7 c 2,35,-1
 339 -7 l 1,36,-1
 339 128 l 1,37,-1
 432 128 l 2,0,1
EndSplineSet
EndChar

StartChar: th4
Encoding: 132 3367 134
Width: 946
GlyphClass: 2
Flags: W
LayerCount: 2
Back
Fore
SplineSet
278 204 m 2,0,1
 278 117 278 117 356 117 c 128,-1,2
 434 117 434 117 434 204 c 2,3,-1
 434 963 l 1,4,-1
 608 963 l 1,5,-1
 608 204 l 2,6,7
 608 117 608 117 686.5 117 c 128,-1,8
 765 117 765 117 765 204 c 2,9,-1
 765 765 l 2,10,11
 765 852 765 852 695 852 c 1,12,-1
 695 987 l 1,13,14
 872.56 987 872.56 987 928 871.5 c 0,15,16
 946 834 946 834 946 787 c 2,17,-1
 946 192 l 2,18,19
 946 47.7303 946 47.7303 795.5 -3 c 0,20,21
 751 -18 751 -18 655.026 -18 c 128,-1,22
 559.053 -18 559.053 -18 518 47 c 1,23,24
 476.947 -18 476.947 -18 377.974 -18 c 128,-1,25
 279 -18 279 -18 236.5 -2.5 c 128,-1,26
 194 13 194 13 163 41 c 0,27,28
 97 100.613 97 100.613 97 192 c 2,29,-1
 97 787 l 2,30,31
 97 987 97 987 350 987 c 1,32,-1
 350 852 l 1,33,34
 278 852 278 852 278 765 c 2,35,-1
 278 204 l 2,0,1
EndSplineSet
EndChar

StartChar: n1
Encoding: 133 3368 135
Width: 946
GlyphClass: 2
Flags: W
LayerCount: 2
Back
Fore
SplineSet
695 124 m 1,0,1
 765 124 765 124 765 212 c 2,2,-1
 765 784 l 2,3,4
 765 833.444 765 833.444 734 847.222 c 128,-1,5
 703 861 703 861 689 861 c 128,-1,6
 675 861 675 861 660 856 c 128,-1,7
 645 851 645 851 632 841.5 c 0,8,9
 603 820.308 603 820.308 603 790 c 2,10,-1
 603 0 l 1,11,-1
 440 0 l 1,12,-1
 440 791 l 2,13,14
 440 862 440 862 364 862 c 0,15,16
 312.286 862 312.286 862 295.143 832 c 128,-1,17
 278 802 278 802 278 785 c 2,18,-1
 278 213 l 2,19,20
 278 125 278 125 350 125 c 1,21,-1
 350 -8 l 1,22,23
 173.403 -8 173.403 -8 115.5 112.5 c 0,24,25
 97 151 97 151 97 201 c 2,26,-1
 97 780 l 2,27,28
 97 930.73 97 930.73 248.5 983.5 c 0,29,30
 293 999 293 999 379.595 999 c 128,-1,31
 466.19 999 466.19 999 518 935 c 1,32,33
 570.043 998 570.043 998 660.522 998 c 128,-1,34
 751 998 751 998 795.5 982 c 128,-1,35
 840 966 840 966 873.5 937 c 0,36,37
 946 874.239 946 874.239 946 780 c 2,38,-1
 946 200 l 2,39,40
 946 53.9032 946 53.9032 797.5 6 c 0,41,42
 751 -9 751 -9 695 -9 c 1,43,-1
 695 124 l 1,0,1
EndSplineSet
EndChar

StartChar: p1
Encoding: 134 3370 136
Width: 1008
GlyphClass: 2
Flags: W
LayerCount: 2
Back
Fore
SplineSet
617 248 m 2,0,1
 617 160.286 617 160.286 573 132 c 1,2,-1
 825 132 l 1,3,-1
 825 973 l 1,4,-1
 1008 973 l 1,5,-1
 1008 0 l 1,6,-1
 377 0 l 1,7,-1
 377 123 l 1,8,9
 434 132.5 434 132.5 434 212 c 2,10,-1
 434 454 l 2,11,12
 434 542 434 542 356 542 c 128,-1,13
 278 542 278 542 278 454 c 2,14,-1
 278 214 l 2,15,16
 278 125.647 278 125.647 323 123 c 1,17,-1
 323 -3 l 1,18,19
 97 -3 97 -3 97 202 c 2,20,-1
 97 468 l 2,21,22
 97 614.138 97 614.138 257 663.5 c 0,23,24
 304 678 304 678 356 678 c 128,-1,25
 408 678 408 678 455.5 663 c 128,-1,26
 503 648 503 648 539 620.5 c 0,27,28
 617 560.917 617 560.917 617 468 c 2,29,-1
 617 248 l 2,0,1
EndSplineSet
EndChar

StartChar: p2
Encoding: 135 3371 137
Width: 1259
GlyphClass: 2
Flags: W
LayerCount: 2
Back
Fore
SplineSet
617 214 m 2,0,1
 617 165.545 617 165.545 576 132 c 1,2,-1
 704 132 l 1,3,-1
 704 770 l 2,4,5
 704 921.515 704 921.515 876.5 983 c 0,6,7
 927 1001 927 1001 982.5 1001 c 128,-1,8
 1038 1001 1038 1001 1088 983.5 c 128,-1,9
 1138 966 1138 966 1176 935 c 0,10,11
 1259 867.289 1259 867.289 1259 770 c 2,12,-1
 1259 0 l 1,13,-1
 379 0 l 1,14,-1
 379 125 l 1,15,16
 436 125 436 125 436 212 c 2,17,-1
 436 454 l 2,18,19
 436 542 436 542 358 542 c 128,-1,20
 280 542 280 542 280 454 c 2,21,-1
 280 214 l 2,22,23
 280 125 280 125 337 125 c 1,24,-1
 337 -3 l 1,25,26
 158.676 -3 158.676 -3 111 123 c 0,27,28
 97 160 97 160 97 202 c 2,29,-1
 97 468 l 2,30,31
 97 613.83 97 613.83 258 663.5 c 0,32,33
 305 678 305 678 357.5 678 c 128,-1,34
 410 678 410 678 457.5 663 c 128,-1,35
 505 648 505 648 540 620.5 c 0,36,37
 617 560 617 560 617 468 c 2,38,-1
 617 214 l 2,0,1
1076 777 m 2,39,40
 1076 864 1076 864 981.5 864 c 128,-1,41
 887 864 887 864 887 777 c 2,42,-1
 887 132 l 1,43,-1
 1076 132 l 1,44,-1
 1076 777 l 2,39,40
EndSplineSet
EndChar

StartChar: p3
Encoding: 136 3372 138
Width: 1443
GlyphClass: 2
Flags: W
LayerCount: 2
Back
Fore
SplineSet
271 202 m 2,0,1
 271 115 271 115 319 115 c 128,-1,2
 367 115 367 115 367 202 c 2,3,-1
 367 447 l 2,4,5
 367 535 367 535 319 535 c 128,-1,6
 271 535 271 535 271 447 c 2,7,-1
 271 202 l 2,0,1
1135 267 m 2,8,9
 1135 170.5 1135 170.5 1079 132 c 1,10,-1
 1258 132 l 1,11,-1
 1258 965 l 1,12,-1
 1439 965 l 1,13,-1
 1439 0 l 1,14,-1
 845 0 l 1,15,-1
 845 132 l 1,16,-1
 878 132 l 2,17,18
 954 132 954 132 954 220 c 2,19,-1
 954 753 l 2,20,21
 954 842 954 842 861.5 842 c 128,-1,22
 769 842 769 842 769 759 c 2,23,-1
 769 0 l 1,24,-1
 596 0 l 1,25,-1
 596 753 l 2,26,27
 596 843 596 843 509 843 c 2,28,-1
 366 843 l 2,29,30
 311.387 843 311.387 843 294.694 808.5 c 128,-1,31
 278 774 278 774 278 757 c 2,32,-1
 278 654 l 1,33,34
 314.273 675 314.273 675 362 675 c 0,35,36
 534 675 534 675 534 461 c 2,37,-1
 534 190 l 2,38,39
 534 -19 534 -19 325 -19 c 0,40,41
 168.346 -19 168.346 -19 114.5 101 c 0,42,43
 97 140 97 140 97 190 c 2,44,-1
 97 767 l 2,45,46
 97 913.135 97 913.135 255.5 963 c 0,47,48
 300 977 300 977 346 977 c 2,49,-1
 523 977 l 2,50,51
 630.429 977 630.429 977 682 920 c 1,52,53
 733.667 982 733.667 982 821.333 982 c 128,-1,54
 909 982 909 982 956.5 971 c 128,-1,55
 1004 960 1004 960 1044 937 c 0,56,57
 1135 884.675 1135 884.675 1135 788 c 2,58,-1
 1135 267 l 2,8,9
EndSplineSet
EndChar

StartChar: p4
Encoding: 137 3373 139
Width: 800
GlyphClass: 2
Flags: W
LayerCount: 2
Back
Fore
SplineSet
553 533 m 2,0,1
 512 533 512 533 512 482.5 c 128,-1,2
 512 432 512 432 563 432 c 128,-1,3
 614 432 614 432 659 425 c 128,-1,4
 704 418 704 418 734 396.5 c 0,5,6
 794 353.5 794 353.5 794 257.75 c 128,-1,7
 794 162 794 162 781 118 c 128,-1,8
 768 74 768 74 739.5 47.5 c 0,9,10
 688.415 4.69269e-06 688.415 4.69269e-06 554 0 c 2,11,-1
 352 0 l 1,12,-1
 352 134 l 1,13,-1
 554 134 l 2,14,15
 619 134 619 134 619 217.845 c 128,-1,16
 619 301.691 619 301.691 517.5 298 c 0,17,18
 490 297 490 297 460.5 297 c 128,-1,19
 431 297 431 297 405 315 c 128,-1,20
 379 333 379 333 361 360.5 c 0,21,22
 325 415.5 325 415.5 325 464.75 c 128,-1,23
 325 514 325 514 334.5 547 c 128,-1,24
 344 580 344 580 363 607 c 0,25,26
 406.63 669 406.63 669 452.815 669 c 2,27,-1
 524.5 669 l 2,28,29
 613 669 613 669 613 751.5 c 128,-1,30
 613 834 613 834 523 834 c 2,31,-1
 376 834 l 2,32,33
 280 834 280 834 280 736 c 2,34,-1
 280 0 l 1,35,-1
 97 0 l 1,36,-1
 97 748 l 2,37,38
 97 909 97 909 277 963 c 0,39,40
 327 978 327 978 378 978 c 2,41,-1
 543 978 l 2,42,43
 718.523 978 718.523 978 782 845 c 0,44,45
 803 801 803 801 803 749.5 c 128,-1,46
 803 698 803 698 791 660 c 128,-1,47
 779 622 779 622 755.5 594 c 0,48,49
 704.304 533 704.304 533 620 533 c 2,50,-1
 553 533 l 2,0,1
EndSplineSet
EndChar

StartChar: m1
Encoding: 138 3374 140
Width: 802
GlyphClass: 2
Flags: W
LayerCount: 2
Back
Fore
SplineSet
283 132 m 1,0,-1
 328 132 l 1,1,2
 352.607 152.264 352.607 152.264 357 194 c 1,3,-1
 382 528 l 2,4,5
 388.556 624.149 388.556 624.149 332 630 c 0,6,7
 303 633 303 633 283 609 c 1,8,-1
 283 132 l 1,0,-1
616 697 m 2,9,10
 616 781.757 616 781.757 578 805.378 c 128,-1,11
 540 829 540 829 516 829 c 2,12,-1
 377 829 l 2,13,14
 329.448 829 329.448 829 314.724 798.5 c 128,-1,15
 300 768 300 768 293 752 c 1,16,17
 318 767 318 767 359 767 c 128,-1,18
 400 767 400 767 436.5 748.5 c 128,-1,19
 473 730 473 730 498.5 698 c 0,20,21
 553.121 629.456 553.121 629.456 545 532 c 2,22,-1
 516 190 l 2,23,24
 514.005 156.077 514.005 156.077 495 133 c 1,25,-1
 616 132 l 1,26,-1
 616 697 l 2,9,10
799 0 m 1,27,-1
 100 0 l 1,28,-1
 100 729 l 2,29,30
 100 894.723 100 894.723 259 959 c 0,31,32
 306 978 306 978 359 978 c 2,33,-1
 554 978 l 2,34,35
 716.319 978 716.319 978 780 825.5 c 0,36,37
 799 780 799 780 799 729 c 2,38,-1
 799 0 l 1,27,-1
EndSplineSet
EndChar

StartChar: y1
Encoding: 139 3375 141
Width: 1233
GlyphClass: 2
Flags: W
LayerCount: 2
Back
Fore
SplineSet
693 49 m 1,0,1
 653.333 -2.48142e-05 653.333 -2.48142e-05 605.167 -1.24071e-05 c 128,-1,2
 557 0 557 0 530 0 c 2,3,-1
 372 0 l 2,4,5
 193.196 0 193.196 0 119 172 c 0,6,7
 97 223 97 223 97 280 c 2,8,-1
 97 770 l 2,9,10
 97 921.421 97 921.421 265.5 983.5 c 0,11,12
 313 1001 313 1001 392.3 1001 c 128,-1,13
 471.6 1001 471.6 1001 526 929 c 1,14,15
 571.818 1001 571.818 1001 656.909 1001 c 128,-1,16
 742 1001 742 1001 787 983 c 128,-1,17
 832 965 832 965 866 933.5 c 0,18,19
 940 864.941 940 864.941 940 770 c 2,20,-1
 940 267 l 2,21,22
 940 169 940 169 865 134 c 1,23,-1
 977 134 l 2,24,25
 1063 134 1063 134 1063 222 c 2,26,-1
 1063 767 l 2,27,28
 1063 854 1063 854 981 854 c 1,29,-1
 981 991 l 1,30,31
 1155.68 991 1155.68 991 1215.5 866.5 c 0,32,33
 1234 828 1234 828 1234 780 c 2,34,-1
 1234 230 l 2,35,36
 1234 79.2 1234 79.2 1081 18 c 0,37,38
 1036 0 1036 0 987 0 c 0,39,40
 910.75 0 910.75 0 819.025 0 c 128,-1,41
 727.3 0 727.3 0 693 49 c 1,0,1
693 160 m 1,42,43
 769 183.886 769 183.886 769 263 c 2,44,-1
 769 777 l 2,45,46
 769 864 769 864 697 864 c 128,-1,47
 625 864 625 864 625 783 c 2,48,-1
 625 263 l 2,49,50
 625 175.355 625 175.355 693 160 c 1,42,43
280 777 m 2,51,-1
 280 282 l 2,52,53
 280 189.421 280 189.421 319 161.711 c 128,-1,54
 358 134 358 134 382 134 c 2,55,-1
 501 134 l 1,56,57
 444 162.5 444 162.5 444 237 c 2,58,-1
 444 783 l 2,59,60
 444 864 444 864 362 864 c 128,-1,61
 280 864 280 864 280 777 c 2,51,-1
EndSplineSet
EndChar

StartChar: r3
Encoding: 140 3376 142
Width: 821
GlyphClass: 2
Flags: W
LayerCount: 2
Back
Fore
SplineSet
385 842 m 2,0,1
 282 842 282 842 282 752 c 2,2,-1
 282 212 l 2,3,4
 282 197 282 197 281.5 181.5 c 128,-1,5
 281 166 281 166 285.5 154 c 0,6,7
 295.37 127.68 295.37 127.68 334 126 c 1,8,-1
 334 -11 l 1,9,-1
 258 -11 l 2,10,11
 150.933 -11 150.933 -11 108.5 123 c 0,12,13
 99 153 99 153 99 170 c 2,14,-1
 99 766 l 2,15,16
 99 976 99 976 366 976 c 2,17,-1
 574 976 l 2,18,19
 736.372 976 736.372 976 800.5 854 c 0,20,21
 821 815 821 815 821 766 c 2,22,-1
 821 190 l 2,23,24
 821 40.9529 821 40.9529 681.5 -5 c 0,25,26
 639 -19 639 -19 589 -19 c 128,-1,27
 539 -19 539 -19 498 -5 c 128,-1,28
 457 9 457 9 427.5 36 c 0,29,30
 366 92.2881 366 92.2881 366 190 c 2,31,-1
 366 498 l 2,32,33
 366 708 366 708 564 708 c 0,34,35
 605.455 708 605.455 708 640 689 c 1,36,-1
 640 756 l 2,37,38
 640 842 640 842 541 842 c 2,39,-1
 385 842 l 2,0,1
640 484 m 2,40,41
 640 572 640 572 588.5 572 c 128,-1,42
 537 572 537 572 537 484 c 2,43,-1
 537 202 l 2,44,45
 537 115 537 115 588.5 115 c 128,-1,46
 640 115 640 115 640 202 c 2,47,-1
 640 484 l 2,40,41
EndSplineSet
EndChar

StartChar: rh
Encoding: 141 3377 143
Width: 669
GlyphClass: 2
Flags: W
LayerCount: 2
Back
Fore
SplineSet
278 212 m 2,0,1
 278 125 278 125 342 125 c 1,2,-1
 342 -9 l 1,3,4
 171.795 -9 171.795 -9 114.5 110.5 c 0,5,6
 97 147 97 147 97 190 c 2,7,-1
 97 770 l 2,8,9
 97 924.942 97 924.942 271 983.5 c 0,10,11
 323 1001 323 1001 383.5 1001 c 128,-1,12
 444 1001 444 1001 496 983 c 128,-1,13
 548 965 548 965 586.5 933.5 c 0,14,15
 669 866 669 866 669 770 c 2,16,-1
 669 190 l 2,17,18
 669 57.9091 669 57.9091 529 7 c 0,19,20
 485 -9 485 -9 432 -9 c 1,21,-1
 432 123 l 1,22,23
 488 128.6 488 128.6 488 212 c 2,24,-1
 488 767 l 2,25,26
 488 864 488 864 383 864 c 128,-1,27
 278 864 278 864 278 767 c 2,28,-1
 278 212 l 2,0,1
EndSplineSet
EndChar

StartChar: l3
Encoding: 142 3378 144
Width: 992
GlyphClass: 2
Flags: W
LayerCount: 2
Back
Fore
SplineSet
670 315 m 1,0,-1
 278 315 l 1,1,-1
 278 132 l 1,2,-1
 809 132 l 1,3,-1
 809 967 l 1,4,-1
 992 967 l 1,5,-1
 992 0 l 1,6,-1
 97 0 l 1,7,-1
 97 770 l 2,8,9
 97 929.233 97 929.233 276.5 985 c 0,10,11
 328 1001 328 1001 383.5 1001 c 128,-1,12
 439 1001 439 1001 490.5 985 c 128,-1,13
 542 969 542 969 582 939.5 c 0,14,15
 670 874.6 670 874.6 670 770 c 2,16,-1
 670 315 l 1,0,-1
489 767 m 2,17,18
 489 864 489 864 383.5 864 c 128,-1,19
 278 864 278 864 278 767 c 2,20,-1
 278 446 l 1,21,-1
 489 446 l 1,22,-1
 489 767 l 2,17,18
EndSplineSet
EndChar

StartChar: lh
Encoding: 143 3379 145
Width: 860
GlyphClass: 2
Flags: W
LayerCount: 2
Back
Fore
SplineSet
348 714 m 0,0,1
 556 714 556 714 556 516 c 2,2,-1
 556 422 l 2,3,4
 556 279.47 556 279.47 422.5 228 c 0,5,6
 381 212 381 212 331 212 c 128,-1,7
 281 212 281 212 238 227.5 c 128,-1,8
 195 243 195 243 163.5 271 c 0,9,10
 97 330.111 97 330.111 97 422 c 2,11,-1
 97 768 l 2,12,13
 97 912.828 97 912.828 259.5 963.5 c 0,14,15
 306 978 306 978 356 978 c 2,16,-1
 601 978 l 2,17,18
 768.176 978 768.176 978 837.5 864 c 0,19,20
 860 827 860 827 860 778 c 2,21,-1
 860 658 l 2,22,23
 860 541.455 860 541.455 780 516 c 1,24,-1
 778 516 l 1,25,26
 860 489.76 860 489.76 860 375 c 2,27,-1
 860 270 l 2,28,29
 860 126.143 860 126.143 722 78.5 c 0,30,31
 680 64 680 64 631 64 c 2,32,-1
 343 64 l 2,33,34
 270 64 270 64 270 8 c 128,-1,35
 270 -48 270 -48 343 -48 c 2,36,-1
 846 -48 l 1,37,-1
 846 -192 l 1,38,-1
 343 -192 l 2,39,40
 179.96 -192 179.96 -192 125 -77.5 c 0,41,42
 107 -40 107 -40 107 10 c 0,43,44
 107 189 107 189 343 189 c 2,45,-1
 601 189 l 2,46,47
 677 189 677 189 677 282 c 2,48,-1
 677 362 l 2,49,50
 677 428 677 428 632 428 c 2,51,-1
 603 428 l 1,52,-1
 603 584 l 1,53,-1
 635 584 l 2,54,55
 677 584 677 584 677 671 c 2,56,-1
 677 754 l 2,57,58
 677 842 677 842 597 842 c 2,59,-1
 356 842 l 2,60,61
 291.471 842 291.471 842 280 764 c 1,62,-1
 280 695 l 1,63,64
 320.111 714 320.111 714 348 714 c 0,0,1
280 432 m 2,65,66
 280 344 280 344 331.5 344 c 128,-1,67
 383 344 383 344 383 432 c 2,68,-1
 383 492 l 2,69,70
 383 580 383 580 331.5 580 c 128,-1,71
 280 580 280 580 280 492 c 2,72,-1
 280 432 l 2,65,66
EndSplineSet
EndChar

StartChar: zh
Encoding: 144 3380 146
Width: 866
GlyphClass: 2
Flags: W
LayerCount: 2
Back
Fore
SplineSet
673 379 m 1,0,1
 736 349.353 736 349.353 736 278 c 2,2,-1
 736 206 l 2,3,4
 736 72.4524 736 72.4524 599 17 c 0,5,6
 557 0 557 0 508 0 c 2,7,-1
 429 0 l 2,8,9
 279.203 0 279.203 0 232.5 128 c 0,10,11
 219 165 219 165 219 206 c 2,12,-1
 219 276 l 1,13,-1
 400 276 l 1,14,-1
 400 220 l 2,15,16
 400 130 400 130 463 130 c 0,17,18
 525.344 130 525.344 130 540.172 166.5 c 128,-1,19
 555 203 555 203 555 220 c 2,20,-1
 555 284 l 2,21,22
 555 355.833 555 355.833 481 362 c 1,23,-1
 315 362 l 2,24,25
 165.284 362 165.284 362 112.5 488 c 0,26,27
 97 525 97 525 97 566 c 2,28,-1
 97 787 l 2,29,30
 97 924.667 97 924.667 242 973 c 0,31,32
 287 988 287 988 342 988 c 1,33,-1
 342 855 l 1,34,35
 280 855 280 855 280 766 c 2,36,-1
 280 580 l 2,37,38
 280 494 280 494 342 494 c 2,39,-1
 435 494 l 1,40,41
 390 524 390 524 390 588 c 2,42,-1
 390 776 l 2,43,44
 390 913.286 390 913.286 509.5 964.5 c 0,45,46
 548 981 548 981 598 981 c 2,47,-1
 641 981 l 2,48,49
 781.868 981 781.868 981 844.5 845 c 0,50,51
 862 807 862 807 862 770 c 2,52,-1
 862 566 l 2,53,54
 862 462.652 862 462.652 748.5 398.5 c 0,55,56
 714 379 714 379 673 379 c 1,0,1
682 759 m 2,57,58
 682 848 682 848 621.5 848 c 128,-1,59
 561 848 561 848 561 763 c 2,60,-1
 561 584 l 2,61,62
 561 494 561 494 619 494 c 1,63,64
 682 500 682 500 682 580 c 2,65,-1
 682 759 l 2,57,58
EndSplineSet
EndChar

StartChar: v1
Encoding: 145 3381 147
Width: 938
GlyphClass: 2
Flags: W
LayerCount: 2
Back
Fore
SplineSet
650 248 m 2,0,1
 650 166.071 650 166.071 597 132 c 1,2,-1
 757 132 l 1,3,-1
 757 968 l 1,4,-1
 938 968 l 1,5,-1
 938 0 l 1,6,-1
 407 0 l 1,7,-1
 407 119 l 1,8,9
 469 140.784 469 140.784 469 212 c 2,10,-1
 469 775 l 2,11,12
 469 862 469 862 373.5 862 c 128,-1,13
 278 862 278 862 278 775 c 2,14,-1
 278 212 l 2,15,16
 278 124.1 278 124.1 340 121 c 1,17,-1
 340 -7 l 1,18,19
 173.533 -7 173.533 -7 114.5 119.5 c 0,20,21
 97 157 97 157 97 200 c 2,22,-1
 97 770 l 2,23,24
 97 928.28 97 928.28 268 983 c 0,25,26
 318 999 318 999 373.5 999 c 128,-1,27
 429 999 429 999 479 983 c 128,-1,28
 529 967 529 967 567 937 c 0,29,30
 650 871.474 650 871.474 650 770 c 2,31,-1
 650 248 l 2,0,1
EndSplineSet
EndChar

StartChar: z1
Encoding: 146 3382 148
Width: 1147
GlyphClass: 2
Flags: W
LayerCount: 2
Back
Fore
SplineSet
961 484 m 2,0,1
 961 572 961 572 911.5 572 c 128,-1,2
 862 572 862 572 862 484 c 2,3,-1
 862 202 l 2,4,5
 862 115 862 115 911.5 115 c 128,-1,6
 961 115 961 115 961 202 c 2,7,-1
 961 484 l 2,0,1
708 844 m 2,8,9
 613 844 613 844 613 754 c 2,10,-1
 613 212 l 2,11,12
 613 57.043 613 57.043 451.5 -2 c 0,13,14
 405 -19 405 -19 355.5 -19 c 128,-1,15
 306 -19 306 -19 259.5 -4.5 c 128,-1,16
 213 10 213 10 177 37 c 0,17,18
 97 97 97 97 97 190 c 2,19,-1
 97 776 l 2,20,21
 97 924.087 97 924.087 261.5 972 c 0,22,23
 313 987 313 987 376 987 c 1,24,-1
 376 850 l 1,25,26
 280 850 280 850 280 763 c 2,27,-1
 280 202 l 2,28,29
 280 115 280 115 356 115 c 128,-1,30
 432 115 432 115 432 212 c 2,31,-1
 432 768 l 2,32,33
 432 978 432 978 687 978 c 2,34,-1
 895 978 l 2,35,36
 1059.37 978 1059.37 978 1123.5 856 c 0,37,38
 1144 817 1144 817 1144 768 c 2,39,-1
 1144 200 l 2,40,41
 1144 48.1059 1144 48.1059 1002.5 -3.5 c 0,42,43
 960 -19 960 -19 910 -19 c 128,-1,44
 860 -19 860 -19 819 -3.5 c 128,-1,45
 778 12 778 12 749 41 c 0,46,47
 689 101 689 101 689 200 c 2,48,-1
 689 498 l 2,49,50
 689 708 689 708 887 708 c 0,51,52
 922 708 922 708 961 687 c 1,53,-1
 961 758 l 2,54,55
 961 844 961 844 864 844 c 2,56,-1
 708 844 l 2,8,9
EndSplineSet
EndChar

StartChar: sh
Encoding: 147 3383 149
Width: 1402
GlyphClass: 2
Flags: W
LayerCount: 2
Back
Fore
SplineSet
1220 449 m 1,0,1
 1166.67 395.667 1166.67 395.667 1093 361 c 1,2,-1
 1093 132 l 1,3,-1
 1220 132 l 1,4,-1
 1220 449 l 1,0,1
859 863 m 0,5,6
 825 863 825 863 825 825 c 2,7,-1
 825 611 l 2,8,9
 825 505.717 825 505.717 916 504 c 1,10,-1
 916 778 l 2,11,12
 916 863 916 863 859 863 c 0,5,6
1093 517 m 1,13,14
 1221 555.603 1221 555.603 1221 709 c 2,15,-1
 1221 967 l 1,16,-1
 1401 967 l 1,17,-1
 1401 0 l 1,18,-1
 377 0 l 1,19,-1
 377 123 l 1,20,21
 434 129.706 434 129.706 434 212 c 2,22,-1
 434 454 l 2,23,24
 434 542 434 542 356 542 c 128,-1,25
 278 542 278 542 278 454 c 2,26,-1
 278 214 l 2,27,28
 278 129.1 278 129.1 339 123 c 1,29,-1
 339 -3 l 1,30,31
 176.481 -3 176.481 -3 117 111.5 c 0,32,33
 97 150 97 150 97 202 c 2,34,-1
 97 468 l 2,35,36
 97 618.731 97 618.731 262.5 665 c 0,37,38
 309 678 309 678 355.5 678 c 128,-1,39
 402 678 402 678 448.5 664.5 c 128,-1,40
 495 651 495 651 532.5 625 c 0,41,42
 617 566.413 617 566.413 617 468 c 2,43,-1
 617 226 l 2,44,45
 617 161.318 617 161.318 574 132 c 1,46,-1
 916 132 l 1,47,-1
 916 351 l 1,48,49
 738.734 354.345 738.734 354.345 670 496.5 c 0,50,51
 648 542 648 542 648 599 c 2,52,-1
 648 794 l 2,53,54
 648 931.8 648 931.8 784 984.5 c 0,55,56
 824 1000 824 1000 869 1000 c 128,-1,57
 914 1000 914 1000 954.5 984.5 c 128,-1,58
 995 969 995 969 1026 941.5 c 0,59,60
 1093 882.065 1093 882.065 1093 794 c 2,61,-1
 1093 517 l 1,13,14
EndSplineSet
EndChar

StartChar: s1
Encoding: 148 3384 150
Width: 1292
GlyphClass: 2
Flags: W
LayerCount: 2
Back
Fore
SplineSet
1107 764 m 2,0,1
 1107 851 1107 851 1026 851 c 1,2,-1
 1026 988 l 1,3,4
 1218.03 988 1218.03 988 1273 863.5 c 0,5,6
 1290 825 1290 825 1290 777 c 2,7,-1
 1290 200 l 2,8,9
 1290 55.1613 1290 55.1613 1127.5 -2.5 c 0,10,11
 1081 -19 1081 -19 1031 -19 c 128,-1,12
 981 -19 981 -19 933.5 -4 c 128,-1,13
 886 11 886 11 848.5 39 c 0,14,15
 765 101.347 765 101.347 765 198 c 2,16,-1
 765 773 l 2,17,18
 765 860 765 860 699.192 860 c 128,-1,19
 633.385 860 633.385 860 623 779 c 1,20,-1
 623 0 l 1,21,-1
 450 0 l 1,22,-1
 450 780 l 1,23,24
 441.474 861 441.474 861 359 861 c 0,25,26
 278 861 278 861 278 774 c 2,27,-1
 278 212 l 2,28,29
 278 125 278 125 354 125 c 1,30,-1
 354 -9 l 1,31,32
 97 -9 97 -9 97 200 c 2,33,-1
 97 770 l 2,34,35
 97 921.5 97 921.5 258 981 c 0,36,37
 304 998 304 998 389 998 c 128,-1,38
 474 998 474 998 519 932 c 1,39,40
 568.4 997 568.4 997 658.2 997 c 128,-1,41
 748 997 748 997 792.5 979.5 c 128,-1,42
 837 962 837 962 871 931 c 0,43,44
 946 862.618 946 862.618 946 770 c 2,45,-1
 946 212 l 2,46,47
 946 115 946 115 1026.5 115 c 128,-1,48
 1107 115 1107 115 1107 210 c 2,49,-1
 1107 764 l 2,0,1
EndSplineSet
EndChar

StartChar: h1
Encoding: 149 3385 151
Width: 1296
GlyphClass: 2
Flags: W
LayerCount: 2
Back
Fore
SplineSet
745 132 m 1,0,1
 702 167.833 702 167.833 702 246 c 2,2,-1
 702 770 l 2,3,4
 702 930.635 702 930.635 876 982.5 c 0,5,6
 928 998 928 998 988.5 998 c 128,-1,7
 1049 998 1049 998 1103 983 c 128,-1,8
 1157 968 1157 968 1197.5 939 c 0,9,10
 1286 875.63 1286 875.63 1286 770 c 2,11,-1
 1286 200 l 2,12,13
 1286 -5 1286 -5 1045 -5 c 1,14,-1
 1045 128 l 1,15,16
 1103 128 1103 128 1103 216 c 2,17,-1
 1103 764 l 2,18,19
 1103 861 1103 861 994 861 c 128,-1,20
 885 861 885 861 885 764 c 2,21,-1
 885 214 l 2,22,23
 885 124 885 124 953 128 c 1,24,-1
 953 0 l 1,25,-1
 375 0 l 1,26,-1
 375 123 l 1,27,28
 434 131.429 434 131.429 434 212 c 2,29,-1
 434 484 l 2,30,31
 434 572 434 572 356 572 c 128,-1,32
 278 572 278 572 278 484 c 2,33,-1
 278 214 l 2,34,35
 278 128.611 278 128.611 325 126 c 1,36,-1
 325 -3 l 1,37,38
 156.473 -3 156.473 -3 110.5 123 c 0,39,40
 97 160 97 160 97 202 c 2,41,-1
 97 498 l 2,42,43
 97 644.447 97 644.447 256 693.5 c 0,44,45
 303 708 303 708 355.5 708 c 128,-1,46
 408 708 408 708 455.5 693 c 128,-1,47
 503 678 503 678 538 650.5 c 0,48,49
 615 590 615 590 615 498 c 2,50,-1
 615 226 l 2,51,52
 615 176.957 615 176.957 568 132 c 1,53,-1
 745 132 l 1,0,1
EndSplineSet
EndChar

StartChar: uni0D3D
Encoding: 150 3389 152
Width: 770
GlyphClass: 2
Flags: W
LayerCount: 2
Back
Fore
SplineSet
680 1232 m 0,0,1
 778 1232 778 1232 778 1130 c 0,2,3
 778 1052 778 1052 728 1052 c 128,-1,4
 678 1052 678 1052 678 1112 c 1,5,-1
 690 1164 l 1,6,7
 690 1174 690 1174 672 1174 c 128,-1,8
 654 1174 654 1174 629 1059.5 c 0,9,10
 602.71 939.092 602.71 939.092 585.168 800.945 c 128,-1,11
 567.625 662.797 567.625 662.797 552.018 565.771 c 1,12,-1
 734 612 l 1,13,-1
 734 500 l 1,14,-1
 532.81 448.08 l 1,15,16
 521.522 378.082 521.522 378.082 497.761 226.041 c 128,-1,17
 474 74 474 74 432 -65 c 1,18,19
 352 -323 352 -323 234 -323 c 0,20,21
 148 -323 148 -323 148 -230 c 128,-1,22
 148 -137 148 -137 201 -137 c 128,-1,23
 254 -137 254 -137 254 -197 c 0,24,25
 254 -202 254 -202 249 -226.5 c 128,-1,26
 244 -251 244 -251 246 -251 c 0,27,28
 308.009 -251 308.009 -251 349 38.5 c 0,29,30
 357 95 357 95 362 124 c 2,31,-1
 410.336 416.474 l 1,32,-1
 238 372 l 1,33,-1
 238 486 l 1,34,-1
 429.882 534.744 l 1,35,-1
 480 838 l 2,36,37
 485 865 485 865 490 893 c 0,38,39
 526.541 1097.63 526.541 1097.63 582.27 1164.81 c 128,-1,40
 638 1232 638 1232 680 1232 c 0,0,1
EndSplineSet
EndChar

StartChar: uni0D3E
Encoding: 151 3390 153
Width: 592
GlyphClass: 2
Flags: W
LayerCount: 2
Back
Fore
SplineSet
334 861 m 0,0,1
 258 861 258 861 258 774 c 2,2,-1
 258 607 l 1,3,-1
 87 607 l 1,4,-1
 87 779 l 2,5,6
 87 927.169 87 927.169 239.5 982 c 0,7,8
 284 998 284 998 333.5 998 c 128,-1,9
 383 998 383 998 430 981 c 128,-1,10
 477 964 477 964 513 933.5 c 0,11,12
 593 865.722 593 865.722 593 769 c 2,13,-1
 593 204 l 2,14,15
 593 54.2553 593 54.2553 430 0.5 c 0,16,17
 383 -15 383 -15 333.5 -15 c 128,-1,18
 284 -15 284 -15 239.5 -0.5 c 128,-1,19
 195 14 195 14 161 41 c 0,20,21
 87 99.7647 87 99.7647 87 194 c 2,22,-1
 87 356 l 1,23,-1
 258 356 l 1,24,-1
 258 206 l 2,25,26
 258 118 258 118 334 118 c 128,-1,27
 410 118 410 118 410 196 c 2,28,-1
 410 784 l 2,29,30
 410 833.889 410 833.889 379.5 847.444 c 128,-1,31
 349 861 349 861 334 861 c 0,0,1
EndSplineSet
EndChar

StartChar: uni0D3F
Encoding: 152 3391 154
Width: 283
GlyphClass: 2
Flags: W
LayerCount: 2
Back
Fore
SplineSet
29 1270 m 0,0,1
 -42 1270 -42 1270 -42 1185 c 2,2,-1
 -41 1060 l 1,3,-1
 -206 1060 l 1,4,-1
 -207 1216 l 2,5,6
 -207 1346.05 -207 1346.05 -53.5 1393 c 0,7,8
 -11 1406 -11 1406 33.5 1406 c 128,-1,9
 78 1406 78 1406 123 1393.5 c 128,-1,10
 168 1381 168 1381 202.5 1356.5 c 0,11,12
 279 1302.17 279 1302.17 279 1215 c 2,13,-1
 279 5 l 1,14,-1
 98 5 l 1,15,-1
 98 1194 l 2,16,17
 98 1239.2 98 1239.2 70.5 1254.6 c 128,-1,18
 43 1270 43 1270 29 1270 c 0,0,1
EndSplineSet
EndChar

StartChar: uni0D40
Encoding: 153 3392 155
Width: 283
GlyphClass: 2
Flags: W
LayerCount: 2
Back
Fore
SplineSet
-62 1136 m 2,0,1
 -62 1088 -62 1088 -15.5 1088 c 128,-1,2
 31 1088 31 1088 31 1136 c 2,3,-1
 31 1220 l 2,4,5
 31 1272 31 1272 -15.5 1272 c 128,-1,6
 -62 1272 -62 1272 -62 1220 c 2,7,-1
 -62 1136 l 2,0,1
281 5 m 1,8,-1
 100 5 l 1,9,-1
 101 1186 l 2,10,11
 101 1223.09 101 1223.09 80 1246 c 1,12,-1
 79 1110 l 2,13,14
 79 1031.12 79 1031.12 -12 1002 c 0,15,16
 -37 994 -37 994 -63 994 c 128,-1,17
 -89 994 -89 994 -118 1005 c 128,-1,18
 -147 1016 -147 1016 -170.5 1035.5 c 0,19,20
 -224 1079.89 -224 1079.89 -224 1139 c 2,21,-1
 -224 1241 l 2,22,23
 -224 1356.38 -224 1356.38 -59.5 1397 c 0,24,25
 -19 1407 -19 1407 21.5 1407 c 128,-1,26
 62 1407 62 1407 110 1394.5 c 128,-1,27
 158 1382 158 1382 196 1356.5 c 0,28,29
 281 1299.46 281 1299.46 281 1195 c 2,30,-1
 281 5 l 1,8,-1
EndSplineSet
EndChar

StartChar: u1
Encoding: 154 3393 156
Width: 613
GlyphClass: 2
Flags: W
LayerCount: 2
Back
Fore
SplineSet
373 -295 m 1,0,1
 430 -297.192 430 -297.192 430 -227 c 2,2,-1
 430 -55 l 2,3,4
 430 12 430 12 373.5 12 c 128,-1,5
 317 12 317 12 317 -55 c 2,6,-1
 317 -227 l 2,7,8
 317 -295 317 -295 373 -295 c 1,0,1
422 755 m 2,9,10
 422 842 422 842 355 842 c 128,-1,11
 288 842 288 842 288 755 c 2,12,-1
 288 691 l 1,13,-1
 107 691 l 1,14,-1
 107 769 l 2,15,16
 107 914.483 107 914.483 260.5 964.5 c 0,17,18
 305 979 305 979 354 979 c 128,-1,19
 403 979 403 979 448 964 c 128,-1,20
 493 949 493 949 527.5 921.5 c 0,21,22
 603 861.319 603 861.319 603 769 c 2,23,-1
 603 226 l 2,24,25
 603 118.357 603 118.357 516 50 c 1,26,27
 589 24.45 589 24.45 589 -87 c 2,28,-1
 589 -230 l 2,29,30
 589 -349.944 589 -349.944 467 -394 c 0,31,32
 431 -407 431 -407 391.5 -407 c 128,-1,33
 352 -407 352 -407 316 -394.5 c 128,-1,34
 280 -382 280 -382 252.5 -359.5 c 0,35,36
 192 -310 192 -310 192 -235 c 2,37,-1
 192 -87 l 2,38,39
 192 28.7571 192 28.7571 308 73.5 c 0,40,41
 343 87 343 87 382 89 c 1,42,43
 422 127.519 422 127.519 422 214 c 2,44,-1
 422 755 l 2,9,10
EndSplineSet
EndChar

StartChar: u2
Encoding: 155 3394 157
Width: 613
GlyphClass: 2
Flags: W
LayerCount: 2
Back
Fore
SplineSet
292 -147 m 2,0,1
 292 -173 292 -173 324.5 -173 c 128,-1,2
 357 -173 357 -173 357 -147 c 2,3,-1
 357 -64 l 2,4,5
 357 -39 357 -39 324.5 -39 c 128,-1,6
 292 -39 292 -39 292 -64 c 2,7,-1
 292 -147 l 2,0,1
531 38 m 1,8,9
 628 15.6154 628 15.6154 628 -107 c 2,10,-1
 628 -265 l 2,11,12
 628 -390.864 628 -390.864 489.5 -449 c 0,13,14
 449 -466 449 -466 405.5 -466 c 128,-1,15
 362 -466 362 -466 320.5 -455 c 128,-1,16
 279 -444 279 -444 246.5 -422.5 c 0,17,18
 174 -374.538 174 -374.538 174 -293 c 2,19,-1
 174 -256 l 1,20,-1
 304 -278 l 1,21,-1
 304 -292 l 2,22,23
 304 -361.412 304 -361.412 396 -356 c 0,24,25
 453.791 -352.789 453.791 -352.789 467.396 -321.395 c 128,-1,26
 481 -290 481 -290 481 -273 c 2,27,-1
 481 -94 l 2,28,29
 481 -32.9722 481 -32.9722 402 -22 c 1,30,31
 424 -39.6 424 -39.6 424 -64 c 2,32,-1
 424 -155 l 2,33,34
 424 -259 424 -259 301 -259 c 0,35,36
 210.643 -259 210.643 -259 186.821 -215.5 c 128,-1,37
 163 -172 163 -172 163 -145 c 2,38,-1
 163 -88 l 2,39,40
 163 65.575 163 65.575 380 71 c 1,41,42
 422 108.5 422 108.5 422 194 c 2,43,-1
 422 755 l 2,44,45
 422 842 422 842 355 842 c 128,-1,46
 288 842 288 842 288 755 c 2,47,-1
 288 691 l 1,48,-1
 107 691 l 1,49,-1
 107 769 l 2,50,51
 107 914.483 107 914.483 260.5 964.5 c 0,52,53
 305 979 305 979 354 979 c 128,-1,54
 403 979 403 979 448 964 c 128,-1,55
 493 949 493 949 527.5 921.5 c 0,56,57
 603 861.319 603 861.319 603 769 c 2,58,-1
 603 206 l 2,59,60
 603 84.9565 603 84.9565 531 38 c 1,8,9
EndSplineSet
EndChar

StartChar: r1
Encoding: 156 3395 158
Width: 615
GlyphClass: 2
Flags: W
LayerCount: 2
Back
Fore
SplineSet
613 -64 m 2,0,1
 613 -397 613 -397 241 -397 c 0,2,3
 -63 -397 -63 -397 -63 -198 c 2,4,-1
 -63 -164 l 2,5,6
 -63 -67.5385 -63 -67.5385 54.5 -35 c 0,7,8
 87 -26 87 -26 119 -26 c 2,9,-1
 224 -26 l 2,10,11
 345.438 -26 345.438 -26 387 -121 c 0,12,13
 401 -153 401 -153 400 -196 c 1,14,-1
 289 -196 l 1,15,-1
 289 -189 l 1,16,17
 281.759 -147 281.759 -147 220 -147 c 2,18,-1
 147 -147 l 2,19,20
 88 -147 88 -147 88 -197 c 0,21,22
 88 -264 88 -264 178 -264 c 2,23,-1
 273 -264 l 2,24,25
 434 -264 434 -264 434 -95 c 2,26,-1
 434 882 l 1,27,-1
 613 882 l 1,28,-1
 613 -64 l 2,0,1
EndSplineSet
EndChar

StartChar: uni0D46
Encoding: 157 3398 159
Width: 812
GlyphClass: 2
Flags: W
LayerCount: 2
Back
Fore
SplineSet
574 126 m 1,0,1
 636 128.818 636 128.818 636 212 c 2,2,-1
 636 749 l 2,3,4
 636 839 636 839 533 839 c 2,5,-1
 377 839 l 2,6,7
 278 839 278 839 278 753 c 2,8,-1
 278 669 l 1,9,10
 308.136 708 308.136 708 364 708 c 0,11,12
 562 708 562 708 562 498 c 2,13,-1
 562 200 l 2,14,15
 562 46.9651 562 46.9651 422 -3.5 c 0,16,17
 379 -19 379 -19 329 -19 c 128,-1,18
 279 -19 279 -19 237 -3.5 c 128,-1,19
 195 12 195 12 163.5 41 c 0,20,21
 97 102.222 97 102.222 97 200 c 2,22,-1
 97 763 l 2,23,24
 97 908.483 97 908.483 250.5 958.5 c 0,25,26
 295 973 295 973 344 973 c 2,27,-1
 553 973 l 2,28,29
 742.628 973 742.628 973 800.5 851 c 0,30,31
 819 812 819 812 819 763 c 2,32,-1
 819 200 l 2,33,34
 819 93.0556 819 93.0556 770.5 58.0278 c 0,35,36
 687.383 -2.00139 687.383 -2.00139 574 -11 c 1,37,-1
 574 126 l 1,0,1
278 202 m 2,38,39
 278 115 278 115 329.5 115 c 128,-1,40
 381 115 381 115 381 202 c 2,41,-1
 381 484 l 2,42,43
 381 572 381 572 329.5 572 c 128,-1,44
 278 572 278 572 278 484 c 2,45,-1
 278 202 l 2,38,39
EndSplineSet
EndChar

StartChar: uni0D47
Encoding: 158 3399 160
Width: 725
GlyphClass: 2
Flags: W
LayerCount: 2
Back
Fore
SplineSet
349 970 m 1,0,-1
 484 973 l 1,1,2
 643.48 973 643.48 973 713 854.5 c 0,3,4
 735 817 735 817 735 770 c 2,5,-1
 735 722 l 2,6,7
 735 599.076 735 599.076 596.5 557 c 0,8,9
 474.358 519.894 474.358 519.894 411.179 566.447 c 0,10,11
 313 638.789 313 638.789 313 710 c 2,12,-1
 313 761 l 2,13,14
 313 809.92 313 809.92 360 840 c 1,15,16
 280 831.111 280 831.111 280 743 c 2,17,-1
 280 232 l 2,18,19
 280 178.897 280 178.897 311 156.448 c 128,-1,20
 342 134 342 134 360 132 c 1,21,22
 313 163.96 313 163.96 313 212 c 2,23,-1
 313 263 l 2,24,25
 313 373.014 313 373.014 441.5 413.5 c 0,26,27
 630.72 473.117 630.72 473.117 716 325 c 0,28,29
 735 292 735 292 735 251 c 2,30,-1
 735 213 l 2,31,32
 735 68 735 68 576 15 c 0,33,34
 531 0 531 0 484 0 c 2,35,-1
 350 0 l 2,36,37
 186.13 0 186.13 0 117.5 154 c 0,38,39
 97 200 97 200 97 256.5 c 128,-1,40
 97 313 97 313 96.5 368 c 128,-1,41
 96 423 96 423 95.5 478 c 0,42,43
 94 643 94 643 94 707 c 128,-1,44
 94 771 94 771 114 817.5 c 128,-1,45
 134 864 134 864 169 897.5 c 0,46,47
 244.746 970 244.746 970 349 970 c 1,0,-1
483 198 m 2,48,49
 483 128 483 128 521.5 128 c 128,-1,50
 560 128 560 128 560 198 c 2,51,-1
 560 230 l 2,52,53
 560 300 560 300 521.5 300 c 128,-1,54
 483 300 483 300 483 230 c 2,55,-1
 483 198 l 2,48,49
483 743 m 2,56,57
 483 673 483 673 521.5 673 c 128,-1,58
 560 673 560 673 560 743 c 2,59,-1
 560 774 l 2,60,61
 560 844 560 844 521.5 844 c 128,-1,62
 483 844 483 844 483 774 c 2,63,-1
 483 743 l 2,56,57
EndSplineSet
EndChar

StartChar: uni0D48
Encoding: 159 3400 161
Width: 1618
GlyphClass: 2
Flags: W
LayerCount: 2
Back
Fore
SplineSet
278 202 m 2,0,1
 278 115 278 115 329.5 115 c 128,-1,2
 381 115 381 115 381 202 c 2,3,-1
 381 484 l 2,4,5
 381 572 381 572 329.5 572 c 128,-1,6
 278 572 278 572 278 484 c 2,7,-1
 278 202 l 2,0,1
364 708 m 0,8,9
 562 708 562 708 562 498 c 2,10,-1
 562 200 l 2,11,12
 562 45.9412 562 45.9412 420.5 -4 c 0,13,14
 378 -19 378 -19 329 -19 c 128,-1,15
 280 -19 280 -19 238 -3.5 c 128,-1,16
 196 12 196 12 164.5 40.5 c 0,17,18
 97 101.571 97 101.571 97 200 c 2,19,-1
 97 763 l 2,20,21
 97 909.764 97 909.764 253.5 959 c 0,22,23
 298 973 298 973 344 973 c 2,24,-1
 553 973 l 2,25,26
 733.5 973 733.5 973 796.5 861 c 0,27,28
 819 821 819 821 819 763 c 2,29,-1
 819 193 l 2,30,31
 819 9.41667 819 9.41667 574 -11 c 1,32,-1
 574 126 l 1,33,34
 636 126 636 126 636 212 c 2,35,-1
 636 749 l 2,36,37
 636 839 636 839 533 839 c 2,38,-1
 377 839 l 2,39,40
 278 839 278 839 278 718 c 2,41,-1
 278 669 l 1,42,43
 308.789 708 308.789 708 364 708 c 0,8,9
1068 202 m 2,44,45
 1068 115 1068 115 1119.5 115 c 128,-1,46
 1171 115 1171 115 1171 202 c 2,47,-1
 1171 484 l 2,48,49
 1171 572 1171 572 1119.5 572 c 128,-1,50
 1068 572 1068 572 1068 484 c 2,51,-1
 1068 202 l 2,44,45
1154 708 m 0,52,53
 1352 708 1352 708 1352 498 c 2,54,-1
 1352 200 l 2,55,56
 1352 45.9412 1352 45.9412 1210.5 -4 c 0,57,58
 1168 -19 1168 -19 1119 -19 c 128,-1,59
 1070 -19 1070 -19 1028 -3.5 c 128,-1,60
 986 12 986 12 954.5 40.5 c 0,61,62
 887 101.571 887 101.571 887 200 c 2,63,-1
 887 763 l 2,64,65
 887 909.764 887 909.764 1043.5 959 c 0,66,67
 1088 973 1088 973 1134 973 c 2,68,-1
 1343 973 l 2,69,70
 1523.5 973 1523.5 973 1586.5 861 c 0,71,72
 1609 821 1609 821 1609 763 c 2,73,-1
 1609 193 l 2,74,75
 1609 9.41667 1609 9.41667 1364 -11 c 1,76,-1
 1364 126 l 1,77,78
 1426 126 1426 126 1426 212 c 2,79,-1
 1426 749 l 2,80,81
 1426 839 1426 839 1323 839 c 2,82,-1
 1167 839 l 2,83,84
 1068 839 1068 839 1068 718 c 2,85,-1
 1068 669 l 1,86,87
 1098.79 708 1098.79 708 1154 708 c 0,52,53
EndSplineSet
EndChar

StartChar: uni0D4A
Encoding: 160 3402 162
Width: 2310
GlyphClass: 2
Flags: W
LayerCount: 2
Back
Fore
SplineSet
2310 876 m 2,0,-1
 2310 190 l 2,1,2
 2310 66 2310 66 2222 -21.5 c 128,-1,3
 2134 -109 2134 -109 2008 -109 c 2,4,-1
 464 -109 l 2,5,6
 340 -109 340 -109 252 -21 c 128,-1,7
 164 67 164 67 164 190 c 2,8,-1
 164 876 l 2,9,10
 164 1000 164 1000 252 1088 c 128,-1,11
 340 1176 340 1176 464 1176 c 2,12,-1
 2008 1176 l 2,13,14
 2133 1176 2133 1176 2221.5 1088 c 128,-1,15
 2310 1000 2310 1000 2310 876 c 2,0,-1
2222 282 m 2,16,-1
 2222 788 l 2,17,18
 2222 914 2222 914 2134 1002 c 128,-1,19
 2046 1090 2046 1090 1922 1090 c 2,20,-1
 550 1090 l 2,21,22
 424 1090 424 1090 338 1002.5 c 128,-1,23
 252 915 252 915 252 788 c 2,24,-1
 252 282 l 2,25,26
 252 159 252 159 337.5 72 c 128,-1,27
 423 -15 423 -15 550 -15 c 2,28,-1
 1922 -15 l 2,29,30
 2047 -15 2047 -15 2134.5 72.5 c 128,-1,31
 2222 160 2222 160 2222 282 c 2,16,-1
1818 136 m 0,32,33
 1568 136 1568 136 1568 386 c 2,34,-1
 1568 390 l 1,35,-1
 1630 390 l 1,36,37
 1640 334 1640 334 1658 286 c 128,-1,38
 1676 238 1676 238 1753 238 c 0,39,40
 1887.89 238 1887.89 238 1914.95 319 c 0,41,42
 1946 411.977 1946 411.977 1946 526 c 0,43,44
 1946 812 1946 812 1796 812 c 0,45,46
 1699 812 1699 812 1669.5 754.5 c 128,-1,47
 1640 697 1640 697 1630 610 c 1,48,-1
 1568 610 l 1,49,-1
 1568 614 l 2,50,51
 1568 757 1568 757 1619 823.5 c 128,-1,52
 1670 890 1670 890 1804 890 c 0,53,54
 2092 890 2092 890 2092 513 c 128,-1,55
 2092 136 2092 136 1818 136 c 0,32,33
1492 530 m 1,56,-1
 1492 446 l 1,57,-1
 1316 446 l 1,58,-1
 1316 530 l 1,59,-1
 1492 530 l 1,56,-1
858 342.5 m 0,60,61
 858 136 858 136 623.5 136 c 0,62,63
 509 136 509 136 437.5 223 c 128,-1,64
 366 310 366 310 366 468 c 128,-1,65
 366 626 366 626 491 758 c 128,-1,66
 616 890 616 890 794 890 c 128,-1,67
 972 890 972 890 1109 783.5 c 128,-1,68
 1246 677 1246 677 1246 489.5 c 128,-1,69
 1246 302 1246 302 1008 124 c 1,70,-1
 914 162 l 1,71,72
 1090 287 1090 287 1090 450.5 c 128,-1,73
 1090 614 1090 614 997 707 c 128,-1,74
 904 800 904 800 767.5 800 c 128,-1,75
 631 800 631 800 537.5 704.5 c 128,-1,76
 444 609 444 609 426 472 c 1,77,-1
 432 464 l 1,78,79
 516 582 516 582 619 582 c 128,-1,80
 722 582 722 582 790 509.5 c 128,-1,81
 858 437 858 437 858 342.5 c 0,60,61
458 371.5 m 128,-1,83
 458 315 458 315 500 272.5 c 128,-1,84
 542 230 542 230 596.5 230 c 128,-1,85
 651 230 651 230 692.5 269 c 128,-1,86
 734 308 734 308 734 363.5 c 128,-1,87
 734 419 734 419 696 461.5 c 128,-1,88
 658 504 658 504 600 504 c 128,-1,89
 542 504 542 504 500 466 c 128,-1,82
 458 428 458 428 458 371.5 c 128,-1,83
EndSplineSet
EndChar

StartChar: uni0D4B
Encoding: 161 3403 163
Width: 2126
GlyphClass: 2
Flags: W
LayerCount: 2
Back
Fore
SplineSet
2128 876 m 2,0,-1
 2128 190 l 2,1,2
 2128 67 2128 67 2040 -21 c 128,-1,3
 1952 -109 1952 -109 1828 -109 c 2,4,-1
 464 -109 l 2,5,6
 340 -109 340 -109 252 -21 c 128,-1,7
 164 67 164 67 164 190 c 2,8,-1
 164 876 l 2,9,10
 164 1000 164 1000 252 1088 c 128,-1,11
 340 1176 340 1176 464 1176 c 2,12,-1
 1828 1176 l 2,13,14
 1952 1176 1952 1176 2040 1088 c 128,-1,15
 2128 1000 2128 1000 2128 876 c 2,0,-1
2056 258 m 2,16,-1
 2056 788 l 2,17,18
 2056 914 2056 914 1968 1002 c 0,19,20
 1879 1090 1879 1090 1754 1090 c 2,21,-1
 558 1090 l 2,22,23
 434 1090 434 1090 346 1002 c 128,-1,24
 258 914 258 914 258 788 c 2,25,-1
 258 258 l 2,26,27
 258 136 258 136 346 48.5 c 128,-1,28
 434 -39 434 -39 558 -39 c 2,29,-1
 1754 -39 l 2,30,31
 1878 -39 1878 -39 1968 48 c 1,32,33
 2056 136 2056 136 2056 258 c 2,16,-1
1575 238 m 0,34,35
 1742 238 1742 238 1742 523 c 128,-1,36
 1742 808 1742 808 1590 808 c 0,37,38
 1540 808 1540 808 1496.5 790 c 0,39,40
 1449.2 770.429 1449.2 770.429 1426 608 c 1,41,-1
 1366 608 l 1,42,-1
 1366 614 l 2,43,44
 1366 751 1366 751 1416 820.5 c 128,-1,45
 1466 890 1466 890 1602 890 c 0,46,47
 1888 890 1888 890 1888 511 c 128,-1,48
 1888 132 1888 132 1616 132 c 0,49,50
 1484 132 1484 132 1425 192.5 c 128,-1,51
 1366 253 1366 253 1366 386 c 2,52,-1
 1366 390 l 1,53,-1
 1426 390 l 1,54,55
 1440 315 1440 315 1459 286 c 0,56,57
 1490.45 238 1490.45 238 1575 238 c 0,34,35
1290 528 m 1,58,-1
 1290 446 l 1,59,-1
 1112 446 l 1,60,-1
 1112 528 l 1,61,-1
 1290 528 l 1,58,-1
730 321 m 0,62,63
 730 472 730 472 893 472 c 0,64,65
 957 472 957 472 997.5 435 c 128,-1,66
 1038 398 1038 398 1038 317 c 128,-1,67
 1038 236 1038 236 942 188 c 128,-1,68
 846 140 846 140 703 140 c 128,-1,69
 560 140 560 140 466 242.5 c 128,-1,70
 372 345 372 345 372 518 c 128,-1,71
 372 691 372 691 468 792 c 1,72,73
 565 892 565 892 730.5 892 c 128,-1,74
 896 892 896 892 967 831 c 128,-1,75
 1038 770 1038 770 1038 698 c 0,76,77
 1038 550 1038 550 884 550 c 128,-1,78
 730 550 730 550 730 702 c 0,79,80
 730 782 730 782 786 824 c 1,81,82
 768 836 768 836 724 836 c 0,83,84
 510 836 510 836 510 515 c 128,-1,85
 510 194 510 194 724 194 c 0,86,87
 757 194 757 194 786 206 c 1,88,89
 730 242 730 242 730 321 c 0,62,63
884 812 m 1,90,91
 828 784 828 784 828 695 c 128,-1,92
 828 606 828 606 903 606 c 128,-1,93
 978 606 978 606 978 701 c 128,-1,94
 978 796 978 796 884 812 c 1,90,91
978 340 m 0,95,96
 978 372 978 372 954.5 395 c 128,-1,97
 931 418 931 418 898 418 c 0,98,99
 828 418 828 418 828 334 c 128,-1,100
 828 250 828 250 884 218 c 1,101,102
 978 242 978 242 978 340 c 0,95,96
EndSplineSet
EndChar

StartChar: uni0D4C
Encoding: 162 3404 164
Width: 956
GlyphClass: 2
Flags: W
LayerCount: 2
Back
Fore
SplineSet
486 881 m 1,0,1
 530 958 530 958 629.5 958 c 128,-1,2
 729 958 729 958 776.5 944.5 c 128,-1,3
 824 931 824 931 863 904.5 c 0,4,5
 952 844.026 952 844.026 952 749 c 2,6,-1
 952 202 l 2,7,8
 952 93.7143 952 93.7143 877 50.8571 c 0,9,10
 760 -16 760 -16 678 -16 c 128,-1,11
 596 -16 596 -16 541.5 -4 c 128,-1,12
 487 8 487 8 441 34.5 c 0,13,14
 334 96.1413 334 96.1413 334 201 c 2,15,-1
 334 340 l 1,16,-1
 500 340 l 1,17,-1
 499 253 l 1,18,19
 499 137.691 499 137.691 575.5 121 c 0,20,21
 603 115 603 115 634 115 c 128,-1,22
 665 115 665 115 687 121.5 c 128,-1,23
 709 128 709 128 727 140 c 0,24,25
 768 167.333 768 167.333 768 213 c 2,26,-1
 768 735 l 2,27,28
 768 773 768 773 739.5 797.5 c 128,-1,29
 711 822 711 822 683 822 c 128,-1,30
 655 822 655 822 637.5 815 c 128,-1,31
 620 808 620 808 606.5 796 c 0,32,33
 576 768.889 576 768.889 576 731 c 2,34,-1
 576 548 l 1,35,-1
 413 550 l 1,36,-1
 413 733 l 2,37,38
 413 822 413 822 332.5 822 c 128,-1,39
 252 822 252 822 252 733 c 2,40,-1
 252 501 l 1,41,-1
 101 501 l 1,42,-1
 101 746 l 2,43,44
 101 891.161 101 891.161 236.5 938 c 0,45,46
 277 952 277 952 361.975 952 c 128,-1,47
 446.95 952 446.95 952 486 881 c 1,0,1
EndSplineSet
EndChar

StartChar: xx
Encoding: 163 3405 165
Width: 31
GlyphClass: 4
Flags: W
LayerCount: 2
Back
Fore
SplineSet
294 1300 m 1,0,1
 301 1272 301 1272 301 1267 c 2,2,-1
 301 1202 l 2,3,4
 301 1074.82 301 1074.82 198 1028 c 0,5,6
 165 1013 165 1013 124 1013 c 2,7,-1
 -1 1013 l 2,8,9
 -133.886 1013 -133.886 1013 -186 1127 c 0,10,11
 -202 1162 -202 1162 -202 1204 c 2,12,-1
 -202 1267 l 2,13,14
 -202 1272 -202 1272 -195 1300 c 1,15,-1
 -4 1300 l 1,16,17
 -11 1272 -11 1272 -11 1267 c 2,18,-1
 -11 1196 l 2,19,20
 -11 1140 -11 1140 63.5 1140 c 128,-1,21
 138 1140 138 1140 138 1194 c 2,22,-1
 138 1267 l 2,23,24
 138 1272 138 1272 131 1300 c 1,25,-1
 294 1300 l 1,0,1
EndSplineSet
EndChar

StartChar: uni0D57
Encoding: 164 3415 166
Width: 956
GlyphClass: 2
Flags: W
LayerCount: 2
Back
Fore
SplineSet
486 881 m 1,0,1
 530 958 530 958 629.5 958 c 128,-1,2
 729 958 729 958 776.5 944.5 c 128,-1,3
 824 931 824 931 863 904.5 c 0,4,5
 952 844.026 952 844.026 952 749 c 2,6,-1
 952 202 l 2,7,8
 952 93.7143 952 93.7143 877 50.8571 c 0,9,10
 760 -16 760 -16 678 -16 c 128,-1,11
 596 -16 596 -16 541.5 -4 c 128,-1,12
 487 8 487 8 441 34.5 c 0,13,14
 334 96.1413 334 96.1413 334 201 c 2,15,-1
 334 340 l 1,16,-1
 500 340 l 1,17,-1
 499 253 l 1,18,19
 499 137.691 499 137.691 575.5 121 c 0,20,21
 603 115 603 115 634 115 c 128,-1,22
 665 115 665 115 687 121.5 c 128,-1,23
 709 128 709 128 727 140 c 0,24,25
 768 167.333 768 167.333 768 213 c 2,26,-1
 768 735 l 2,27,28
 768 773 768 773 739.5 797.5 c 128,-1,29
 711 822 711 822 683 822 c 128,-1,30
 655 822 655 822 637.5 815 c 128,-1,31
 620 808 620 808 606.5 796 c 0,32,33
 576 768.889 576 768.889 576 731 c 2,34,-1
 576 548 l 1,35,-1
 413 550 l 1,36,-1
 413 733 l 2,37,38
 413 822 413 822 332.5 822 c 128,-1,39
 252 822 252 822 252 733 c 2,40,-1
 252 501 l 1,41,-1
 101 501 l 1,42,-1
 101 746 l 2,43,44
 101 891.161 101 891.161 236.5 938 c 0,45,46
 277 952 277 952 361.975 952 c 128,-1,47
 446.95 952 446.95 952 486 881 c 1,0,1
EndSplineSet
EndChar

StartChar: uni0d60
Encoding: 165 3424 167
Width: 930
GlyphClass: 2
Flags: W
LayerCount: 2
Back
Fore
SplineSet
467 269 m 2,0,1
 467 283 467 283 434.5 283 c 128,-1,2
 402 283 402 283 402 268 c 128,-1,3
 402 253 402 253 428 218 c 1,4,-1
 351 218 l 1,5,6
 336 248 336 248 336 265.5 c 128,-1,7
 336 283 336 283 360.5 302.5 c 128,-1,8
 385 322 385 322 431 322 c 128,-1,9
 477 322 477 322 500 306 c 1,10,11
 525 323 525 323 561 323 c 0,12,13
 696 323 696 323 696 240 c 0,14,15
 696 237 696 237 695.5 234 c 128,-1,16
 695 231 695 231 695 228 c 1,17,18
 708 251 708 251 708 294 c 128,-1,19
 708 337 708 337 652 368 c 1,20,21
 573 345 573 345 494.5 345 c 128,-1,22
 416 345 416 345 334 368 c 1,23,24
 279 336 279 336 279 284.5 c 0,25,26
 279 201.6 279 201.6 375 168 c 1,27,-1
 375 197 l 1,28,29
 430 173 430 173 475.5 173 c 0,30,31
 618 173 618 173 618 242 c 0,32,33
 618 283 618 283 576 283 c 128,-1,34
 534 283 534 283 534 265 c 2,35,-1
 534 235 l 1,36,-1
 467 235 l 1,37,-1
 467 269 l 2,0,1
278.5 653 m 128,-1,39
 330 653 330 653 330 722.5 c 128,-1,40
 330 792 330 792 278.5 792 c 128,-1,41
 227 792 227 792 227 722.5 c 128,-1,38
 227 653 227 653 278.5 653 c 128,-1,39
713 792 m 128,-1,43
 662 792 662 792 662 722.5 c 128,-1,44
 662 653 662 653 713 653 c 128,-1,45
 764 653 764 653 764 722.5 c 128,-1,42
 764 792 764 792 713 792 c 128,-1,43
807.5 908.5 m 128,-1,47
 849 886 849 886 890 831.5 c 128,-1,48
 931 777 931 777 931 648 c 128,-1,49
 931 519 931 519 826 449 c 1,50,51
 901 404 901 404 901 275 c 128,-1,52
 901 146 901 146 774.5 72 c 128,-1,53
 648 -2 648 -2 494 -2 c 128,-1,54
 340 -2 340 -2 212.5 74 c 128,-1,55
 85 150 85 150 85 276.5 c 128,-1,56
 85 403 85 403 162 449 c 1,57,58
 56 520 56 520 56 647 c 128,-1,59
 56 774 56 774 112.5 852.5 c 128,-1,60
 169 931 169 931 290 931 c 128,-1,61
 411 931 411 931 456 815 c 0,62,63
 470 779 470 779 470 740 c 0,64,65
 470 660.455 470 660.455 423 601.727 c 128,-1,66
 376 543 376 543 299 543 c 1,67,68
 379 482 379 482 495.5 482 c 128,-1,69
 612 482 612 482 690 543 c 1,70,71
 613 541 613 541 564.5 598 c 128,-1,72
 516 655 516 655 516 714.5 c 0,73,74
 516 819.92 516 819.92 569.5 875.46 c 128,-1,75
 623 931 623 931 694.5 931 c 128,-1,46
 766 931 766 931 807.5 908.5 c 128,-1,47
EndSplineSet
EndChar

StartChar: l2
Encoding: 166 3425 168
Width: 1788
GlyphClass: 2
Flags: W
LayerCount: 2
Back
Fore
SplineSet
334.5 158 m 0,0,1
 408 158 408 158 408 311 c 128,-1,2
 408 464 408 464 334.5 464 c 0,3,4
 296 464 296 464 275 412 c 128,-1,5
 254 360 254 360 254 293 c 128,-1,6
 254 226 254 226 283 192 c 128,-1,7
 312 158 312 158 334.5 158 c 0,0,1
1139 306 m 0,8,9
 1139 165 1139 165 1220 165 c 0,10,11
 1315 165 1315 165 1306 443 c 0,12,13
 1305 474 1305 474 1305 492 c 1,14,15
 1188 477 1188 477 1150 368 c 0,16,17
 1139 334 1139 334 1139 306 c 0,8,9
765 784 m 1,18,19
 874.095 929 874.095 929 1081 929 c 0,20,21
 1203.11 929 1203.11 929 1311.06 854 c 128,-1,22
 1419 779 1419 779 1460 655 c 1,23,24
 1619 620 1619 620 1703 492 c 128,-1,25
 1787 364 1787 364 1787 161 c 128,-1,26
 1787 -42 1787 -42 1642.5 -213.5 c 128,-1,27
 1498 -385 1498 -385 1264 -385 c 0,28,29
 1147 -385 1147 -385 1026 -332 c 1,30,-1
 1026 -121 l 1,31,32
 1138 -204 1138 -204 1238 -204 c 0,33,34
 1412.4 -204 1412.4 -204 1506.7 -86.5 c 128,-1,35
 1601 31 1601 31 1601 216 c 128,-1,36
 1601 401 1601 401 1484 458 c 1,37,-1
 1485 410 l 2,38,39
 1494.01 -24.0027 1494.01 -24.0027 1216 -24 c 0,40,41
 1093.23 -24 1093.23 -24 1020.62 74.5 c 128,-1,42
 948 173 948 173 948 308 c 128,-1,43
 948 443 948 443 1030.5 540.5 c 128,-1,44
 1113 638 1113 638 1252 660 c 1,45,46
 1197 742 1197 742 1096.5 742 c 128,-1,47
 996 742 996 742 927 663 c 128,-1,48
 858 584 858 584 858 478 c 2,49,-1
 858 0 l 1,50,-1
 673 0 l 1,51,-1
 673 478 l 2,52,53
 673 584 673 584 609.5 661.5 c 128,-1,54
 546 739 546 739 447 739 c 0,55,56
 304.593 739 304.593 739 262 624 c 1,57,58
 296 654 296 654 357.5 654 c 0,59,60
 580 654 580 654 580 322 c 0,61,62
 580 194 580 194 515 88.5 c 128,-1,63
 450 -17 450 -17 341.5 -17 c 128,-1,64
 233 -17 233 -17 144.5 80.5 c 128,-1,65
 56 178 56 178 56 469 c 128,-1,66
 56 760 56 760 262 881 c 0,67,68
 337 925 337 925 497 925 c 128,-1,69
 657 925 657 925 765 784 c 1,18,19
EndSplineSet
EndChar

StartChar: nhcil
Encoding: 177 3450 179
Width: 1681
GlyphClass: 3
Flags: W
LayerCount: 2
Back
Fore
SplineSet
278 202 m 2,0,1
 278 115 278 115 327.5 115 c 128,-1,2
 377 115 377 115 377 202 c 2,3,-1
 377 484 l 2,4,5
 377 572 377 572 327.5 572 c 128,-1,6
 278 572 278 572 278 484 c 2,7,-1
 278 202 l 2,0,1
1381 202 m 2,8,9
 1381 115 1381 115 1439.5 115 c 128,-1,10
 1498 115 1498 115 1498 202 c 2,11,-1
 1498 747 l 2,12,13
 1498 837 1498 837 1439.5 837 c 128,-1,14
 1381 837 1381 837 1381 747 c 2,15,-1
 1381 202 l 2,8,9
1634 1043 m 0,16,17
 1634 953.2 1634 953.2 1566 926 c 1,18,19
 1642.43 906.25 1642.43 906.25 1672.5 812.5 c 0,20,21
 1681 786 1681 786 1681 761 c 2,22,-1
 1681 200 l 2,23,24
 1681 60.4375 1681 60.4375 1544 0.5 c 0,25,26
 1504 -17 1504 -17 1461 -17 c 2,27,-1
 1418 -17 l 2,28,29
 1277.29 -17 1277.29 -17 1216 117.5 c 0,30,31
 1198 157 1198 157 1198 200 c 2,32,-1
 1198 761 l 2,33,34
 1198 807.174 1198 807.174 1259 839 c 1,35,-1
 1212 839 l 2,36,37
 1136 839 1136 839 1136 763 c 2,38,-1
 1136 0 l 1,39,-1
 955 0 l 1,40,-1
 955 775 l 2,41,42
 955 850 955 850 879 850 c 0,43,44
 804 850 804 850 804 775 c 2,45,-1
 804 0 l 1,46,-1
 621 0 l 1,47,-1
 621 743 l 2,48,49
 621 839 621 839 519 839 c 2,50,-1
 344 839 l 2,51,52
 278 839 278 839 278 727 c 2,53,-1
 278 698 l 1,54,55
 295.5 708 295.5 708 338.75 708 c 128,-1,56
 382 708 382 708 423 694 c 128,-1,57
 464 680 464 680 494 653.5 c 0,58,59
 558 596.967 558 596.967 558 498 c 2,60,-1
 558 200 l 2,61,62
 558 47.3765 558 47.3765 418.5 -3.5 c 0,63,64
 376 -19 376 -19 327 -19 c 128,-1,65
 278 -19 278 -19 236 -3.5 c 128,-1,66
 194 12 194 12 163 40.5 c 0,67,68
 97 101.177 97 101.177 97 200 c 2,69,-1
 97 763 l 2,70,71
 97 909.764 97 909.764 253.5 959 c 0,72,73
 298 973 298 973 344 973 c 2,74,-1
 525 973 l 2,75,76
 655.722 973 655.722 973 702 924 c 1,77,78
 765 987 765 987 870.452 987 c 128,-1,79
 975.903 987 975.903 987 1043 922 c 1,80,81
 1088 973 1088 973 1212 973 c 2,82,-1
 1418 973 l 2,83,84
 1454 973 1454 973 1454 1050 c 128,-1,85
 1454 1127 1454 1127 1411.37 1127 c 0,86,87
 1366.08 1127 1366.08 1127 1372 1056 c 1,88,-1
 1189 1056 l 1,89,90
 1189 1259 1189 1259 1411.5 1259 c 128,-1,91
 1634 1259 1634 1259 1634 1043 c 0,16,17
EndSplineSet
Ligature2: "'haln' Halant Forms in Malay+AQEA-lam lookup 10 subtable" nh xx ZWJ
Ligature2: "'half' Half Forms in Malay+AQEA-lam lookup 3 subtable" nh xx ZWJ
Ligature2: "'akhn' Akhand in Malay+AQEA-lam2 lookup 1 subtable" nh xx ZWJ
Ligature2: "'akhn' Akhand in Malay+AQEA-lam lookup 0 subtable" nh xx ZWJ
EndChar

StartChar: n1cil
Encoding: 178 3451 180
Width: 1179
GlyphClass: 3
Flags: W
LayerCount: 2
Back
Fore
SplineSet
879 202 m 2,0,1
 879 115 879 115 937.5 115 c 128,-1,2
 996 115 996 115 996 202 c 2,3,-1
 996 747 l 2,4,5
 996 837 996 837 938 837 c 1,6,7
 879 808.343 879 808.343 879 728 c 2,8,-1
 879 202 l 2,0,1
687 1053 m 1,9,10
 687 1259 687 1259 909.5 1259 c 128,-1,11
 1132 1259 1132 1259 1132 1066 c 0,12,13
 1132 995.065 1132 995.065 1100 962.032 c 128,-1,14
 1068 929 1068 929 1049 926 c 1,15,16
 1179 875.13 1179 875.13 1179 761 c 2,17,-1
 1179 200 l 2,18,19
 1179 60.4375 1179 60.4375 1042 0.5 c 0,20,21
 1002 -17 1002 -17 959 -17 c 2,22,-1
 916 -17 l 2,23,24
 776.291 -17 776.291 -17 715 117.5 c 0,25,26
 697 157 697 157 697 200 c 2,27,-1
 696 727 l 2,28,29
 696 798.231 696 798.231 759 837 c 1,30,-1
 669 837 l 2,31,32
 613 837 613 837 613 763 c 2,33,-1
 613 0 l 1,34,-1
 432 0 l 1,35,-1
 432 773 l 2,36,37
 432 824 432 824 402 839 c 128,-1,38
 372 854 372 854 356 854 c 0,39,40
 280 854 280 854 280 767 c 2,41,-1
 280 212 l 2,42,43
 280 126 280 126 374 126 c 1,44,-1
 374 -7 l 1,45,46
 195.772 -7 195.772 -7 122.5 106.5 c 0,47,48
 97 146 97 146 97 200 c 2,49,-1
 97 770 l 2,50,51
 97 920.333 97 920.333 262.5 975.5 c 0,52,53
 309 991 309 991 394.31 991 c 128,-1,54
 479.619 991 479.619 991 521 912 c 1,55,56
 569.8 973 569.8 973 710 973 c 2,57,-1
 897 973 l 2,58,59
 952 973 952 973 952 1050 c 128,-1,60
 952 1127 952 1127 904.917 1127 c 128,-1,61
 857.833 1127 857.833 1127 864 1053 c 1,62,-1
 687 1053 l 1,9,10
EndSplineSet
Ligature2: "'haln' Halant Forms in Malay+AQEA-lam lookup 10 subtable" n1 xx ZWJ
Ligature2: "'half' Half Forms in Malay+AQEA-lam lookup 3 subtable" n1 xx ZWJ
Ligature2: "'akhn' Akhand in Malay+AQEA-lam2 lookup 1 subtable" n1 xx ZWJ
Ligature2: "'akhn' Akhand in Malay+AQEA-lam lookup 0 subtable" n1 xx ZWJ
EndChar

StartChar: r3cil
Encoding: 179 3452 181
Width: 848
GlyphClass: 3
Flags: W
LayerCount: 2
Back
Fore
SplineSet
547 202 m 2,0,1
 547 115 547 115 606 115 c 128,-1,2
 665 115 665 115 665 202 c 2,3,-1
 665 751 l 2,4,5
 665 842 665 842 605 842 c 1,6,7
 547 818.438 547 818.438 547 751 c 2,8,-1
 547 202 l 2,0,1
726 932 m 1,9,10
 848 889.931 848 889.931 848 765 c 2,11,-1
 848 202 l 2,12,13
 848 62.1111 848 62.1111 710.5 1 c 0,14,15
 670 -17 670 -17 626 -17 c 2,16,-1
 586 -17 l 2,17,18
 443.747 -17 443.747 -17 382 118.5 c 0,19,20
 364 158 364 158 364 202 c 2,21,-1
 364 735 l 2,22,23
 364 810 364 810 428 842 c 1,24,-1
 385 842 l 2,25,26
 280 842 280 842 280 753 c 2,27,-1
 280 212 l 2,28,29
 280 128 280 128 333 128 c 1,30,-1
 333 -9 l 1,31,32
 174.443 -9 174.443 -9 116 112.5 c 0,33,34
 97 152 97 152 97 202 c 2,35,-1
 97 767 l 2,36,37
 97 922.529 97 922.529 286 967 c 0,38,39
 337 979 337 979 385 979 c 2,40,-1
 586 979 l 2,41,42
 619 979 619 979 619 1056.5 c 128,-1,43
 619 1134 619 1134 578 1134 c 128,-1,44
 537 1134 537 1134 537 1051 c 1,45,-1
 354 1051 l 1,46,47
 354 1267 354 1267 577 1267 c 128,-1,48
 800 1267 800 1267 800 1068 c 0,49,50
 800 964 800 964 728 932 c 1,51,-1
 726 932 l 1,9,10
EndSplineSet
Ligature2: "'haln' Halant Forms in Malay+AQEA-lam lookup 10 subtable" r3 xx ZWJ
Ligature2: "'half' Half Forms in Malay+AQEA-lam lookup 3 subtable" r3 xx ZWJ
Ligature2: "'akhn' Akhand in Malay+AQEA-lam2 lookup 1 subtable" r3 xx ZWJ
Ligature2: "'akhn' Akhand in Malay+AQEA-lam lookup 0 subtable" r3 xx ZWJ
EndChar

StartChar: l3cil
Encoding: 180 3453 182
Width: 1455
GlyphClass: 3
Flags: W
LayerCount: 2
Back
Fore
SplineSet
566 204 m 2,0,1
 566 116 566 116 643 116 c 128,-1,2
 720 116 720 116 720 204 c 2,3,-1
 720 702 l 2,4,5
 720 780.333 720 780.333 656.5 801.5 c 0,6,7
 649 804 649 804 646 804 c 0,8,9
 566 804 566 804 566 702 c 2,10,-1
 566 204 l 2,0,1
1156 202 m 2,11,12
 1156 115 1156 115 1215 115 c 128,-1,13
 1274 115 1274 115 1274 202 c 2,14,-1
 1274 751 l 2,15,16
 1274 842 1274 842 1214 842 c 1,17,18
 1156 818.8 1156 818.8 1156 728 c 2,19,-1
 1156 202 l 2,11,12
1337 932 m 1,20,21
 1455 892.667 1455 892.667 1455 765 c 2,22,-1
 1455 202 l 2,23,24
 1455 62.65 1455 62.65 1318 1 c 0,25,26
 1278 -17 1278 -17 1235 -17 c 2,27,-1
 1193 -17 l 2,28,29
 1053.2 -17 1053.2 -17 991 119.5 c 0,30,31
 973 159 973 159 973 202 c 2,32,-1
 973 726 l 2,33,34
 973 805.655 973 805.655 1035 842 c 1,35,-1
 850 842 l 1,36,37
 901 804.731 901 804.731 901 728 c 2,38,-1
 901 204 l 2,39,40
 901 44.4783 901 44.4783 745 -3 c 0,41,42
 699 -17 699 -17 648 -17 c 128,-1,43
 597 -17 597 -17 549.5 -3.5 c 128,-1,44
 502 10 502 10 465 38 c 0,45,46
 383 100.054 383 100.054 383 204 c 2,47,-1
 383 728 l 2,48,49
 383 813.533 383 813.533 444 842 c 1,50,-1
 356 842 l 2,51,52
 280 842 280 842 280 755 c 2,53,-1
 280 222 l 2,54,55
 280 132 280 132 358 132 c 1,56,-1
 358 -1 l 1,57,58
 185.861 -1 185.861 -1 119.5 115.5 c 0,59,60
 97 155 97 155 97 210 c 2,61,-1
 97 769 l 2,62,63
 97 917.161 97 917.161 263.5 965.5 c 0,64,65
 310 979 310 979 356 979 c 2,66,-1
 475 979 l 2,67,68
 598.619 979 598.619 979 648 918 c 1,69,70
 690.435 979 690.435 979 856 979 c 2,71,-1
 1193 979 l 2,72,73
 1228 979 1228 979 1228 1056.5 c 128,-1,74
 1228 1134 1228 1134 1187 1134 c 128,-1,75
 1146 1134 1146 1134 1146 1068 c 1,76,-1
 963 1068 l 1,77,78
 963 1267 963 1267 1195 1267 c 0,79,80
 1341.5 1267 1341.5 1267 1393.5 1163 c 0,81,82
 1411 1128 1411 1128 1411 1042.87 c 128,-1,83
 1411 957.739 1411 957.739 1337 932 c 1,20,21
EndSplineSet
Ligature2: "'haln' Halant Forms in Malay+AQEA-lam lookup 10 subtable" l3 xx ZWJ
Ligature2: "'half' Half Forms in Malay+AQEA-lam lookup 3 subtable" l3 xx ZWJ
Ligature2: "'akhn' Akhand in Malay+AQEA-lam2 lookup 1 subtable" l3 xx ZWJ
Ligature2: "'akhn' Akhand in Malay+AQEA-lam lookup 0 subtable" l3 xx ZWJ
EndChar

StartChar: lhcil
Encoding: 181 3454 183
Width: 1179
GlyphClass: 3
Flags: W
LayerCount: 2
Back
Fore
SplineSet
877 202 m 2,0,1
 877 115 877 115 936.5 115 c 128,-1,2
 996 115 996 115 996 202 c 2,3,-1
 996 751 l 2,4,5
 996 842 996 842 936.5 842 c 128,-1,6
 877 842 877 842 877 751 c 2,7,-1
 877 202 l 2,0,1
1045 932 m 1,8,9
 1179 896.529 1179 896.529 1179 765 c 2,10,-1
 1179 202 l 2,11,12
 1179 62.65 1179 62.65 1042 1 c 0,13,14
 1002 -17 1002 -17 959 -17 c 2,15,-1
 916 -17 l 2,16,17
 776.962 -17 776.962 -17 713.5 118.5 c 0,18,19
 695 158 695 158 695 202 c 2,20,-1
 695 743 l 2,21,22
 695 823.438 695 823.438 761 842 c 1,23,-1
 691 842 l 2,24,25
 615 842 615 842 615 761 c 2,26,-1
 615 208 l 2,27,28
 615 53.6021 615 53.6021 450.5 -3 c 0,29,30
 404 -19 404 -19 356.5 -19 c 128,-1,31
 309 -19 309 -19 262.5 -3.5 c 128,-1,32
 216 12 216 12 179.5 41 c 0,33,34
 97 106.548 97 106.548 97 202 c 2,35,-1
 97 770 l 2,36,37
 97 922.423 97 922.423 274.5 970 c 0,38,39
 323 983 323 983 370 983 c 1,40,-1
 370 846 l 1,41,42
 278 847.878 278 847.878 278 757 c 2,43,-1
 278 212 l 2,44,45
 278 115 278 115 355 115 c 128,-1,46
 432 115 432 115 432 212 c 2,47,-1
 432 774 l 2,48,49
 432 915.902 432 915.902 601 965.5 c 0,50,51
 647 979 647 979 691 979 c 2,52,-1
 916 979 l 2,53,54
 950 979 950 979 950 1058.5 c 128,-1,55
 950 1138 950 1138 909 1138 c 128,-1,56
 868 1138 868 1138 868 1066 c 1,57,-1
 685 1066 l 1,58,59
 685 1267 685 1267 918 1267 c 0,60,61
 1063.54 1267 1063.54 1267 1114.5 1168 c 0,62,63
 1132 1134 1132 1134 1132 1088 c 0,64,65
 1132 955.423 1132 955.423 1045 932 c 1,8,9
EndSplineSet
Ligature2: "'haln' Halant Forms in Malay+AQEA-lam lookup 10 subtable" lh xx ZWJ
Ligature2: "'half' Half Forms in Malay+AQEA-lam lookup 3 subtable" lh xx ZWJ
Ligature2: "'akhn' Akhand in Malay+AQEA-lam2 lookup 1 subtable" lh xx ZWJ
Ligature2: "'akhn' Akhand in Malay+AQEA-lam lookup 0 subtable" lh xx ZWJ
EndChar

StartChar: ZWNJ
Encoding: 182 8204 184
Width: 324
GlyphClass: 2
Flags: W
LayerCount: 2
Back
Fore
SplineSet
66 44 m 1,0,-1
 66 1032 l 1,1,-1
 226 1032 l 1,2,-1
 226 44 l 1,3,-1
 66 44 l 1,0,-1
EndSplineSet
EndChar

StartChar: ZWJ
Encoding: 183 8205 185
Width: 324
GlyphClass: 2
Flags: W
LayerCount: 2
Back
Fore
SplineSet
224 1030 m 1,0,-1
 154 1030 l 1,1,-1
 148 1040 l 1,2,-1
 142 1030 l 1,3,-1
 66 1032 l 1,4,-1
 66 914 l 1,5,-1
 14 834 l 1,6,-1
 -89 834 l 1,7,-1
 96 1106 l 1,8,-1
 -75 1354 l 1,9,-1
 32 1354 l 1,10,-1
 146 1174 l 1,11,-1
 270 1354 l 1,12,-1
 376 1354 l 1,13,-1
 198 1110 l 1,14,-1
 388 834 l 1,15,-1
 282 834 l 1,16,-1
 224 922 l 1,17,-1
 224 1030 l 1,0,-1
66 44 m 1,18,-1
 66 914 l 1,19,-1
 142 1030 l 1,20,-1
 154 1030 l 1,21,-1
 224 922 l 1,22,-1
 226 44 l 1,23,-1
 66 44 l 1,18,-1
EndSplineSet
EndChar

StartChar: uni20B9
Encoding: 188 8377 186
Width: 1101
GlyphClass: 2
Flags: W
LayerCount: 2
Back
Fore
SplineSet
257 752 m 1,0,-1
 379 752 l 2,1,2
 583 752 583 752 662 882 c 0,3,4
 693 934 693 934 693 991 c 2,5,-1
 693 992 l 1,6,-1
 210 992 l 1,7,-1
 274 1113 l 1,8,-1
 679 1113 l 1,9,10
 634 1226 634 1226 501 1242 c 1,11,12
 450 1250 450 1250 366 1250 c 2,13,-1
 210 1250 l 1,14,-1
 274 1370 l 1,15,-1
 1080 1370 l 1,16,-1
 1027 1250 l 1,17,-1
 788 1250 l 1,18,19
 830 1196 830 1196 847 1113 c 1,20,-1
 1080 1113 l 1,21,-1
 1027 992 l 1,22,-1
 849 992 l 1,23,24
 830 843 830 843 720 758 c 128,-1,25
 610 673 610 673 458 662 c 1,26,-1
 924 3 l 1,27,-1
 718 3 l 1,28,-1
 257 629 l 1,29,-1
 257 752 l 1,0,-1
EndSplineSet
EndChar

StartChar: uni25CC
Encoding: 189 9676 187
Width: 956
GlyphClass: 2
Flags: W
LayerCount: 2
Back
Fore
SplineSet
718 686 m 1,0,1
 688 708 688 708 668 718 c 1,2,-1
 730 802 l 1,3,4
 802 756 802 756 829 724 c 128,-1,5
 856 692 856 692 870 670 c 1,6,-1
 780 608 l 1,7,8
 742 674 742 674 720 686 c 1,9,-1
 718 686 l 1,0,1
479 772 m 128,-1,11
 450 772 450 772 398 764 c 1,12,-1
 380 864 l 1,13,14
 440 876 440 876 481 876 c 128,-1,15
 522 876 522 876 578 864 c 1,16,-1
 562 764 l 1,17,10
 508 772 508 772 479 772 c 128,-1,11
824 450 m 128,-1,19
 824 476 824 476 816 524 c 1,20,-1
 920 540 l 1,21,22
 944 449 944 449 920 354 c 1,23,-1
 816 370 l 1,24,18
 824 424 824 424 824 450 c 128,-1,19
780 286 m 1,25,-1
 870 226 l 1,26,27
 823 157 823 157 800 136 c 1,28,-1
 798 136 l 1,29,30
 790 128 790 128 764 112.5 c 128,-1,31
 738 97 738 97 730 92 c 1,32,-1
 668 176 l 1,33,34
 739.984 218.536 739.984 218.536 758.492 249.768 c 128,-1,35
 777 281 777 281 780 286 c 1,25,-1
294 718 m 1,36,37
 218.899 676.526 218.899 676.526 182 608 c 1,38,-1
 92 670 l 1,39,40
 136 734 136 734 152 748.5 c 128,-1,41
 168 763 168 763 232 802 c 1,42,-1
 294 718 l 1,36,37
138 448 m 128,-1,44
 138 399 138 399 148 370 c 1,45,-1
 40 354 l 1,46,47
 20 445 20 445 40 540 c 1,48,-1
 148 524 l 1,49,43
 138 497 138 497 138 448 c 128,-1,44
478 122 m 128,-1,51
 508 122 508 122 562 132 c 1,52,-1
 578 30 l 1,53,54
 539 20 539 20 481.5 20 c 128,-1,55
 424 20 424 20 380 30 c 1,56,-1
 398 132 l 1,57,50
 448 122 448 122 478 122 c 128,-1,51
232 92 m 1,58,59
 154 142 154 142 138 162 c 1,60,-1
 136 162 l 1,61,-1
 92 226 l 1,62,-1
 182 286 l 1,63,64
 225 222 225 222 238.5 212.5 c 128,-1,65
 252 203 252 203 294 176 c 1,66,-1
 232 92 l 1,58,59
EndSplineSet
EndChar

StartChar: r4
Encoding: 192 -1 188
Width: 306
GlyphClass: 3
Flags: W
LayerCount: 2
Back
Fore
SplineSet
423 909 m 1,0,1
 237 696.936 237 696.936 237 380.5 c 0,2,3
 237 48.6667 237 48.6667 402 -109 c 1,4,5
 501 -202 501 -202 645 -202 c 2,6,-1
 1000 -202 l 1,7,-1
 1032 -380 l 1,8,-1
 581 -380 l 2,9,10
 236.513 -380 236.513 -380 104 40 c 1,11,12
 54 202 54 202 54 451.961 c 128,-1,13
 54 701.921 54 701.921 183 909 c 1,14,-1
 423 909 l 1,0,1
EndSplineSet
LCarets2: 1 0 
Ligature2: "'pstf' Post Base Forms in Malay+AQEA-lam lookup 11 subtable" r3 xx
Ligature2: "'pref' Pre Base Forms in Malay+AQEA-lam2 lookup 2 subtable" xx r3
EndChar

StartChar: y2
Encoding: 193 -1 189
Width: 405
GlyphClass: 3
Flags: W
LayerCount: 2
Back
Fore
SplineSet
291 929 m 1,0,-1
 292 452 l 2,1,2
 292 341.878 292 341.878 352 254.939 c 128,-1,3
 412 168 412 168 433.5 130.5 c 0,4,5
 483 44.1628 483 44.1628 483 -31.9186 c 128,-1,6
 483 -108 483 -108 462 -155.5 c 128,-1,7
 441 -203 441 -203 404 -235 c 0,8,9
 327.688 -301 327.688 -301 210 -301 c 0,10,11
 -41 -301 -41 -301 -41 -144 c 0,12,13
 -41 -43.3529 -41 -43.3529 40.5 -5 c 0,14,15
 66 7 66 7 97 7 c 128,-1,16
 128 7 128 7 128 36 c 0,17,18
 128 40 128 40 126 48 c 1,19,-1
 259 48 l 1,20,-1
 259 12 l 2,21,22
 259 -47 259 -47 215 -47 c 1,23,-1
 158 -45 l 1,24,25
 114 -45 114 -45 114 -99.5 c 128,-1,26
 114 -154 114 -154 207 -154 c 0,27,28
 319 -154 319 -154 319 -45 c 0,29,30
 319 50.1455 319 50.1455 252 139.073 c 128,-1,31
 185 228 185 228 161.5 270.5 c 0,32,33
 106 370.872 106 370.872 106 482 c 2,34,-1
 108 929 l 1,35,-1
 291 929 l 1,0,-1
EndSplineSet
LCarets2: 1 0 
Ligature2: "'pstf' Post Base Forms in Malay+AQEA-lam2 lookup 12 subtable" xx y1
Ligature2: "'pstf' Post Base Forms in Malay+AQEA-lam lookup 11 subtable" y1 xx
EndChar

StartChar: y2u1
Encoding: 194 -1 190
Width: 405
GlyphClass: 3
Flags: W
LayerCount: 2
Back
Fore
SplineSet
353 -385 m 2,0,1
 353 -447 353 -447 405.5 -447 c 128,-1,2
 458 -447 458 -447 458 -385 c 2,3,-1
 458 -311 l 2,4,5
 458 -250 458 -250 405.5 -250 c 128,-1,6
 353 -250 353 -250 353 -311 c 2,7,-1
 353 -385 l 2,0,1
449 -182 m 1,8,9
 590 -203.692 590 -203.692 590 -314 c 2,10,-1
 590 -397 l 2,11,12
 590 -532 590 -532 412 -532 c 0,13,14
 299.706 -532 299.706 -532 267.353 -482 c 128,-1,15
 235 -432 235 -432 235 -402.5 c 128,-1,16
 235 -373 235 -373 234 -348.5 c 128,-1,17
 233 -324 233 -324 235 -300 c 1,18,19
 229 -301 229 -301 222.5 -301 c 2,20,-1
 210 -301 l 2,21,22
 -41 -301 -41 -301 -41 -144 c 0,23,24
 -41 -45.451 -41 -45.451 40.5 -5.5 c 0,25,26
 66 7 66 7 97 7 c 128,-1,27
 128 7 128 7 128 36 c 0,28,29
 128 40 128 40 126 48 c 1,30,-1
 259 48 l 1,31,-1
 259 12 l 2,32,33
 259 -47 259 -47 215 -47 c 1,34,-1
 158 -45 l 1,35,36
 114 -45 114 -45 114 -99.5 c 128,-1,37
 114 -154 114 -154 207 -154 c 0,38,39
 319 -154 319 -154 319 -45 c 0,40,41
 319 48.7091 319 48.7091 252 138.855 c 128,-1,42
 185 229 185 229 161.5 271.5 c 0,43,44
 106 371.872 106 371.872 106 482 c 2,45,-1
 108 926 l 1,46,-1
 291 926 l 1,47,-1
 292 452 l 2,48,49
 292 341.878 292 341.878 352 254.939 c 128,-1,50
 412 168 412 168 433.5 130 c 0,51,52
 483 42.5116 483 42.5116 483 -40.4664 c 128,-1,53
 483 -123.444 483 -123.444 449 -182 c 1,8,9
EndSplineSet
LCarets2: 1 103 
Ligature2: "'psts' Post Base Substitutions lookup 9 subtable" y2 u1
EndChar

StartChar: y2u2
Encoding: 195 -1 191
Width: 405
GlyphClass: 3
Flags: W
LayerCount: 2
Back
Fore
SplineSet
370 -365 m 128,-1,1
 392 -365 392 -365 392 -344 c 2,2,-1
 392 -291 l 2,3,4
 392 -270 392 -270 370 -270 c 128,-1,5
 348 -270 348 -270 348 -291 c 2,6,-1
 348 -344 l 2,7,0
 348 -365 348 -365 370 -365 c 128,-1,1
443 -191 m 1,8,9
 611 -204.44 611 -204.44 611 -310 c 2,10,-1
 611 -421 l 2,11,12
 611 -515.063 611 -515.063 494.5 -546.5 c 0,13,14
 463 -555 463 -555 435 -555 c 0,15,16
 265 -555 265 -555 265 -448 c 2,17,-1
 265 -420 l 1,18,-1
 373 -435 l 1,19,20
 373 -485 373 -485 426.5 -485 c 128,-1,21
 480 -485 480 -485 480 -426 c 2,22,-1
 480 -301 l 2,23,24
 480 -276 480 -276 444 -261 c 1,25,26
 451 -275 451 -275 451 -343.5 c 128,-1,27
 451 -412 451 -412 368 -412 c 0,28,29
 301.241 -412 301.241 -412 279.621 -383.5 c 128,-1,30
 258 -355 258 -355 258 -335 c 2,31,-1
 258 -298 l 1,32,33
 234 -301 234 -301 210 -301 c 0,34,35
 -41 -301 -41 -301 -41 -144 c 0,36,37
 -41 -45.451 -41 -45.451 40.5 -5.5 c 0,38,39
 66 7 66 7 97 7 c 128,-1,40
 128 7 128 7 128 36 c 0,41,42
 128 40 128 40 126 48 c 1,43,-1
 259 48 l 1,44,-1
 259 12 l 2,45,46
 259 -47 259 -47 215 -47 c 1,47,-1
 158 -45 l 1,48,49
 114 -45 114 -45 114 -99.5 c 128,-1,50
 114 -154 114 -154 207 -154 c 0,51,52
 319 -154 319 -154 319 -45 c 0,53,54
 319 48.7091 319 48.7091 252 138.855 c 128,-1,55
 185 229 185 229 161.5 271.5 c 0,56,57
 106 371.872 106 371.872 106 482 c 2,58,-1
 108 926 l 1,59,-1
 291 926 l 1,60,-1
 292 452 l 2,61,62
 292 341.878 292 341.878 352 254.939 c 128,-1,63
 412 168 412 168 433.5 130 c 0,64,65
 483 42.5116 483 42.5116 483 -43.768 c 128,-1,66
 483 -130.048 483 -130.048 443 -191 c 1,8,9
EndSplineSet
LCarets2: 1 0 
Ligature2: "'psts' Post Base Substitutions lookup 9 subtable" y2 u2
EndChar

StartChar: v2
Encoding: 196 -1 192
Width: 329
GlyphClass: 3
Flags: W
LayerCount: 2
Back
Fore
SplineSet
-122 -22 m 1,0,-1
 137 -22 l 1,1,-1
 137 923 l 1,2,-1
 328 923 l 1,3,-1
 328 -162 l 1,4,-1
 -122 -162 l 1,5,-1
 -122 -22 l 1,0,-1
EndSplineSet
LCarets2: 1 0 
Ligature2: "'pstf' Post Base Forms in Malay+AQEA-lam2 lookup 12 subtable" xx v1
Ligature2: "'pstf' Post Base Forms in Malay+AQEA-lam lookup 11 subtable" v1 xx
EndChar

StartChar: NameMe_195550
Encoding: 197 -1 193
Width: 1772
GlyphClass: 2
Flags: W
LayerCount: 2
Back
Fore
SplineSet
1084 816 m 0,0,1
 882 816 882 816 882 652 c 2,2,-1
 882 0 l 1,3,-1
 712 0 l 1,4,-1
 712 566 l 2,5,6
 712 658 712 658 671 726 c 128,-1,7
 630 794 630 794 524.5 794 c 128,-1,8
 419 794 419 794 333.5 683 c 128,-1,9
 248 572 248 572 248 432 c 0,10,11
 248 203 248 203 488 34 c 1,12,-1
 432 -19 l 1,13,14
 316 48 316 48 237 183 c 128,-1,15
 158 318 158 318 158 475.5 c 128,-1,16
 158 633 158 633 267 775.5 c 128,-1,17
 376 918 376 918 571 918 c 128,-1,18
 766 918 766 918 844 770 c 1,19,20
 922 918 922 918 1093 918 c 128,-1,21
 1264 918 1264 918 1382 800 c 1,22,23
 1499 681 1499 681 1516 538 c 1,24,-1
 1770 538 l 1,25,-1
 1770 450 l 1,26,-1
 1524 450 l 1,27,28
 1524 280 1524 280 1463 130.5 c 128,-1,29
 1402 -19 1402 -19 1275.5 -19 c 128,-1,30
 1149 -19 1149 -19 1083.5 68 c 128,-1,31
 1018 155 1018 155 1018 265.5 c 128,-1,32
 1018 376 1018 376 1100 457 c 128,-1,33
 1182 538 1182 538 1308 538 c 2,34,-1
 1358 538 l 1,35,36
 1344 638 1344 638 1260 727 c 128,-1,37
 1176 816 1176 816 1084 816 c 0,0,1
1368 394 m 2,38,-1
 1368 450 l 1,39,-1
 1314 450 l 2,40,41
 1228 450 1228 450 1163 404.5 c 128,-1,42
 1098 359 1098 359 1098 282 c 128,-1,43
 1098 205 1098 205 1134 155.5 c 128,-1,44
 1170 106 1170 106 1230 106 c 0,45,46
 1368 106 1368 106 1368 394 c 2,38,-1
EndSplineSet
EndChar

StartChar: k1u1
Encoding: 198 -1 194
Width: 1288
GlyphClass: 3
Flags: W
LayerCount: 2
Back
Fore
SplineSet
329 118 m 0,0,1
 399 118 399 118 399 224 c 2,2,-1
 399 479 l 1,3,-1
 342 479 l 2,4,5
 280 479 280 479 280 391 c 2,6,-1
 280 212 l 2,7,8
 280 118 280 118 329 118 c 0,0,1
687 115 m 128,-1,10
 792 115 792 115 792 210 c 2,11,-1
 792 479 l 1,12,-1
 582 479 l 1,13,-1
 582 232 l 2,14,9
 582 115 582 115 687 115 c 128,-1,10
687 860 m 128,-1,16
 582 860 582 860 582 761 c 2,17,-1
 582 615 l 1,18,-1
 792 615 l 1,19,-1
 792 761 l 2,20,15
 792 860 792 860 687 860 c 128,-1,16
1237 298 m 1,21,22
 1286 245.733 1286 245.733 1286 183.867 c 128,-1,23
 1286 122 1286 122 1275.5 92.5 c 128,-1,24
 1265 63 1265 63 1245.5 40.5 c 0,25,26
 1202.6 -9.00003 1202.6 -9.00003 1137 -9 c 2,27,-1
 1013 -9 l 1,28,-1
 1013 102 l 1,29,-1
 1099 102 l 2,30,31
 1147 102 1147 102 1147 160.5 c 128,-1,32
 1147 219 1147 219 1074 219 c 1,33,-1
 1074 352 l 1,34,35
 1133.77 352 1133.77 352 1140.38 373.5 c 128,-1,36
 1147 395 1147 395 1147 416 c 0,37,38
 1147 484.552 1147 484.552 1030 478.5 c 0,39,40
 1001 477 1001 477 979 479 c 1,41,-1
 979 192 l 2,42,43
 979 43.5773 979 43.5773 801.5 -4 c 0,44,45
 753 -17 753 -17 636 -17 c 128,-1,46
 519 -17 519 -17 469 58 c 1,47,48
 413.186 -17 413.186 -17 329.593 -17 c 128,-1,49
 246 -17 246 -17 209 0.5 c 128,-1,50
 172 18 172 18 147 47.5 c 0,51,52
 97 106.5 97 106.5 97 202 c 2,53,-1
 97 405 l 2,54,55
 97 615 97 615 344 615 c 2,56,-1
 399 615 l 1,57,-1
 399 774 l 2,58,59
 399 935.922 399 935.922 585.5 983 c 0,60,61
 637 996 637 996 686.5 996 c 128,-1,62
 736 996 736 996 788 982.5 c 128,-1,63
 840 969 840 969 882.5 942 c 0,64,65
 979 880.694 979 880.694 979 774 c 2,66,-1
 979 615 l 1,67,68
 1010 614 1010 614 1041 614 c 128,-1,69
 1072 614 1072 614 1105.5 614 c 128,-1,70
 1139 614 1139 614 1172 603.5 c 128,-1,71
 1205 593 1205 593 1230.5 572.5 c 0,72,73
 1286 527.882 1286 527.882 1286 438.926 c 128,-1,74
 1286 349.97 1286 349.97 1237 298 c 1,21,22
EndSplineSet
Ligature2: "'psts' Post Base Substitutions lookup 9 subtable" k1 u1
EndChar

StartChar: k1u2
Encoding: 199 -1 195
Width: 1279
GlyphClass: 3
Flags: W
LayerCount: 2
Back
Fore
SplineSet
330 229 m 0,0,1
 401 229 401 229 401 321 c 2,2,-1
 401 544 l 1,3,-1
 344 544 l 2,4,5
 282 544 282 544 282 467 c 2,6,-1
 282 311 l 2,7,8
 282 229 282 229 330 229 c 0,0,1
583 328 m 2,9,10
 583 225 583 225 687.5 225 c 128,-1,11
 792 225 792 225 792 309 c 2,12,-1
 792 544 l 1,13,-1
 583 544 l 1,14,-1
 583 328 l 2,9,10
792 790 m 2,15,16
 792 877 792 877 687.5 877 c 128,-1,17
 583 877 583 877 583 790 c 2,18,-1
 583 663 l 1,19,-1
 792 663 l 1,20,-1
 792 790 l 2,15,16
100 479 m 2,21,22
 100 663 100 663 346 663 c 2,23,-1
 401 663 l 1,24,-1
 401 802 l 2,25,26
 401 947.6 401 947.6 593 986 c 0,27,28
 643 996 643 996 686.5 996 c 128,-1,29
 730 996 730 996 781 985.5 c 128,-1,30
 832 975 832 975 876 952 c 0,31,32
 978 898.682 978 898.682 978 802 c 2,33,-1
 978 663 l 1,34,-1
 1082 663 l 2,35,36
 1206.45 663 1206.45 663 1256 554 c 0,37,38
 1271 521 1271 521 1271 482 c 2,39,-1
 1271 462 l 2,40,41
 1271 344.5 1271 344.5 1205 317 c 1,42,43
 1272 295.682 1272 295.682 1272 193 c 1,44,-1
 1271 143 l 1,45,46
 1271 8.21918 1271 8.21918 1150.5 -38 c 0,47,48
 1114 -52 1114 -52 1071 -52 c 2,49,-1
 296 -52 l 2,50,51
 249 -52 249 -52 249 -95.5 c 128,-1,52
 249 -139 249 -139 296 -139 c 2,53,-1
 1265 -139 l 1,54,-1
 1265 -293 l 1,55,-1
 298 -293 l 2,56,57
 161.971 -293 161.971 -293 109 -185.5 c 0,58,59
 92 -151 92 -151 92 -108.5 c 128,-1,60
 92 -66 92 -66 109.5 -33 c 128,-1,61
 127 0 127 0 156 23 c 0,62,63
 215.261 70 215.261 70 298 70 c 2,64,-1
 1040 70 l 2,65,66
 1115 70 1115 70 1115 177 c 2,67,-1
 1115 199 l 2,68,69
 1115 251.6 1115 251.6 1042 237 c 1,70,-1
 1042 373 l 1,71,72
 1087 372 1087 372 1101.5 389.5 c 128,-1,73
 1116 407 1116 407 1116 437 c 128,-1,74
 1116 467 1116 467 1110.5 483.5 c 128,-1,75
 1105 500 1105 500 1094.5 513 c 0,76,77
 1070.27 543 1070.27 543 1046.63 543 c 2,78,-1
 1008 543 l 2,79,80
 993 543 993 543 978 544 c 1,81,-1
 978 293 l 2,82,83
 978 110 978 110 707 110 c 0,84,85
 522.25 110 522.25 110 470 176 c 1,86,87
 415.846 110 415.846 110 333.923 110 c 128,-1,88
 252 110 252 110 216 123.5 c 128,-1,89
 180 137 180 137 154 162 c 0,90,91
 100 213.923 100 213.923 100 302 c 2,92,-1
 100 479 l 2,21,22
EndSplineSet
Ligature2: "'psts' Post Base Substitutions lookup 9 subtable" k1 u2
EndChar

StartChar: k1r1
Encoding: 200 -1 196
Width: 1265
GlyphClass: 3
Flags: W
LayerCount: 2
Back
Fore
SplineSet
1079 289 m 1,0,-1
 1080 391 l 1,1,2
 1082.1 478.999 1082.1 478.999 1014 479 c 2,3,-1
 979 479 l 1,4,-1
 979 202 l 2,5,6
 979 54.2453 979 54.2453 796 -1 c 0,7,8
 743 -17 743 -17 630.457 -17 c 128,-1,9
 517.913 -17 517.913 -17 469 58 c 1,10,11
 414 -17 414 -17 331.5 -17 c 128,-1,12
 249 -17 249 -17 213 -1.5 c 128,-1,13
 177 14 177 14 151 43 c 0,14,15
 97 103.231 97 103.231 97 202 c 2,16,-1
 97 405 l 2,17,18
 97 615 97 615 344 615 c 2,19,-1
 399 615 l 1,20,-1
 399 774 l 2,21,22
 399 932.932 399 932.932 579.5 982 c 0,23,24
 631 996 631 996 687 996 c 128,-1,25
 743 996 743 996 796 981 c 128,-1,26
 849 966 849 966 889.5 937.5 c 0,27,28
 979 874.518 979 874.518 979 774 c 2,29,-1
 979 615 l 1,30,-1
 1014 615 l 2,31,32
 1263 615 1263 615 1263 405 c 2,33,-1
 1263 -73 l 2,34,35
 1263 -414 1263 -414 868 -414 c 0,36,37
 545 -414 545 -414 545 -209 c 2,38,-1
 545 -174 l 2,39,40
 545 -75.3333 545 -75.3333 671.5 -40.5 c 0,41,42
 706 -31 706 -31 740 -31 c 2,43,-1
 850 -31 l 2,44,45
 982.433 -31 982.433 -31 1025.5 -130.5 c 0,46,47
 1040 -164 1040 -164 1039 -209 c 1,48,-1
 916 -209 l 1,49,50
 924.231 -176.077 924.231 -176.077 898.615 -167.538 c 128,-1,51
 873 -159 873 -159 847 -159 c 2,52,-1
 770 -159 l 2,53,54
 710 -159 710 -159 710 -207 c 0,55,56
 710 -274 710 -274 803 -274 c 2,57,-1
 902 -274 l 2,58,59
 1079 -274 1079 -274 1079 -104 c 2,60,-1
 1079 289 l 1,0,-1
687 115 m 128,-1,62
 792 115 792 115 792 230 c 2,63,-1
 792 479 l 1,64,-1
 582 479 l 1,65,-1
 582 232 l 2,66,61
 582 115 582 115 687 115 c 128,-1,62
687 860 m 128,-1,68
 582 860 582 860 582 761 c 2,69,-1
 582 615 l 1,70,-1
 792 615 l 1,71,-1
 792 761 l 2,72,67
 792 860 792 860 687 860 c 128,-1,68
280 212 m 2,73,74
 280 118 280 118 329 118 c 0,75,76
 399 118 399 118 399 224 c 2,77,-1
 399 479 l 1,78,-1
 342 479 l 2,79,80
 280 479 280 479 280 391 c 2,81,-1
 280 212 l 2,73,74
EndSplineSet
LCarets2: 1 0 
Ligature2: "'psts' Post Base Substitutions lookup 9 subtable" k1 r1
EndChar

StartChar: k1k1
Encoding: 201 -1 197
Width: 1509
GlyphClass: 3
Flags: W
LayerCount: 2
Back
Fore
SplineSet
278 202 m 2,0,1
 278 115 278 115 337.5 115 c 128,-1,2
 397 115 397 115 397 194 c 2,3,-1
 397 477 l 1,4,-1
 364 477 l 2,5,6
 278 477 278 477 278 389 c 2,7,-1
 278 202 l 2,0,1
580 202 m 2,8,9
 580 115 580 115 684.5 115 c 128,-1,10
 789 115 789 115 789 202 c 2,11,-1
 789 477 l 1,12,-1
 580 477 l 1,13,-1
 580 202 l 2,8,9
971 194 m 2,14,15
 971 115 971 115 1020 115 c 128,-1,16
 1069 115 1069 115 1069 202 c 2,17,-1
 1069 389 l 2,18,19
 1069 477 1069 477 1004 477 c 2,20,-1
 971 477 l 1,21,-1
 971 194 l 2,14,15
789 765 m 2,22,23
 789 854 789 854 684.5 854 c 128,-1,24
 580 854 580 854 580 767 c 2,25,-1
 580 613 l 1,26,-1
 789 613 l 1,27,-1
 789 765 l 2,22,23
876 914 m 1,28,29
 931.811 973 931.811 973 1036 973 c 2,30,-1
 1263 973 l 2,31,32
 1510 973 1510 973 1510 763 c 2,33,-1
 1510 204 l 2,34,35
 1510 -5 1510 -5 1279 -5 c 1,36,-1
 1279 126 l 1,37,38
 1329 126 1329 126 1329 216 c 2,39,-1
 1329 749 l 2,40,41
 1329 837 1329 837 1236 837 c 2,42,-1
 1065 837 l 2,43,44
 971 837 971 837 971 755 c 2,45,-1
 971 613 l 1,46,47
 1242 613 1242 613 1242 403 c 2,48,-1
 1242 190 l 2,49,50
 1242 -19 1242 -19 1016 -19 c 0,51,52
 916.849 -19 916.849 -19 868 43 c 1,53,54
 809.444 -19 809.444 -19 686.994 -19 c 128,-1,55
 564.543 -19 564.543 -19 499 43 c 1,56,57
 425.155 -59.2466 425.155 -59.2466 246 -5.5 c 0,58,59
 97 39.2 97 39.2 97 200 c 2,60,-1
 97 403 l 2,61,62
 97 557.926 97 557.926 267.5 601 c 0,63,64
 315 613 315 613 364 613 c 2,65,-1
 397 613 l 1,66,-1
 397 770 l 2,67,68
 397 991 397 991 683 991 c 0,69,70
 816.5 991 816.5 991 876 914 c 1,28,29
EndSplineSet
Ligature2: "'akhn' Akhand in Malay+AQEA-lam2 lookup 1 subtable" k1 xx k1
Ligature2: "'akhn' Akhand in Malay+AQEA-lam lookup 0 subtable" k1 xx k1
EndChar

StartChar: k1k1u1
Encoding: 202 -1 198
Width: 1566
GlyphClass: 3
Flags: W
LayerCount: 2
Back
Fore
SplineSet
278 202 m 2,0,1
 278 115 278 115 337.5 115 c 128,-1,2
 397 115 397 115 397 194 c 2,3,-1
 397 477 l 1,4,-1
 364 477 l 2,5,6
 278 477 278 477 278 389 c 2,7,-1
 278 202 l 2,0,1
580 202 m 2,8,9
 580 115 580 115 684.5 115 c 128,-1,10
 789 115 789 115 789 202 c 2,11,-1
 789 477 l 1,12,-1
 580 477 l 1,13,-1
 580 202 l 2,8,9
971 194 m 2,14,15
 971 115 971 115 1020 115 c 128,-1,16
 1069 115 1069 115 1069 202 c 2,17,-1
 1069 389 l 2,18,19
 1069 477 1069 477 1004 477 c 2,20,-1
 971 477 l 1,21,-1
 971 194 l 2,14,15
789 765 m 2,22,23
 789 854 789 854 684.5 854 c 128,-1,24
 580 854 580 854 580 767 c 2,25,-1
 580 613 l 1,26,-1
 789 613 l 1,27,-1
 789 765 l 2,22,23
1457 484 m 1,28,29
 1564 446.783 1564 446.783 1564 338 c 2,30,-1
 1564 206 l 2,31,32
 1564 -3 1564 -3 1313 -3 c 2,33,-1
 1278 -3 l 1,34,-1
 1278 132 l 1,35,-1
 1301 132 l 2,36,37
 1382 132 1382 132 1382 259 c 1,38,-1
 1381 327 l 1,39,40
 1381 404.676 1381 404.676 1330.5 411.5 c 0,41,42
 1312 414 1312 414 1285 414 c 1,43,-1
 1285 560 l 1,44,45
 1383 558.31 1383 558.31 1383 672 c 2,46,-1
 1383 728.5 l 2,47,48
 1383 837 1383 837 1293 837 c 2,49,-1
 1065 837 l 2,50,51
 971 837 971 837 971 755 c 2,52,-1
 971 613 l 1,53,54
 1242 613 1242 613 1242 403 c 2,55,-1
 1242 190 l 2,56,57
 1242 -19 1242 -19 1016 -19 c 0,58,59
 916.849 -19 916.849 -19 868 43 c 1,60,61
 809.444 -19 809.444 -19 686.994 -19 c 128,-1,62
 564.543 -19 564.543 -19 499 43 c 1,63,64
 425.155 -59.2466 425.155 -59.2466 246 -5.5 c 0,65,66
 97 39.2 97 39.2 97 200 c 2,67,-1
 97 403 l 2,68,69
 97 557.926 97 557.926 267.5 601 c 0,70,71
 315 613 315 613 364 613 c 2,72,-1
 397 613 l 1,73,-1
 397 770 l 2,74,75
 397 991 397 991 683 991 c 0,76,77
 816.5 991 816.5 991 876 914 c 1,78,79
 931.811 973 931.811 973 1036 973 c 2,80,-1
 1293 973 l 2,81,82
 1564 973 1564 973 1564 763 c 2,83,-1
 1564 624 l 2,84,85
 1564 518.045 1564 518.045 1457 484 c 1,28,29
EndSplineSet
Ligature2: "'psts' Post Base Substitutions lookup 9 subtable" k1k1 u1
EndChar

StartChar: k1k1u2
Encoding: 203 -1 199
Width: 1465
GlyphClass: 3
Flags: W
LayerCount: 2
Back
Fore
SplineSet
271 300 m 2,0,1
 271 226 271 226 323.5 226 c 128,-1,2
 376 226 376 226 376 293 c 2,3,-1
 376 538 l 1,4,-1
 348 538 l 2,5,6
 271 538 271 538 271 464 c 2,7,-1
 271 300 l 2,0,1
551 300 m 2,8,9
 551 226 551 226 645 226 c 128,-1,10
 739 226 739 226 739 300 c 2,11,-1
 739 538 l 1,12,-1
 551 538 l 1,13,-1
 551 300 l 2,8,9
914 293 m 2,14,15
 914 226 914 226 956.5 226 c 128,-1,16
 999 226 999 226 999 300 c 2,17,-1
 999 464 l 2,18,19
 999 538 999 538 942 538 c 2,20,-1
 914 538 l 1,21,-1
 914 293 l 2,14,15
739 792 m 2,22,23
 739 868 739 868 645 868 c 128,-1,24
 551 868 551 868 551 794 c 2,25,-1
 551 662 l 1,26,-1
 739 662 l 1,27,-1
 739 792 l 2,22,23
1210 976 m 2,28,29
 1464 976 1464 976 1464 790 c 2,30,-1
 1464 579 l 2,31,32
 1464 532.13 1464 532.13 1438.5 511.065 c 128,-1,33
 1413 490 1413 490 1400 477 c 1,34,35
 1412 462 1412 462 1423 451.5 c 128,-1,36
 1434 441 1434 441 1442 430 c 0,37,38
 1459 406.625 1459 406.625 1459 369 c 2,39,-1
 1459 153 l 2,40,41
 1459 17.4557 1459 17.4557 1321.5 -36.5 c 0,42,43
 1282 -52 1282 -52 1239 -52 c 2,44,-1
 306 -52 l 2,45,46
 249 -52 249 -52 249 -95.5 c 128,-1,47
 249 -139 249 -139 306 -139 c 2,48,-1
 1446 -139 l 1,49,-1
 1446 -293 l 1,50,-1
 318 -293 l 2,51,52
 170 -293 170 -293 111.5 -189.5 c 0,53,54
 92 -155 92 -155 92 -109 c 128,-1,55
 92 -63 92 -63 112.5 -29.5 c 128,-1,56
 133 4 133 4 165.5 26 c 0,57,58
 230.5 70 230.5 70 318 70 c 2,59,-1
 1200 70 l 2,60,61
 1255.58 70 1255.58 70 1271.79 103.5 c 128,-1,62
 1288 137 1288 137 1288 154 c 2,63,-1
 1288 319 l 2,64,65
 1288 387.182 1288 387.182 1240.5 391.5 c 0,66,67
 1224 393 1224 393 1200 393 c 1,68,-1
 1200 546 l 1,69,70
 1289 543.718 1289 543.718 1289 620 c 2,71,-1
 1289 776 l 2,72,73
 1289 852 1289 852 1210 852 c 2,74,-1
 998 852 l 2,75,76
 914 852 914 852 914 783 c 2,77,-1
 914 662 l 1,78,79
 1165 662 1165 662 1165 475 c 2,80,-1
 1165 290 l 2,81,82
 1165 104 1165 104 953 104 c 0,83,84
 861.69 104 861.69 104 816 157 c 1,85,86
 759.467 104 759.467 104 646.153 104 c 128,-1,87
 532.839 104 532.839 104 473 157 c 1,88,89
 429.938 104 429.938 104 355.969 104 c 128,-1,90
 282 104 282 104 240 115.5 c 128,-1,91
 198 127 198 127 166.5 150.5 c 0,92,93
 98 201.603 98 201.603 98 299 c 2,94,-1
 98 475 l 2,95,96
 98 662 98 662 376 662 c 1,97,-1
 376 797 l 2,98,99
 376 992 376 992 644 992 c 0,100,101
 767.421 992 767.421 992 823 926 c 1,102,103
 873 976 873 976 971 976 c 2,104,-1
 1210 976 l 2,28,29
EndSplineSet
Ligature2: "'psts' Post Base Substitutions lookup 9 subtable" k1k1 u2
EndChar

StartChar: k1k1r1
Encoding: 204 -1 200
Width: 1539
GlyphClass: 3
Flags: W
LayerCount: 2
Back
Fore
SplineSet
278 202 m 2,0,1
 278 115 278 115 337.5 115 c 128,-1,2
 397 115 397 115 397 194 c 2,3,-1
 397 477 l 1,4,-1
 364 477 l 2,5,6
 278 477 278 477 278 389 c 2,7,-1
 278 202 l 2,0,1
580 202 m 2,8,9
 580 115 580 115 684.5 115 c 128,-1,10
 789 115 789 115 789 202 c 2,11,-1
 789 477 l 1,12,-1
 580 477 l 1,13,-1
 580 202 l 2,8,9
971 204 m 2,14,15
 971 125 971 125 1020 125 c 128,-1,16
 1069 125 1069 125 1069 212 c 2,17,-1
 1069 389 l 2,18,19
 1069 477 1069 477 1004 477 c 2,20,-1
 971 477 l 1,21,-1
 971 204 l 2,14,15
789 765 m 2,22,23
 789 854 789 854 684.5 854 c 128,-1,24
 580 854 580 854 580 767 c 2,25,-1
 580 613 l 1,26,-1
 789 613 l 1,27,-1
 789 765 l 2,22,23
876 914 m 1,28,29
 933.314 973 933.314 973 1036 973 c 2,30,-1
 1263 973 l 2,31,32
 1447.44 973 1447.44 973 1510 851 c 0,33,34
 1530 812 1530 812 1530 763 c 2,35,-1
 1530 -74 l 2,36,37
 1530 -407 1530 -407 1136 -407 c 0,38,39
 812 -407 812 -407 812 -208 c 2,40,-1
 812 -174 l 2,41,42
 812 -77.4 812 -77.4 938 -45 c 0,43,44
 973 -36 973 -36 1007 -36 c 2,45,-1
 1118 -36 l 2,46,47
 1247.47 -36 1247.47 -36 1292 -131 c 0,48,49
 1307 -163 1307 -163 1306 -206 c 1,50,-1
 1188 -206 l 1,51,52
 1188 -157 1188 -157 1115 -157 c 2,53,-1
 1037 -157 l 2,54,55
 973 -157 973 -157 973 -207 c 0,56,57
 973 -274 973 -274 1070 -274 c 2,58,-1
 1170 -274 l 2,59,60
 1351 -274 1351 -274 1351 -105 c 2,61,-1
 1351 749 l 2,62,63
 1351 837 1351 837 1236 837 c 2,64,-1
 1065 837 l 2,65,66
 971 837 971 837 971 755 c 2,67,-1
 971 613 l 1,68,-1
 1004 613 l 2,69,70
 1242 613 1242 613 1242 403 c 2,71,-1
 1242 190 l 2,72,73
 1242 -9 1242 -9 1016 -9 c 0,74,75
 906.581 -9 906.581 -9 868 43 c 1,76,77
 812 -19 812 -19 688.379 -19 c 128,-1,78
 564.758 -19 564.758 -19 499 43 c 1,79,80
 454.714 -19 454.714 -19 369.357 -19 c 128,-1,81
 284 -19 284 -19 238.5 -3.5 c 128,-1,82
 193 12 193 12 161.5 41 c 0,83,84
 97 100.381 97 100.381 97 200 c 2,85,-1
 97 403 l 2,86,87
 97 551.153 97 551.153 257 598.5 c 0,88,89
 306 613 306 613 364 613 c 2,90,-1
 397 613 l 1,91,-1
 397 770 l 2,92,93
 397 991 397 991 683 991 c 0,94,95
 818.744 991 818.744 991 876 914 c 1,28,29
EndSplineSet
Ligature2: "'psts' Post Base Substitutions lookup 9 subtable" k1k1 r1
EndChar

StartChar: k1k1r3
Encoding: 205 -1 201
Width: 1766
GlyphClass: 3
Flags: W
LayerCount: 2
Back
Fore
SplineSet
538 202 m 2,0,1
 538 115 538 115 597.5 115 c 128,-1,2
 657 115 657 115 657 194 c 2,3,-1
 657 477 l 1,4,-1
 624 477 l 2,5,6
 538 477 538 477 538 389 c 2,7,-1
 538 202 l 2,0,1
840 202 m 2,8,9
 840 115 840 115 944.5 115 c 128,-1,10
 1049 115 1049 115 1049 202 c 2,11,-1
 1049 477 l 1,12,-1
 840 477 l 1,13,-1
 840 202 l 2,8,9
1231 194 m 2,14,15
 1231 115 1231 115 1280 115 c 128,-1,16
 1329 115 1329 115 1329 202 c 2,17,-1
 1329 389 l 2,18,19
 1329 477 1329 477 1264 477 c 2,20,-1
 1231 477 l 1,21,-1
 1231 194 l 2,14,15
1049 765 m 2,22,23
 1049 854 1049 854 944.5 854 c 128,-1,24
 840 854 840 854 840 767 c 2,25,-1
 840 613 l 1,26,-1
 1049 613 l 1,27,-1
 1049 765 l 2,22,23
1523 973 m 2,28,29
 1766 973 1766 973 1766 763 c 2,30,-1
 1766 96 l 2,31,32
 1766 -94.5692 1766 -94.5692 1627.5 -207.5 c 0,33,34
 1555.75 -266 1555.75 -266 1472 -266 c 2,35,-1
 481 -266 l 2,36,37
 261 -266 261 -266 147 -38 c 0,38,39
 97 62 97 62 97 167 c 2,40,-1
 97 738 l 2,41,42
 97 900.533 97 900.533 252 959.5 c 0,43,44
 298 977 298 977 349 977 c 1,45,-1
 349 823 l 1,46,47
 278 823 278 823 278 707 c 2,48,-1
 278 198 l 2,49,50
 278 -4.41346 278 -4.41346 443 -88.5 c 0,51,52
 495 -115 495 -115 558 -115 c 2,53,-1
 1412 -115 l 2,54,55
 1532.58 -115 1532.58 -115 1577 27.5 c 0,56,57
 1589 66 1589 66 1589 103 c 2,58,-1
 1589 749 l 2,59,60
 1589 837 1589 837 1496 837 c 2,61,-1
 1325 837 l 2,62,63
 1231 837 1231 837 1231 755 c 2,64,-1
 1231 613 l 1,65,66
 1502 613 1502 613 1502 403 c 2,67,-1
 1502 190 l 2,68,69
 1502 -19 1502 -19 1276 -19 c 0,70,71
 1176.85 -19 1176.85 -19 1128 43 c 1,72,73
 1069.44 -19 1069.44 -19 946.994 -19 c 128,-1,74
 824.543 -19 824.543 -19 759 43 c 1,75,76
 685.155 -59.2465 685.155 -59.2465 506 -5.5 c 0,77,78
 357 39.2 357 39.2 357 200 c 2,79,-1
 357 403 l 2,80,81
 357 557.926 357 557.926 527.5 601 c 0,82,83
 575 613 575 613 624 613 c 2,84,-1
 657 613 l 1,85,-1
 657 770 l 2,86,87
 657 991 657 991 943 991 c 0,88,89
 1076.5 991 1076.5 991 1136 914 c 1,90,91
 1191.81 973 1191.81 973 1296 973 c 2,92,-1
 1523 973 l 2,28,29
EndSplineSet
Ligature2: "'pres' Pre Base Substitutions in Malay+AQEA-lam2 lookup 8 subtable" r4 k1k1
Ligature2: "'pres' Pre Base Substitutions in Malay+AQEA-lam lookup 7 subtable" k1k1 r4
Ligature2: "'pres' Pre Base Substitutions in Malay+AQEA-lam lookup 7 subtable" k1k1 xx r3
EndChar

StartChar: k1t1
Encoding: 206 -1 202
Width: 1207
GlyphClass: 3
Flags: W
LayerCount: 2
Back
Fore
SplineSet
317 161 m 0,0,1
 384 161 384 161 384 261 c 2,2,-1
 384 503 l 1,3,-1
 330 503 l 2,4,5
 271 503 271 503 271 420 c 2,6,-1
 271 250 l 2,7,8
 271 161 271 161 317 161 c 0,0,1
658 158 m 128,-1,10
 758 158 758 158 758 267 c 2,11,-1
 758 503 l 1,12,-1
 558 503 l 1,13,-1
 558 269 l 2,14,9
 558 158 558 158 658 158 c 128,-1,10
658 866 m 128,-1,16
 558 866 558 866 558 771 c 2,17,-1
 558 633 l 1,18,-1
 758 633 l 1,19,-1
 758 771 l 2,20,15
 758 866 758 866 658 866 c 128,-1,16
878 -98 m 2,21,22
 878 -45 878 -45 822 -45 c 128,-1,23
 766 -45 766 -45 766 -77 c 2,24,-1
 766 -126 l 2,25,26
 766 -152.111 766 -152.111 788 -154.556 c 128,-1,27
 810 -157 810 -157 825 -158.5 c 128,-1,28
 840 -160 840 -160 877.5 -164 c 128,-1,29
 915 -168 915 -168 951.5 -178.5 c 0,30,31
 1041 -204.247 1041 -204.247 1041 -257 c 2,32,-1
 1041 -319 l 2,33,34
 1041 -418 1041 -418 818 -418 c 0,35,36
 689.842 -418 689.842 -418 642.421 -384 c 128,-1,37
 595 -350 595 -350 595 -319 c 2,38,-1
 595 -256 l 1,39,-1
 758 -256 l 1,40,-1
 758 -293 l 2,41,42
 758 -344 758 -344 814 -344 c 128,-1,43
 870 -344 870 -344 870 -314 c 2,44,-1
 870 -262 l 2,45,46
 870 -230 870 -230 815 -230 c 1,47,48
 595 -210 595 -210 595 -131 c 2,49,-1
 595 -71 l 2,50,51
 595 28 595 28 818 28 c 0,52,53
 947.231 28 947.231 28 994.115 -6.5 c 128,-1,54
 1041 -41 1041 -41 1041 -71 c 2,55,-1
 1041 -134 l 1,56,-1
 878 -134 l 1,57,-1
 878 -98 l 2,21,22
97 433 m 2,58,59
 97 633 97 633 332 633 c 2,60,-1
 384 633 l 1,61,-1
 384 784 l 2,62,63
 384 937.347 384 937.347 561 982.5 c 0,64,65
 610 995 610 995 657.5 995 c 128,-1,66
 705 995 705 995 754 982.5 c 128,-1,67
 803 970 803 970 843.5 944 c 0,68,69
 935 885.259 935 885.259 935 784 c 2,70,-1
 935 633 l 1,71,-1
 969 633 l 2,72,73
 1205 633 1205 633 1205 433 c 2,74,-1
 1205 241 l 2,75,76
 1205 39 1205 39 948 39 c 1,77,-1
 948 167 l 1,78,79
 1031 165.196 1031 165.196 1031 250 c 2,80,-1
 1031 420 l 2,81,82
 1031 496.333 1031 496.333 980 502 c 0,83,84
 962 504 962 504 935 503 c 1,85,-1
 935 241 l 2,86,87
 935 145.679 935 145.679 868 101.84 c 0,88,89
 761.264 32 761.264 32 630.132 32 c 128,-1,90
 499 32 499 32 451 104 c 1,91,92
 397.857 32 397.857 32 317.929 32 c 128,-1,93
 238 32 238 32 203 48.5 c 128,-1,94
 168 65 168 65 144.5 93.5 c 0,95,96
 97 151.106 97 151.106 97 241 c 2,97,-1
 97 433 l 2,58,59
EndSplineSet
Ligature2: "'akhn' Akhand in Malay+AQEA-lam2 lookup 1 subtable" k1 xx t1
Ligature2: "'akhn' Akhand in Malay+AQEA-lam lookup 0 subtable" k1 xx t1
EndChar

StartChar: k1t1r3
Encoding: 207 -1 203
Width: 1207
GlyphClass: 3
Flags: W
LayerCount: 2
Back
Fore
SplineSet
317 161 m 0,0,1
 384 161 384 161 384 261 c 2,2,-1
 384 503 l 1,3,-1
 330 503 l 2,4,5
 271 503 271 503 271 420 c 2,6,-1
 271 250 l 2,7,8
 271 161 271 161 317 161 c 0,0,1
658 158 m 128,-1,10
 758 158 758 158 758 267 c 2,11,-1
 758 503 l 1,12,-1
 558 503 l 1,13,-1
 558 269 l 2,14,9
 558 158 558 158 658 158 c 128,-1,10
658 866 m 128,-1,16
 558 866 558 866 558 771 c 2,17,-1
 558 633 l 1,18,-1
 758 633 l 1,19,-1
 758 771 l 2,20,15
 758 866 758 866 658 866 c 128,-1,16
930 -120 m 0,21,22
 930 -68 930 -68 875 -68 c 128,-1,23
 820 -68 820 -68 820 -99 c 2,24,-1
 820 -148 l 2,25,26
 820 -175.222 820 -175.222 841.5 -177.611 c 128,-1,27
 863 -180 863 -180 878 -181.5 c 128,-1,28
 893 -183 893 -183 929.5 -187 c 128,-1,29
 966 -191 966 -191 1001.5 -201.5 c 0,30,31
 1088 -227.085 1088 -227.085 1088 -280 c 2,32,-1
 1088 -342 l 2,33,34
 1088 -438 1088 -438 871 -438 c 2,35,-1
 715 -438 l 2,36,37
 555.694 -438 555.694 -438 480 -329 c 0,38,39
 455 -293 455 -293 455 -245 c 2,40,-1
 455 -109 l 2,41,42
 455 1 455 1 632 1 c 1,43,-1
 632 -79 l 1,44,45
 583 -79 583 -79 583 -122 c 2,46,-1
 583 -231 l 2,47,48
 583 -322.4 583 -322.4 695 -356 c 0,49,50
 725 -365 725 -365 754 -365 c 2,51,-1
 871 -365 l 2,52,53
 920.667 -365 920.667 -365 924.833 -347.5 c 128,-1,54
 929 -330 929 -330 929 -313 c 2,55,-1
 929 -296 l 2,56,57
 929 -263 929 -263 868 -263 c 1,58,59
 654 -243.545 654 -243.545 654 -164 c 2,60,-1
 654 -93 l 2,61,62
 654 5 654 5 871 5 c 128,-1,63
 1088 5 1088 5 1088 -93 c 2,64,-1
 1088 -156 l 1,65,-1
 929 -156 l 1,66,67
 930 -147 930 -147 930 -138 c 128,-1,68
 930 -129 930 -129 930 -120 c 0,21,22
97 433 m 2,69,70
 97 633 97 633 332 633 c 2,71,-1
 384 633 l 1,72,-1
 384 784 l 2,73,74
 384 937.347 384 937.347 561 982.5 c 0,75,76
 610 995 610 995 657.5 995 c 128,-1,77
 705 995 705 995 754 982.5 c 128,-1,78
 803 970 803 970 843.5 944 c 0,79,80
 935 885.259 935 885.259 935 784 c 2,81,-1
 935 633 l 1,82,-1
 969 633 l 2,83,84
 1205 633 1205 633 1205 433 c 2,85,-1
 1205 241 l 2,86,87
 1205 39 1205 39 948 39 c 1,88,-1
 948 167 l 1,89,90
 1031 165.196 1031 165.196 1031 250 c 2,91,-1
 1031 420 l 2,92,93
 1031 496.333 1031 496.333 980 502 c 0,94,95
 962 504 962 504 935 503 c 1,96,-1
 935 241 l 2,97,98
 935 145.679 935 145.679 868 101.84 c 0,99,100
 761.264 32 761.264 32 630.132 32 c 128,-1,101
 499 32 499 32 451 104 c 1,102,103
 397.857 32 397.857 32 317.929 32 c 128,-1,104
 238 32 238 32 203 48.5 c 128,-1,105
 168 65 168 65 144.5 93.5 c 0,106,107
 97 151.106 97 151.106 97 241 c 2,108,-1
 97 433 l 2,69,70
EndSplineSet
Ligature2: "'pres' Pre Base Substitutions in Malay+AQEA-lam2 lookup 8 subtable" r4 k1t1
Ligature2: "'pres' Pre Base Substitutions in Malay+AQEA-lam lookup 7 subtable" k1t1 r4
Ligature2: "'pres' Pre Base Substitutions in Malay+AQEA-lam lookup 7 subtable" k1t1 xx r3
EndChar

